<?xml version="1.0" encoding="UTF-8" standalone="no"?>
<!DOCTYPE svg PUBLIC "-//W3C//DTD SVG 1.1//EN"
"http://www.w3.org/Graphics/SVG/1.1/DTD/svg11.dtd">


<!-- Page 1 -->
<svg x="0" y="0" width="692" height="357" viewBox="0 0 692 357" version="1.1" xmlns="http://www.w3.org/2000/svg" xmlns:xlink="http://www.w3.org/1999/xlink"
style="display: block;margin-left: auto;margin-right: auto;">
<defs>

<style type="text/css"><![CDATA[

.g1_1{
fill: #F9F8EB;
}
.g2_1{
fill: #FFE1B6;
}
.g3_1{
fill: none;
stroke: #7A9EB1;
stroke-width: 1.8265041;
stroke-linecap: butt;
stroke-linejoin: miter;
}

.s1_1{
font-size: 15.22px;
font-family: CMR10_v;
fill: #7A9EB1;
}
.s2_1{
font-size: 15.22px;
font-family: CMMI10_w;
fill: #7A9EB1;
}
.s3_1{
font-size: 15.22px;
font-family: CMSY10_x;
fill: #7A9EB1;
}
.s4_1{
font-size: 10.65px;
font-family: CMR7_y;
fill: #7A9EB1;
}
.s5_1{
font-size: 13.70px;
font-family: CMR9_z;
fill: #7A9EB1;
}
.s6_1{
font-size: 13.70px;
font-family: CMMI9_-;
fill: #7A9EB1;
}
.s7_1{
font-size: 13.70px;
font-family: CMSY9__;
fill: #7A9EB1;
}
.s8_1{
font-size: 9.13px;
font-family: CMR6_10;
fill: #7A9EB1;
}
.s9_1{
font-size: 13.72px;
font-family: CMR9_z;
fill: #7A9EB1;
}

]]></style>

</defs>
<path d="M0,0
L0,357
L692,357
L692,0 Z " 
fill="#FFFFFF" stroke="none" />
<path d="M0,357.2l694.8,0l0,-358.4L0,-1.2L0,357.2Z" class="g1_1" />
<path d="M135.5,5.1L17.7,5.1c-3.3,0,-6.1,2.7,-6.1,6.1l0,117.7c0,3.4,2.8,6.1,6.1,6.1l117.8,0c3.3,0,6,-2.7,6,-6.1l0,-117.7c0,-3.4,-2.7,-6.1,-6,-6.1Z" class="g2_1" />
<text 
x="44" 
y="56" 
dx="0,0,0,1.3,0,1.3,0,0" 
class="s1_1"
>Gc = 100</text>

<text 
x="18" 
y="75" 
dx="0,0" 
class="s2_1"
>Gc</text>

<text 
x="41" 
y="75" 
dx="0" 
class="s3_1"
>∼</text>

<text 
x="57" 
y="75" 
dx="0" 
class="s2_1"
>N</text>

<text 
x="71" 
y="75" 
dx="0,0,0,0" 
class="s1_1"
>(100</text>

<text 
x="99" 
y="75" 
dx="0" 
class="s2_1"
>,</text>

<text 
x="106" 
y="75" 
dx="0,0" 
class="s1_1"
>15</text>

<text 
x="121" 
y="69" 
dx="0" 
class="s4_1"
>2</text>

<text 
x="128" 
y="75" 
dx="0" 
class="s1_1"
>)</text>

<path d="M135.5,222.2l-117.8,0c-3.3,0,-6.1,2.7,-6.1,6.1l0,117.8c0,3.3,2.8,6,6.1,6l117.8,0c3.3,0,6,-2.7,6,-6l0,-117.8c0,-3.4,-2.7,-6.1,-6,-6.1Z" class="g2_1" />
<text 
x="37" 
y="273" 
dx="0,0,0,0,0,0,0,0,0,0,0,0" 
class="s5_1"
>Phonological</text>

<text 
x="27" 
y="290" 
dx="0,0,-0.4,0,0,0,0,0,0,0,1.3,0,1.3,0" 
class="s5_1"
>Awareness = 75</text>

<text 
x="20" 
y="306" 
dx="0,2" 
class="s6_1"
>PA</text>

<text 
x="46" 
y="306" 
dx="0" 
class="s7_1"
>∼</text>

<text 
x="60" 
y="306" 
dx="0" 
class="s6_1"
>N</text>

<text 
x="73" 
y="306" 
dx="0,0,0,0" 
class="s5_1"
>(100</text>

<text 
x="100" 
y="306" 
dx="0" 
class="s6_1"
>,</text>

<text 
x="106" 
y="306" 
dx="0,0" 
class="s5_1"
>15</text>

<text 
x="120" 
y="301" 
dx="0" 
class="s8_1"
>2</text>

<text 
x="126" 
y="306" 
dx="0" 
class="s5_1"
>)</text>

<path d="M674.5,148.6l-156.5,0c-3.3,0,-6.1,2.7,-6.1,6.1l0,117.7c0,3.4,2.8,6.1,6.1,6.1l156.5,0c3.4,0,6.1,-2.7,6.1,-6.1l0,-117.7c0,-3.4,-2.7,-6.1,-6.1,-6.1Z" class="g2_1" />
<text 
x="516" 
y="200" 
dx="0,0,0,0,0,0,0,0,1.3,0,0,0,0.4,0,0,0,0,1.3,0,1.3,0" 
class="s1_1"
>Reading Decoding = 75</text>

<text 
x="535" 
y="218" 
dx="0,0.1" 
class="s2_1"
>RD</text>

<text 
x="564" 
y="218" 
dx="0" 
class="s3_1"
>∼</text>

<text 
x="580" 
y="218" 
dx="0" 
class="s2_1"
>N</text>

<text 
x="593" 
y="218" 
dx="0,0,0,0" 
class="s1_1"
>(100</text>

<text 
x="622" 
y="218" 
dx="0" 
class="s2_1"
>,</text>

<text 
x="629" 
y="218" 
dx="0,0" 
class="s1_1"
>15</text>

<text 
x="644" 
y="213" 
dx="0" 
class="s4_1"
>2</text>

<text 
x="651" 
y="218" 
dx="0" 
class="s1_1"
>)</text>

<path d="M147.7,89.7l358,99" class="g3_1" />
<path d="M355.2,114.5C359.7,98.3,350.2,81.5,334,77c-16.2,-4.4,-33,5.1,-37.5,21.3c-4.5,16.2,5,33,21.2,37.4c16.3,4.5,33,-5,37.5,-21.2Z" class="g1_1" />
<text 
transform="matrix(0.96, 0.27, -0.27, 0.96, 278, 98)"
dx="0,0,0,0,0,0,0,0,0,0,1.3,0,1.3,0" 
class="s9_1"
>Diﬀerence = 25</text>

<path d="M147.9,277.1L505.6,226.3" class="g3_1" />
<path d="M341.1,220.5c-2.2,-15.2,-16.3,-25.9,-31.6,-23.7c-15.3,2.2,-25.9,16.3,-23.7,31.6c2.2,15.3,16.3,25.9,31.6,23.7c15.2,-2.1,25.9,-16.3,23.7,-31.6Z" class="g1_1" />
<text 
transform="matrix(0.99, -0.14, 0.14, 0.99, 270, 235)"
dx="0,0,0,0,0,0,0,0,0,0,1.3,0,1.3" 
class="s5_1"
>Diﬀerence = 0</text>

<path d="M76.6,141.4l0,74.4" class="g3_1" />
<path d="M99.3,198.2c12,0,21.7,-9.7,21.7,-21.8c0,-12,-9.7,-21.7,-21.7,-21.7c-12.1,0,-21.8,9.7,-21.8,21.7c0,12.1,9.7,21.8,21.8,21.8Z" class="g1_1" />
<text 
transform="matrix(0, 1, -1, 0, 94, 153)"
dx="0,0,1.3,0,1.3,0" 
class="s5_1"
>D = 25</text>



<!-- Any embedded fonts defined here -->
<style type="text/css" ><![CDATA[

@font-face {
	font-family: CMMI10_w;
	src: url("fonts/CMMI10_w.woff") format("woff");
}

@font-face {
	font-family: CMMI9_-;
	src: url("fonts/CMMI9_-.woff") format("woff");
}

@font-face {
	font-family: CMR6_10;
	src: url("fonts/CMR6_10.woff") format("woff");
}

@font-face {
	font-family: CMSY10_x;
	src: url("fonts/CMSY10_x.woff") format("woff");
}

@font-face {
	font-family: CMSY9__;
	src: url("fonts/CMSY9__.woff") format("woff");
}

@font-face {
	font-family: CMR9_z;
	src: url("fonts/CMR9_z.woff") format("woff");
}

@font-face {
	font-family: CMR7_y;
	src: url("fonts/CMR7_y.woff") format("woff");
}

@font-face {
	font-family: CMR10_v;
	src: url("fonts/CMR10_v.woff") format("woff");
}

]]></style>

</svg>
