<?xml version="1.0" encoding="UTF-8" standalone="no"?>
<!DOCTYPE svg PUBLIC "-//W3C//DTD SVG 1.1//EN"
"http://www.w3.org/Graphics/SVG/1.1/DTD/svg11.dtd">


<!-- Page 1 -->
<svg x="0" y="0" width="758" height="400" viewBox="0 0 758 400" version="1.1" xmlns="http://www.w3.org/2000/svg" xmlns:xlink="http://www.w3.org/1999/xlink"
style="display: block;margin-left: auto;margin-right: auto;">
<defs>

<style type="text/css"><![CDATA[

.g1_1{
fill: #F9F8EB;
}
.g2_1{
fill: #FFE1B6;
}
.g3_1{
fill: none;
stroke: #7A9EB1;
stroke-width: 1.8265041;
stroke-linecap: butt;
stroke-linejoin: miter;
}
.g4_1{
fill: #7A9EB1;
}
.g5_1{
fill: #FFE1B6;
stroke: #000000;
stroke-width: 0.6088194;
stroke-linecap: butt;
stroke-linejoin: miter;
}
.g6_1{
fill: none;
stroke: #7A9EB1;
stroke-width: 1.2176542;
stroke-linecap: butt;
stroke-linejoin: miter;
}

.s1_1{
font-size: 15.22px;
font-family: CMR10_v;
fill: #7A9EB1;
}
.s2_1{
font-size: 15.22px;
font-family: CMMI10_w;
fill: #7A9EB1;
}
.s3_1{
font-size: 15.22px;
font-family: CMSY10_x;
fill: #7A9EB1;
}
.s4_1{
font-size: 10.65px;
font-family: CMR7_y;
fill: #7A9EB1;
}
.s5_1{
font-size: 13.70px;
font-family: CMR9_z;
fill: #7A9EB1;
}
.s6_1{
font-size: 13.70px;
font-family: CMMI9_-;
fill: #7A9EB1;
}
.s7_1{
font-size: 13.70px;
font-family: CMSY9__;
fill: #7A9EB1;
}
.s8_1{
font-size: 9.13px;
font-family: CMR6_10;
fill: #7A9EB1;
}
.s9_1{
font-size: 7.61px;
font-family: CMR5_11;
fill: #7A9EB1;
}

]]></style>

</defs>
<path d="M0,0
L0,400
L758,400
L758,0 Z " 
fill="#FFFFFF" stroke="none" />
<path d="M0,400.5l760.9,0l0,-401.9L0,-1.4L0,400.5Z" class="g1_1" />
<path d="M201.2,48.4l-117.7,0c-3.4,0,-6.1,2.7,-6.1,6.1l0,117.7c0,3.4,2.7,6.1,6.1,6.1l117.7,0c3.4,0,6.1,-2.7,6.1,-6.1l0,-117.7c0,-3.4,-2.7,-6.1,-6.1,-6.1Z" class="g2_1" />
<text 
x="110" 
y="100" 
dx="0,0,0,1.3,0,1.3,0,0" 
class="s1_1"
>Gc = 100</text>

<text 
x="84" 
y="118" 
dx="0,0" 
class="s2_1"
>Gc</text>

<text 
x="107" 
y="118" 
dx="0" 
class="s3_1"
>∼</text>

<text 
x="123" 
y="118" 
dx="0" 
class="s2_1"
>N</text>

<text 
x="136" 
y="118" 
dx="0,0,0,0" 
class="s1_1"
>(100</text>

<text 
x="165" 
y="118" 
dx="0" 
class="s2_1"
>,</text>

<text 
x="172" 
y="118" 
dx="0,0" 
class="s1_1"
>15</text>

<text 
x="187" 
y="113" 
dx="0" 
class="s4_1"
>2</text>

<text 
x="194" 
y="118" 
dx="0" 
class="s1_1"
>)</text>

<path d="M201.2,265.5l-117.7,0c-3.4,0,-6.1,2.8,-6.1,6.1l0,117.8c0,3.3,2.7,6,6.1,6l117.7,0c3.4,0,6.1,-2.7,6.1,-6l0,-117.8c0,-3.3,-2.7,-6.1,-6.1,-6.1Z" class="g2_1" />
<text 
x="103" 
y="316" 
dx="0,0,0,0,0,0,0,0,0,0,0,0" 
class="s5_1"
>Phonological</text>

<text 
x="92" 
y="333" 
dx="0,0,-0.4,0,0,0,0,0,0,0,1.3,0,1.3,0" 
class="s5_1"
>Awareness = 75</text>

<text 
x="86" 
y="350" 
dx="0,2" 
class="s6_1"
>PA</text>

<text 
x="111" 
y="350" 
dx="0" 
class="s7_1"
>∼</text>

<text 
x="126" 
y="350" 
dx="0" 
class="s6_1"
>N</text>

<text 
x="139" 
y="350" 
dx="0,0,0,0" 
class="s5_1"
>(100</text>

<text 
x="166" 
y="350" 
dx="0" 
class="s6_1"
>,</text>

<text 
x="172" 
y="350" 
dx="0,0" 
class="s5_1"
>15</text>

<text 
x="186" 
y="344" 
dx="0" 
class="s8_1"
>2</text>

<text 
x="192" 
y="350" 
dx="0" 
class="s5_1"
>)</text>

<path d="M464.2,191.9l-123.9,0c-3.4,0,-6.1,2.7,-6.1,6.1l0,117.7c0,3.4,2.7,6.1,6.1,6.1l123.9,0c3.3,0,6.1,-2.7,6.1,-6.1l0,-117.7c0,-3.4,-2.8,-6.1,-6.1,-6.1Z" class="g2_1" />
<text 
x="373" 
y="241" 
dx="0" 
class="s1_1"
>ˆ</text>

<text 
x="371" 
y="245" 
dx="0" 
class="s2_1"
>Y</text>

<text 
x="388" 
y="245" 
dx="0,0,1.3,0,0,0" 
class="s1_1"
>= 93.4</text>

<text 
x="341" 
y="260" 
dx="0" 
class="s1_1"
>ˆ</text>

<text 
x="339" 
y="264" 
dx="0" 
class="s2_1"
>Y</text>

<text 
x="355" 
y="264" 
dx="0" 
class="s3_1"
>∼</text>

<text 
x="371" 
y="264" 
dx="0" 
class="s2_1"
>N</text>

<text 
x="385" 
y="264" 
dx="0,0,0" 
class="s1_1"
>(93</text>

<text 
x="406" 
y="264" 
dx="0" 
class="s2_1"
>.</text>

<text 
x="411" 
y="264" 
dx="0" 
class="s1_1"
>4</text>

<text 
x="418" 
y="264" 
dx="0" 
class="s2_1"
>,</text>

<text 
x="425" 
y="264" 
dx="0" 
class="s1_1"
>9</text>

<text 
x="432" 
y="264" 
dx="0" 
class="s2_1"
>.</text>

<text 
x="437" 
y="264" 
dx="0,0" 
class="s1_1"
>46</text>

<text 
x="452" 
y="258" 
dx="0" 
class="s4_1"
>2</text>

<text 
x="459" 
y="264" 
dx="0" 
class="s1_1"
>)</text>

<path d="M740.3,191.9l-156.5,0c-3.4,0,-6.1,2.7,-6.1,6.1l0,117.7c0,3.4,2.7,6.1,6.1,6.1l156.5,0c3.4,0,6.1,-2.7,6.1,-6.1l0,-117.7c0,-3.4,-2.7,-6.1,-6.1,-6.1Z" class="g2_1" />
<text 
x="582" 
y="243" 
dx="0,0,0,0,0,0,0,0,1.3,0,0,0,0.4,0,0,0,0,1.3,0,1.3,0" 
class="s1_1"
>Reading Decoding = 75</text>

<text 
x="600" 
y="262" 
dx="0,0.1" 
class="s2_1"
>RD</text>

<text 
x="629" 
y="262" 
dx="0" 
class="s3_1"
>∼</text>

<text 
x="645" 
y="262" 
dx="0" 
class="s2_1"
>N</text>

<text 
x="659" 
y="262" 
dx="0,0,0,0" 
class="s1_1"
>(100</text>

<text 
x="688" 
y="262" 
dx="0" 
class="s2_1"
>,</text>

<text 
x="695" 
y="262" 
dx="0,0" 
class="s1_1"
>15</text>

<text 
x="710" 
y="256" 
dx="0" 
class="s4_1"
>2</text>

<text 
x="717" 
y="262" 
dx="0" 
class="s1_1"
>)</text>

<path d="M213,152.3l110.4,61.1" class="g3_1" />
<path d="M328.5,216.2c-1.9,-1.6,-5.2,-4.5,-6.7,-7.9c0.8,3.6,-0.1,5.3,-3.6,6.4c3.6,-0.5,8,0.8,10.3,1.5Z" class="g4_1" />
<path d="M277.2,182.5c0,-5.3,-4.3,-9.6,-9.6,-9.6c-5.3,0,-9.6,4.3,-9.6,9.6c0,5.3,4.3,9.6,9.6,9.6c5.3,0,9.6,-4.3,9.6,-9.6Z" class="g1_1" />
<text 
x="258" 
y="184" 
dx="0,0,0,0" 
class="s9_1"
>.420</text>

<path d="M213.5,310.3L322.4,279.4" class="g3_1" />
<path d="M328,277.9c-2.5,0.1,-7,0.4,-10.4,-0.9c3.1,1.9,3.6,3.8,2,7c2.2,-2.9,6.2,-5,8.4,-6.1Z" class="g4_1" />
<path d="M277.2,295c0,-5.3,-4.3,-9.6,-9.6,-9.6c-5.3,0,-9.6,4.3,-9.6,9.6c0,5.3,4.3,9.6,9.6,9.6c5.3,0,9.6,-4.3,9.6,-9.6Z" class="g1_1" />
<text 
x="258" 
y="297" 
dx="0,0,0,0" 
class="s9_1"
>.264</text>

<path d="M476.7,256.9l88.8,0" class="g3_1" />
<path d="M571.3,256.9c-2.4,-0.5,-6.8,-1.5,-9.7,-3.7c2.4,2.7,2.4,4.6,0,7.3c2.9,-2.2,7.3,-3.1,9.7,-3.6Z" class="g4_1" />
<path d="M524.9,256.9c0,-2,-1.6,-3.6,-3.6,-3.6c-1.9,0,-3.5,1.6,-3.5,3.6c0,1.9,1.6,3.5,3.5,3.5c2,0,3.6,-1.6,3.6,-3.5Z" class="g1_1" />
<text 
x="518" 
y="259" 
dx="0" 
class="s9_1"
>1</text>

<path d="M402.2,112.7L381.8,148l40.8,0Z" class="g5_1" />
<text 
x="398" 
y="142" 
dx="0" 
class="s1_1"
>1</text>

<path d="M732.7,5.1l-141.3,0c-3.3,0,-6,2.7,-6,6.1l0,117.7c0,3.4,2.7,6.1,6,6.1l141.3,0c3.3,0,6.1,-2.7,6.1,-6.1l0,-117.7c0,-3.4,-2.8,-6.1,-6.1,-6.1Z" class="g1_1" />
<text 
x="590" 
y="67" 
dx="0,0.9,0.4,0.4,0" 
class="s2_1"
>Error</text>

<text 
x="636" 
y="67" 
dx="0" 
class="s3_1"
>∼</text>

<text 
x="652" 
y="67" 
dx="0" 
class="s2_1"
>N</text>

<text 
x="665" 
y="67" 
dx="0,0" 
class="s1_1"
>(0</text>

<text 
x="679" 
y="67" 
dx="0" 
class="s2_1"
>,</text>

<text 
x="686" 
y="67" 
dx="0,0" 
class="s1_1"
>11</text>

<text 
x="701" 
y="67" 
dx="0" 
class="s2_1"
>.</text>

<text 
x="705" 
y="67" 
dx="0,0" 
class="s1_1"
>64</text>

<text 
x="720" 
y="61" 
dx="0" 
class="s4_1"
>2</text>

<text 
x="727" 
y="67" 
dx="0" 
class="s1_1"
>)</text>

<path d="M697.7,112.3c0,-19.7,-15.9,-35.7,-35.6,-35.7c-19.8,0,-35.7,16,-35.7,35.7c0,19.7,15.9,35.7,35.7,35.7c19.7,0,35.6,-16,35.6,-35.7Z" class="g2_1" />
<text 
x="631" 
y="114" 
dx="0,0,0,0,0,0,1.7,0,1.7,0,0,0,0" 
class="s9_1"
>Error = -18.4</text>

<path d="M662.1,154.4l0,25.3" class="g3_1" />
<path d="M662.1,185.5c0.4,-2.4,1.4,-6.8,3.6,-9.7c-2.7,2.4,-4.6,2.4,-7.3,0c2.2,2.9,3.2,7.3,3.7,9.7Z" class="g4_1" />
<path d="M665.6,168.9c0,-2,-1.6,-3.6,-3.5,-3.6c-2,0,-3.6,1.6,-3.6,3.6c0,1.9,1.6,3.5,3.6,3.5c1.9,0,3.5,-1.6,3.5,-3.5Z" class="g1_1" />
<text 
x="659" 
y="171" 
dx="0" 
class="s9_1"
>1</text>

<path d="M402.2,154.4l0,25.3" class="g3_1" />
<path d="M402.2,185.5c0.5,-2.4,1.5,-6.8,3.7,-9.7c-2.7,2.4,-4.7,2.4,-7.3,0c2.2,2.9,3.1,7.3,3.6,9.7Z" class="g4_1" />
<path d="M405.8,168.9c0,-2,-1.6,-3.6,-3.6,-3.6c-1.9,0,-3.5,1.6,-3.5,3.6c0,1.9,1.6,3.5,3.5,3.5c2,0,3.6,-1.6,3.6,-3.5Z" class="g1_1" />
<text 
x="399" 
y="171" 
dx="0" 
class="s9_1"
>1</text>

<path d="M68.8,120.3c-56.6,47.5,-56.6,155.8,0,203.2" class="g6_1" />
<path d="M72.4,117.3c-1.8,0.9,-5,2.6,-8,2.8c2.9,0.4,4,1.6,3.8,4.6c0.7,-2.9,2.9,-5.8,4.2,-7.4Z" class="g4_1" />
<path d="M72.4,326.6c-1.3,-1.6,-3.5,-4.5,-4.2,-7.4c0.2,2.9,-0.9,4.1,-3.8,4.5c3,0.2,6.2,1.9,8,2.9Z" class="g4_1" />
<path d="M38.2,215.8c0,-5.3,-4.3,-9.6,-9.6,-9.6c-5.3,0,-9.6,4.3,-9.6,9.6c0,5.3,4.3,9.6,9.6,9.6c5.3,0,9.6,-4.3,9.6,-9.6Z" class="g1_1" />
<text 
x="19" 
y="218" 
dx="0,0,0,0" 
class="s9_1"
>0.68</text>



<!-- Any embedded fonts defined here -->
<style type="text/css" ><![CDATA[

@font-face {
	font-family: CMR5_11;
	src: url("fonts/CMR5_11.woff") format("woff");
}

@font-face {
	font-family: CMMI10_w;
	src: url("fonts/CMMI10_w.woff") format("woff");
}

@font-face {
	font-family: CMMI9_-;
	src: url("fonts/CMMI9_-.woff") format("woff");
}

@font-face {
	font-family: CMR6_10;
	src: url("fonts/CMR6_10.woff") format("woff");
}

@font-face {
	font-family: CMSY10_x;
	src: url("fonts/CMSY10_x.woff") format("woff");
}

@font-face {
	font-family: CMSY9__;
	src: url("fonts/CMSY9__.woff") format("woff");
}

@font-face {
	font-family: CMR9_z;
	src: url("fonts/CMR9_z.woff") format("woff");
}

@font-face {
	font-family: CMR7_y;
	src: url("fonts/CMR7_y.woff") format("woff");
}

@font-face {
	font-family: CMR10_v;
	src: url("fonts/CMR10_v.woff") format("woff");
}

]]></style>

</svg>
