<?xml version="1.0" encoding="UTF-8" standalone="no"?>
<!DOCTYPE svg PUBLIC "-//W3C//DTD SVG 1.1//EN"
"http://www.w3.org/Graphics/SVG/1.1/DTD/svg11.dtd">


<!-- Page 1 -->
<svg x="0" y="0" width="758" height="400" viewBox="0 0 758 400" version="1.1" xmlns="http://www.w3.org/2000/svg" xmlns:xlink="http://www.w3.org/1999/xlink"
style="display: block;margin-left: auto;margin-right: auto;">
<defs>

<style type="text/css"><![CDATA[

.g1_1{
fill: #F9F8EB;
}
.g2_1{
fill: #FFE1B6;
}
.g3_1{
fill: none;
stroke: #7A9EB1;
stroke-width: 1.8265041;
stroke-linecap: butt;
stroke-linejoin: miter;
}
.g4_1{
fill: #7A9EB1;
}
.g5_1{
fill: #FFE1B6;
stroke: #000000;
stroke-width: 0.6088194;
stroke-linecap: butt;
stroke-linejoin: miter;
}
.g6_1{
fill: none;
stroke: #7A9EB1;
stroke-width: 1.2176542;
stroke-linecap: butt;
stroke-linejoin: miter;
}

.s1_1{
font-size: 15.22px;
font-family: CMR10_v;
fill: TRANSPARENT;
}
.s2_1{
font-size: 15.22px;
font-family: CMMI10_w;
fill: TRANSPARENT;
}
.s3_1{
font-size: 15.22px;
font-family: CMSY10_x;
fill: TRANSPARENT;
}
.s4_1{
font-size: 10.65px;
font-family: CMR7_y;
fill: TRANSPARENT;
}
.s5_1{
font-size: 13.70px;
font-family: CMR9_z;
fill: TRANSPARENT;
}
.s6_1{
font-size: 13.70px;
font-family: CMMI9_-;
fill: TRANSPARENT;
}
.s7_1{
font-size: 13.70px;
font-family: CMSY9__;
fill: TRANSPARENT;
}
.s8_1{
font-size: 9.13px;
font-family: CMR6_10;
fill: TRANSPARENT;
}
.s9_1{
font-size: 7.61px;
font-family: CMR5_11;
fill: TRANSPARENT;
}
text::-moz-selection {
	color: transparent;
	background: rgba(0, 106, 173, 0.4);
}
text::selection {
	color: transparent;
	background: rgba(0, 106, 173, 0.4);
}

]]></style>

</defs>
<path d="M0,0
L0,400
L758,400
L758,0 Z " 
fill="#FFFFFF" stroke="none" />
<path d="M0,400.5l760.9,0l0,-401.9L0,-1.4L0,400.5Z" class="g1_1" />
<path d="M201.2,48.4l-117.7,0c-3.4,0,-6.1,2.7,-6.1,6.1l0,117.7c0,3.4,2.7,6.1,6.1,6.1l117.7,0c3.4,0,6.1,-2.7,6.1,-6.1l0,-117.7c0,-3.4,-2.7,-6.1,-6.1,-6.1Z" class="g2_1" />
<g fill="#7A9EB1" >
<use xlink:href="#f0_e" transform="matrix(10,0,0,10,110.6,100.3)" />
<use xlink:href="#f0_i" transform="matrix(10,0,0,10,122.5,100.3)" />
<use xlink:href="#f0_c" transform="matrix(10,0,0,10,134.4,100.3)" />
<use xlink:href="#f0_5" transform="matrix(10,0,0,10,151.3,100.3)" />
<use xlink:href="#f0_4" transform="matrix(10,0,0,10,158.9,100.3)" />
<use xlink:href="#f0_4" transform="matrix(10,0,0,10,166.5,100.3)" />
<use xlink:href="#f1_5" transform="matrix(10,0,0,10,84.3,118.5)" />
</g>
<text 
x="110" 
y="100" 
dx="0,0,0,1.3,0,1.3,0,0" 
class="s1_1"
>Gc = 100</text>

<g fill="#7A9EB1" >
<use xlink:href="#f1_9" transform="matrix(10,0,0,10,96.2,118.5)" />
<use xlink:href="#f2_1" transform="matrix(10,0,0,10,107,118.5)" />
</g>
<text 
x="84" 
y="118" 
dx="0,0" 
class="s2_1"
>Gc</text>

<g fill="#7A9EB1" >
<use xlink:href="#f1_6" transform="matrix(10,0,0,10,123.1,118.5)" />
</g>
<text 
x="107" 
y="118" 
dx="0" 
class="s3_1"
>∼</text>

<g fill="#7A9EB1" >
<use xlink:href="#f0_1" transform="matrix(10,0,0,10,137,118.5)" />
</g>
<text 
x="123" 
y="118" 
dx="0" 
class="s2_1"
>N</text>

<g fill="#7A9EB1" >
<use xlink:href="#f0_5" transform="matrix(10,0,0,10,142.9,118.5)" />
<use xlink:href="#f0_4" transform="matrix(10,0,0,10,150.5,118.5)" />
<use xlink:href="#f0_4" transform="matrix(10,0,0,10,158.1,118.5)" />
<use xlink:href="#f1_2" transform="matrix(10,0,0,10,165.7,118.5)" />
</g>
<text 
x="136" 
y="118" 
dx="0,0,0,0" 
class="s1_1"
>(100</text>

<g fill="#7A9EB1" >
<use xlink:href="#f0_5" transform="matrix(10,0,0,10,172.5,118.5)" />
</g>
<text 
x="165" 
y="118" 
dx="0" 
class="s2_1"
>,</text>

<g fill="#7A9EB1" >
<use xlink:href="#f0_8" transform="matrix(10,0,0,10,180.1,118.5)" />
<use xlink:href="#f3_1" transform="matrix(7,0,0,7,187.7,113)" />
</g>
<text 
x="172" 
y="118" 
dx="0,0" 
class="s1_1"
>15</text>

<g fill="#7A9EB1" >
<use xlink:href="#f0_2" transform="matrix(10,0,0,10,194.6,118.5)" />
</g>
<text 
x="187" 
y="113" 
dx="0" 
class="s4_1"
>2</text>

<text 
x="194" 
y="118" 
dx="0" 
class="s1_1"
>)</text>

<path d="M201.2,265.5l-117.7,0c-3.4,0,-6.1,2.8,-6.1,6.1l0,117.8c0,3.3,2.7,6,6.1,6l117.7,0c3.4,0,6.1,-2.7,6.1,-6l0,-117.8c0,-3.3,-2.7,-6.1,-6.1,-6.1Z" class="g2_1" />
<g fill="#7A9EB1" >
<use xlink:href="#f4_9" transform="matrix(9,0,0,9,103.2,316.8)" />
<use xlink:href="#f4_e" transform="matrix(9,0,0,9,112.7,316.8)" />
<use xlink:href="#f4_i" transform="matrix(9,0,0,9,120.6,316.8)" />
<use xlink:href="#f4_h" transform="matrix(9,0,0,9,127.6,316.8)" />
<use xlink:href="#f4_i" transform="matrix(9,0,0,9,135.4,316.8)" />
<use xlink:href="#f4_g" transform="matrix(9,0,0,9,142.5,316.8)" />
<use xlink:href="#f4_i" transform="matrix(9,0,0,9,146.4,316.8)" />
<use xlink:href="#f4_d" transform="matrix(9,0,0,9,153.4,316.8)" />
<use xlink:href="#f4_f" transform="matrix(9,0,0,9,160.5,316.8)" />
<use xlink:href="#f4_b" transform="matrix(9,0,0,9,164.4,316.8)" />
<use xlink:href="#f4_a" transform="matrix(9,0,0,9,170.6,316.8)" />
<use xlink:href="#f4_g" transform="matrix(9,0,0,9,177.7,316.8)" />
<use xlink:href="#f4_8" transform="matrix(9,0,0,9,93,333.5)" />
</g>
<text 
x="103" 
y="316" 
dx="0,0,0,0,0,0,0,0,0,0,0,0" 
class="s5_1"
>Phonological</text>

<g fill="#7A9EB1" >
<use xlink:href="#f4_l" transform="matrix(9,0,0,9,103.6,333.5)" />
<use xlink:href="#f4_a" transform="matrix(9,0,0,9,113.3,333.5)" />
<use xlink:href="#f4_j" transform="matrix(9,0,0,9,120.4,333.5)" />
<use xlink:href="#f4_c" transform="matrix(9,0,0,9,125.9,333.5)" />
<use xlink:href="#f4_h" transform="matrix(9,0,0,9,132.1,333.5)" />
<use xlink:href="#f4_c" transform="matrix(9,0,0,9,140,333.5)" />
<use xlink:href="#f4_k" transform="matrix(9,0,0,9,146.2,333.5)" />
<use xlink:href="#f4_k" transform="matrix(9,0,0,9,151.8,333.5)" />
<use xlink:href="#f4_7" transform="matrix(9,0,0,9,162,333.5)" />
<use xlink:href="#f4_6" transform="matrix(9,0,0,9,177.7,333.5)" />
<use xlink:href="#f4_5" transform="matrix(9,0,0,9,184.7,333.5)" />
<use xlink:href="#f5_4" transform="matrix(9,0,0,9,86.5,350.3)" />
</g>
<text 
x="92" 
y="333" 
dx="0,0,-0.4,0,0,0,0,0,0,0,1.3,0,1.3,0" 
class="s5_1"
>Awareness = 75</text>

<g fill="#7A9EB1" >
<use xlink:href="#f5_2" transform="matrix(9,0,0,9,97.4,350.3)" />
<use xlink:href="#f6_1" transform="matrix(9,0,0,9,111.9,350.3)" />
</g>
<text 
x="86" 
y="350" 
dx="0,2" 
class="s6_1"
>PA</text>

<g fill="#7A9EB1" >
<use xlink:href="#f5_3" transform="matrix(9,0,0,9,126.8,350.3)" />
</g>
<text 
x="111" 
y="350" 
dx="0" 
class="s7_1"
>∼</text>

<g fill="#7A9EB1" >
<use xlink:href="#f4_1" transform="matrix(9,0,0,9,139.5,350.3)" />
</g>
<text 
x="126" 
y="350" 
dx="0" 
class="s6_1"
>N</text>

<g fill="#7A9EB1" >
<use xlink:href="#f4_4" transform="matrix(9,0,0,9,145,350.3)" />
<use xlink:href="#f4_3" transform="matrix(9,0,0,9,152,350.3)" />
<use xlink:href="#f4_3" transform="matrix(9,0,0,9,159.1,350.3)" />
<use xlink:href="#f5_1" transform="matrix(9,0,0,9,166.1,350.3)" />
</g>
<text 
x="139" 
y="350" 
dx="0,0,0,0" 
class="s5_1"
>(100</text>

<g fill="#7A9EB1" >
<use xlink:href="#f4_4" transform="matrix(9,0,0,9,172.4,350.3)" />
</g>
<text 
x="166" 
y="350" 
dx="0" 
class="s6_1"
>,</text>

<g fill="#7A9EB1" >
<use xlink:href="#f4_5" transform="matrix(9,0,0,9,179.4,350.3)" />
<use xlink:href="#f7_1" transform="matrix(6,0,0,6,186.4,344.5)" />
</g>
<text 
x="172" 
y="350" 
dx="0,0" 
class="s5_1"
>15</text>

<g fill="#7A9EB1" >
<use xlink:href="#f4_2" transform="matrix(9,0,0,9,192.8,350.3)" />
</g>
<text 
x="186" 
y="344" 
dx="0" 
class="s8_1"
>2</text>

<text 
x="192" 
y="350" 
dx="0" 
class="s5_1"
>)</text>

<path d="M462.1,191.9l-119.7,0c-3.4,0,-6.1,2.7,-6.1,6.1l0,117.7c0,3.4,2.7,6.1,6.1,6.1l119.7,0c3.3,0,6,-2.7,6,-6.1l0,-117.7c0,-3.4,-2.7,-6.1,-6,-6.1Z" class="g2_1" />
<g fill="#7A9EB1" >
<use xlink:href="#f0_g" transform="matrix(10,0,0,10,373.9,242)" />
<use xlink:href="#f1_8" transform="matrix(10,0,0,10,371.6,245.8)" />
</g>
<text 
x="373" 
y="241" 
dx="0" 
class="s1_1"
>ˆ</text>

<g fill="#7A9EB1" >
<use xlink:href="#f0_c" transform="matrix(10,0,0,10,388.9,245.8)" />
</g>
<text 
x="371" 
y="245" 
dx="0" 
class="s2_1"
>Y</text>

<g fill="#7A9EB1" >
<use xlink:href="#f0_b" transform="matrix(10,0,0,10,405.8,245.8)" />
<use xlink:href="#f0_6" transform="matrix(10,0,0,10,413.4,245.8)" />
<use xlink:href="#f0_3" transform="matrix(10,0,0,10,421,245.8)" />
<use xlink:href="#f0_7" transform="matrix(10,0,0,10,425.2,245.8)" />
<use xlink:href="#f0_g" transform="matrix(10,0,0,10,343.7,260.2)" />
</g>
<text 
x="388" 
y="245" 
dx="0,0,1.3,0,0,0" 
class="s1_1"
>= 93.4</text>

<g fill="#7A9EB1" >
<use xlink:href="#f1_8" transform="matrix(10,0,0,10,341.3,264.1)" />
</g>
<text 
x="343" 
y="260" 
dx="0" 
class="s1_1"
>ˆ</text>

<g fill="#7A9EB1" >
<use xlink:href="#f2_1" transform="matrix(10,0,0,10,357.8,264.1)" />
</g>
<text 
x="341" 
y="264" 
dx="0" 
class="s2_1"
>Y</text>

<g fill="#7A9EB1" >
<use xlink:href="#f1_6" transform="matrix(10,0,0,10,373.9,264.1)" />
</g>
<text 
x="357" 
y="264" 
dx="0" 
class="s3_1"
>∼</text>

<g fill="#7A9EB1" >
<use xlink:href="#f0_1" transform="matrix(10,0,0,10,387.8,264.1)" />
</g>
<text 
x="373" 
y="264" 
dx="0" 
class="s2_1"
>N</text>

<g fill="#7A9EB1" >
<use xlink:href="#f0_5" transform="matrix(10,0,0,10,393.7,264.1)" />
<use xlink:href="#f0_4" transform="matrix(10,0,0,10,401.3,264.1)" />
<use xlink:href="#f0_4" transform="matrix(10,0,0,10,408.9,264.1)" />
<use xlink:href="#f1_2" transform="matrix(10,0,0,10,416.5,264.1)" />
</g>
<text 
x="387" 
y="264" 
dx="0,0,0,0" 
class="s1_1"
>(100</text>

<g fill="#7A9EB1" >
<use xlink:href="#f0_b" transform="matrix(10,0,0,10,423.3,264.1)" />
</g>
<text 
x="416" 
y="264" 
dx="0" 
class="s2_1"
>,</text>

<g fill="#7A9EB1" >
<use xlink:href="#f1_1" transform="matrix(10,0,0,10,430.9,264.1)" />
</g>
<text 
x="423" 
y="264" 
dx="0" 
class="s1_1"
>9</text>

<g fill="#7A9EB1" >
<use xlink:href="#f0_7" transform="matrix(10,0,0,10,435.1,264.1)" />
</g>
<text 
x="430" 
y="264" 
dx="0" 
class="s2_1"
>.</text>

<g fill="#7A9EB1" >
<use xlink:href="#f0_9" transform="matrix(10,0,0,10,442.7,264.1)" />
<use xlink:href="#f3_1" transform="matrix(7,0,0,7,450.3,258.5)" />
</g>
<text 
x="435" 
y="264" 
dx="0,0" 
class="s1_1"
>46</text>

<g fill="#7A9EB1" >
<use xlink:href="#f0_2" transform="matrix(10,0,0,10,457.2,264.1)" />
</g>
<text 
x="450" 
y="258" 
dx="0" 
class="s4_1"
>2</text>

<text 
x="457" 
y="264" 
dx="0" 
class="s1_1"
>)</text>

<path d="M740.3,191.9l-156.5,0c-3.4,0,-6.1,2.7,-6.1,6.1l0,117.7c0,3.4,2.7,6.1,6.1,6.1l156.5,0c3.4,0,6.1,-2.7,6.1,-6.1l0,-117.7c0,-3.4,-2.7,-6.1,-6.1,-6.1Z" class="g2_1" />
<g fill="#7A9EB1" >
<use xlink:href="#f0_f" transform="matrix(10,0,0,10,582.8,243.9)" />
<use xlink:href="#f0_k" transform="matrix(10,0,0,10,594,243.9)" />
<use xlink:href="#f0_h" transform="matrix(10,0,0,10,600.7,243.9)" />
<use xlink:href="#f0_j" transform="matrix(10,0,0,10,608.4,243.9)" />
<use xlink:href="#f0_m" transform="matrix(10,0,0,10,616.8,243.9)" />
<use xlink:href="#f0_n" transform="matrix(10,0,0,10,621,243.9)" />
<use xlink:href="#f0_l" transform="matrix(10,0,0,10,629.5,243.9)" />
<use xlink:href="#f0_d" transform="matrix(10,0,0,10,642.2,243.9)" />
<use xlink:href="#f0_k" transform="matrix(10,0,0,10,653.8,243.9)" />
<use xlink:href="#f0_i" transform="matrix(10,0,0,10,660.6,243.9)" />
<use xlink:href="#f0_o" transform="matrix(10,0,0,10,667.3,243.9)" />
<use xlink:href="#f0_j" transform="matrix(10,0,0,10,675.4,243.9)" />
<use xlink:href="#f0_m" transform="matrix(10,0,0,10,683.8,243.9)" />
<use xlink:href="#f0_n" transform="matrix(10,0,0,10,688.1,243.9)" />
<use xlink:href="#f0_l" transform="matrix(10,0,0,10,696.5,243.9)" />
<use xlink:href="#f0_c" transform="matrix(10,0,0,10,709.2,243.9)" />
<use xlink:href="#f0_a" transform="matrix(10,0,0,10,726.1,243.9)" />
<use xlink:href="#f0_8" transform="matrix(10,0,0,10,733.7,243.9)" />
<use xlink:href="#f1_7" transform="matrix(10,0,0,10,600.9,262.1)" />
</g>
<text 
x="582" 
y="243" 
dx="0,0,0,0,0,0,0,0,1.3,0,0,0,0.4,0,0,0,0,1.3,0,1.3,0" 
class="s1_1"
>Reading Decoding = 75</text>

<g fill="#7A9EB1" >
<use xlink:href="#f1_3" transform="matrix(10,0,0,10,612.5,262.1)" />
<use xlink:href="#f2_1" transform="matrix(10,0,0,10,629.8,262.1)" />
</g>
<text 
x="600" 
y="262" 
dx="0,0.1" 
class="s2_1"
>RD</text>

<g fill="#7A9EB1" >
<use xlink:href="#f1_6" transform="matrix(10,0,0,10,645.9,262.1)" />
</g>
<text 
x="629" 
y="262" 
dx="0" 
class="s3_1"
>∼</text>

<g fill="#7A9EB1" >
<use xlink:href="#f0_1" transform="matrix(10,0,0,10,659.8,262.1)" />
</g>
<text 
x="645" 
y="262" 
dx="0" 
class="s2_1"
>N</text>

<g fill="#7A9EB1" >
<use xlink:href="#f0_5" transform="matrix(10,0,0,10,665.7,262.1)" />
<use xlink:href="#f0_4" transform="matrix(10,0,0,10,673.3,262.1)" />
<use xlink:href="#f0_4" transform="matrix(10,0,0,10,680.9,262.1)" />
<use xlink:href="#f1_2" transform="matrix(10,0,0,10,688.5,262.1)" />
</g>
<text 
x="659" 
y="262" 
dx="0,0,0,0" 
class="s1_1"
>(100</text>

<g fill="#7A9EB1" >
<use xlink:href="#f0_5" transform="matrix(10,0,0,10,695.3,262.1)" />
</g>
<text 
x="688" 
y="262" 
dx="0" 
class="s2_1"
>,</text>

<g fill="#7A9EB1" >
<use xlink:href="#f0_8" transform="matrix(10,0,0,10,702.9,262.1)" />
<use xlink:href="#f3_1" transform="matrix(7,0,0,7,710.5,256.6)" />
</g>
<text 
x="695" 
y="262" 
dx="0,0" 
class="s1_1"
>15</text>

<g fill="#7A9EB1" >
<use xlink:href="#f0_2" transform="matrix(10,0,0,10,717.3,262.1)" />
</g>
<text 
x="710" 
y="256" 
dx="0" 
class="s4_1"
>2</text>

<text 
x="717" 
y="262" 
dx="0" 
class="s1_1"
>)</text>

<path d="M213,152.4l112.5,62.2" class="g3_1" />
<path d="M330.6,217.4c-1.9,-1.6,-5.2,-4.6,-6.7,-7.9c0.8,3.5,-0.1,5.2,-3.6,6.4c3.7,-0.5,8,0.8,10.3,1.5Z" class="g4_1" />
<path d="M278.2,183.1c0,-5.3,-4.3,-9.6,-9.6,-9.6c-5.3,0,-9.6,4.3,-9.6,9.6c0,5.3,4.3,9.6,9.6,9.6c5.3,0,9.6,-4.3,9.6,-9.6Z" class="g1_1" />
<g fill="#7A9EB1" >
<use xlink:href="#f8_2" transform="matrix(5,0,0,5,259.3,185.6)" />
<use xlink:href="#f8_6" transform="matrix(5,0,0,5,262.4,185.6)" />
<use xlink:href="#f8_5" transform="matrix(5,0,0,5,267.5,185.6)" />
<use xlink:href="#f8_3" transform="matrix(5,0,0,5,272.7,185.6)" />
</g>
<text 
x="259" 
y="185" 
dx="0,0,0,0" 
class="s9_1"
>.420</text>

<path d="M213.5,310.3l111,-31.5" class="g3_1" />
<path d="M330.1,277.3c-2.5,0.1,-7,0.4,-10.4,-0.9c3.1,1.9,3.6,3.8,2,7c2.2,-2.9,6.2,-5,8.4,-6.1Z" class="g4_1" />
<path d="M278.2,294.7c0,-5.3,-4.3,-9.6,-9.6,-9.6c-5.3,0,-9.6,4.3,-9.6,9.6c0,5.3,4.3,9.6,9.6,9.6c5.3,0,9.6,-4.3,9.6,-9.6Z" class="g1_1" />
<g fill="#7A9EB1" >
<use xlink:href="#f8_2" transform="matrix(5,0,0,5,259.3,297.1)" />
<use xlink:href="#f8_5" transform="matrix(5,0,0,5,262.4,297.1)" />
<use xlink:href="#f8_7" transform="matrix(5,0,0,5,267.5,297.1)" />
<use xlink:href="#f8_6" transform="matrix(5,0,0,5,272.7,297.1)" />
</g>
<text 
x="259" 
y="297" 
dx="0,0,0,0" 
class="s9_1"
>.264</text>

<path d="M474.5,256.9l91,0" class="g3_1" />
<path d="M571.3,256.9c-2.4,-0.5,-6.8,-1.5,-9.7,-3.7c2.4,2.7,2.4,4.6,0,7.3c2.9,-2.2,7.3,-3.1,9.7,-3.6Z" class="g4_1" />
<path d="M523.8,256.9c0,-2,-1.6,-3.6,-3.6,-3.6c-2,0,-3.5,1.6,-3.5,3.6c0,1.9,1.5,3.5,3.5,3.5c2,0,3.6,-1.6,3.6,-3.5Z" class="g1_1" />
<g fill="#7A9EB1" >
<use xlink:href="#f8_4" transform="matrix(5,0,0,5,517.6,259.3)" />
</g>
<text 
x="517" 
y="259" 
dx="0" 
class="s9_1"
>1</text>

<path d="M402.2,112.7L381.8,148l40.8,0Z" class="g5_1" />
<g fill="#7A9EB1" >
<use xlink:href="#f0_5" transform="matrix(10,0,0,10,398.4,142.9)" />
</g>
<text 
x="398" 
y="142" 
dx="0" 
class="s1_1"
>1</text>

<path d="M732.7,5.1l-141.3,0c-3.3,0,-6,2.7,-6,6.1l0,117.7c0,3.4,2.7,6.1,6,6.1l141.3,0c3.3,0,6.1,-2.7,6.1,-6.1l0,-117.7c0,-3.4,-2.8,-6.1,-6.1,-6.1Z" class="g1_1" />
<g fill="#7A9EB1" >
<use xlink:href="#f1_4" transform="matrix(10,0,0,10,590.4,67.1)" />
<use xlink:href="#f1_b" transform="matrix(10,0,0,10,602.5,67.1)" />
<use xlink:href="#f1_b" transform="matrix(10,0,0,10,609.8,67.1)" />
<use xlink:href="#f1_a" transform="matrix(10,0,0,10,617.1,67.1)" />
<use xlink:href="#f1_b" transform="matrix(10,0,0,10,624.5,67.1)" />
<use xlink:href="#f2_1" transform="matrix(10,0,0,10,636,67.1)" />
</g>
<text 
x="590" 
y="67" 
dx="0,0.9,0.4,0.4,0" 
class="s2_1"
>Error</text>

<g fill="#7A9EB1" >
<use xlink:href="#f1_6" transform="matrix(10,0,0,10,652.1,67.1)" />
</g>
<text 
x="636" 
y="67" 
dx="0" 
class="s3_1"
>∼</text>

<g fill="#7A9EB1" >
<use xlink:href="#f0_1" transform="matrix(10,0,0,10,666,67.1)" />
</g>
<text 
x="652" 
y="67" 
dx="0" 
class="s2_1"
>N</text>

<g fill="#7A9EB1" >
<use xlink:href="#f0_4" transform="matrix(10,0,0,10,671.9,67.1)" />
<use xlink:href="#f1_2" transform="matrix(10,0,0,10,679.5,67.1)" />
</g>
<text 
x="665" 
y="67" 
dx="0,0" 
class="s1_1"
>(0</text>

<g fill="#7A9EB1" >
<use xlink:href="#f0_5" transform="matrix(10,0,0,10,686.3,67.1)" />
</g>
<text 
x="679" 
y="67" 
dx="0" 
class="s2_1"
>,</text>

<g fill="#7A9EB1" >
<use xlink:href="#f0_5" transform="matrix(10,0,0,10,693.9,67.1)" />
<use xlink:href="#f1_1" transform="matrix(10,0,0,10,701.5,67.1)" />
</g>
<text 
x="686" 
y="67" 
dx="0,0" 
class="s1_1"
>11</text>

<g fill="#7A9EB1" >
<use xlink:href="#f0_9" transform="matrix(10,0,0,10,705.7,67.1)" />
</g>
<text 
x="701" 
y="67" 
dx="0" 
class="s2_1"
>.</text>

<g fill="#7A9EB1" >
<use xlink:href="#f0_7" transform="matrix(10,0,0,10,713.3,67.1)" />
<use xlink:href="#f3_1" transform="matrix(7,0,0,7,720.9,61.6)" />
</g>
<text 
x="705" 
y="67" 
dx="0,0" 
class="s1_1"
>64</text>

<g fill="#7A9EB1" >
<use xlink:href="#f0_2" transform="matrix(10,0,0,10,727.8,67.1)" />
</g>
<text 
x="720" 
y="61" 
dx="0" 
class="s4_1"
>2</text>

<text 
x="727" 
y="67" 
dx="0" 
class="s1_1"
>)</text>

<path d="M697.7,112.3c0,-19.7,-15.9,-35.7,-35.6,-35.7c-19.8,0,-35.7,16,-35.7,35.7c0,19.7,15.9,35.7,35.7,35.7c19.7,0,35.6,-16,35.6,-35.7Z" class="g2_1" />
<g fill="#7A9EB1" >
<use xlink:href="#f8_a" transform="matrix(5,0,0,5,631.3,114.9)" />
<use xlink:href="#f8_c" transform="matrix(5,0,0,5,638.1,114.9)" />
<use xlink:href="#f8_c" transform="matrix(5,0,0,5,642.2,114.9)" />
<use xlink:href="#f8_b" transform="matrix(5,0,0,5,646.3,114.9)" />
<use xlink:href="#f8_c" transform="matrix(5,0,0,5,651.5,114.9)" />
<use xlink:href="#f8_9" transform="matrix(5,0,0,5,659.2,114.9)" />
<use xlink:href="#f8_1" transform="matrix(5,0,0,5,670.7,114.9)" />
<use xlink:href="#f8_4" transform="matrix(5,0,0,5,674.2,114.9)" />
<use xlink:href="#f8_8" transform="matrix(5,0,0,5,679.4,114.9)" />
<use xlink:href="#f8_2" transform="matrix(5,0,0,5,684.6,114.9)" />
<use xlink:href="#f8_6" transform="matrix(5,0,0,5,687.7,114.9)" />
</g>
<text 
x="631" 
y="114" 
dx="0,0,0,0,0,0,1.7,0,1.7,0,0,0,0" 
class="s9_1"
>Error = -18.4</text>

<path d="M662.1,154.4l0,25.3" class="g3_1" />
<path d="M662.1,185.5c0.4,-2.4,1.4,-6.8,3.6,-9.7c-2.7,2.4,-4.6,2.4,-7.3,0c2.2,2.9,3.2,7.3,3.7,9.7Z" class="g4_1" />
<path d="M665.6,168.9c0,-2,-1.6,-3.6,-3.5,-3.6c-2,0,-3.6,1.6,-3.6,3.6c0,1.9,1.6,3.5,3.6,3.5c1.9,0,3.5,-1.6,3.5,-3.5Z" class="g1_1" />
<g fill="#7A9EB1" >
<use xlink:href="#f8_4" transform="matrix(5,0,0,5,659.5,171.3)" />
</g>
<text 
x="659" 
y="171" 
dx="0" 
class="s9_1"
>1</text>

<path d="M402.2,154.4l0,25.3" class="g3_1" />
<path d="M402.2,185.5c0.5,-2.4,1.5,-6.8,3.7,-9.7c-2.7,2.4,-4.7,2.4,-7.3,0c2.2,2.9,3.1,7.3,3.6,9.7Z" class="g4_1" />
<path d="M405.8,168.9c0,-2,-1.6,-3.6,-3.6,-3.6c-1.9,0,-3.5,1.6,-3.5,3.6c0,1.9,1.6,3.5,3.5,3.5c2,0,3.6,-1.6,3.6,-3.5Z" class="g1_1" />
<g fill="#7A9EB1" >
<use xlink:href="#f8_4" transform="matrix(5,0,0,5,399.6,171.3)" />
</g>
<text 
x="399" 
y="171" 
dx="0" 
class="s9_1"
>1</text>

<path d="M68.8,120.3c-56.6,47.5,-56.6,155.8,0,203.2" class="g6_1" />
<path d="M72.4,117.3c-1.8,0.9,-5,2.6,-8,2.8c2.9,0.4,4,1.6,3.8,4.6c0.7,-2.9,2.9,-5.8,4.2,-7.4Z" class="g4_1" />
<path d="M72.4,326.6c-1.3,-1.6,-3.5,-4.5,-4.2,-7.4c0.2,2.9,-0.9,4.1,-3.8,4.5c3,0.2,6.2,1.9,8,2.9Z" class="g4_1" />
<path d="M38.2,215.8c0,-5.3,-4.3,-9.6,-9.6,-9.6c-5.3,0,-9.6,4.3,-9.6,9.6c0,5.3,4.3,9.6,9.6,9.6c5.3,0,9.6,-4.3,9.6,-9.6Z" class="g1_1" />
<g fill="#7A9EB1" >
<use xlink:href="#f8_3" transform="matrix(5,0,0,5,19.3,218.3)" />
<use xlink:href="#f8_2" transform="matrix(5,0,0,5,24.5,218.3)" />
<use xlink:href="#f8_7" transform="matrix(5,0,0,5,27.5,218.3)" />
<use xlink:href="#f8_8" transform="matrix(5,0,0,5,32.7,218.3)" />
</g>
<text 
x="19" 
y="218" 
dx="0,0,0,0" 
class="s9_1"
>0.68</text>


<defs>
	<path d="M620.3,-33.5C330,-33.5,85.6,209.3,85.6,522.5c0,313.2,247.5,554.6,531.6,554.6c151.3,0,233.8,-82.5,282.7,-131.4l76.4,113.1c12.2,18.3,18.3,18.3,24.4,18.3c16.8,0,16.8,-10.7,16.8,-36.7l0,-362.1c0,-32,0,-36.6,-24.4,-36.6c-21.4,0,-21.4,4.6,-24.5,25.9C938.1,892.2,799,1029.7,635.6,1029.7c-91.7,0,-392.7,-50.4,-392.7,-507.2C242.9,67.2,545.4,13.8,644.7,13.8c42.8,0,236.8,13.7,236.8,184.8l0,97.8c0,56.5,-4.6,73.3,-142.1,73.3l-48.8,0l55,42.8l236.8,0c84,3.1,-45.9,4.6,140.5,4.6l0,-47.4c-99.3,0,-105.4,-7.6,-105.4,-67.2l0,-265.8c0,-22.9,0,-35.2,-13.7,-35.2c-16.9,0,-78,61.1,-97.8,94.8C854,6.1,731.8,-33.5,620.3,-33.5Z" 
	id="f0_e"
	transform="scale(0.001,-0.001)" />

	<path d="M380.4,-16.7C203.2,-16.7,51.9,134.4,51.9,330c0,189.4,140.6,354.4,331.6,354.4c117.6,0,233.7,-59.5,233.7,-163.4c0,-45.9,-30.5,-71.8,-70.3,-71.8c-42.7,0,-70.2,30.5,-70.2,70.2c0,19.9,9.1,65.7,71.8,70.3C495,644.7,398.8,646.3,385,646.3c-81,0,-206.2,-64.2,-206.2,-313.2C178.8,87.1,313.2,21.4,394.2,21.4c56.5,0,155.8,18.3,200.1,160.4c3.1,9.2,6.1,15.3,19.9,15.3c4.6,0,19.8,0,19.8,-15.3C634,166.5,585.1,-16.7,380.4,-16.7Z" 
	id="f0_i"
	transform="scale(0.001,-0.001)" />

	<path d="M136,203.2c-21.4,0,-50.4,0,-50.4,30.6c0,30.5,29,30.5,51.9,30.5l912.1,0c22.9,0,51.9,0,51.9,-30.5c0,-30.6,-29,-30.6,-50.4,-30.6Zm1.5,296.4c-22.9,0,-51.9,0,-51.9,30.5c0,30.6,29,30.6,50.4,30.6l915.1,0c21.4,0,50.4,0,50.4,-30.6c0,-30.5,-29,-30.5,-51.9,-30.5Z" 
	id="f0_c"
	transform="scale(0.001,-0.001)" />

	<path d="M145.1,0l0,47.4l48.9,0c137.5,0,142.1,18.3,142.1,73.3l0,791.4C256.7,872.4,166.5,872.4,136,872.4l0,47.3c48.9,0,183.3,0,278,97.8c35.2,0,35.2,-3.1,35.2,-39.7l0,-857.1c0,-56.5,4.6,-73.3,142.1,-73.3l48.8,0L586.7,4.6l-255.2,0C198.6,4.6,392.6,0,145.1,0Z" 
	id="f0_5"
	transform="scale(0.001,-0.001)" />

	<path d="M380.4,0c68.8,0,155.9,45.8,178.8,191C576,288.8,576,392.6,576,507.2c0,96.3,0,212.4,-15.3,297.9C531.7,956.4,430.8,983.9,380.4,983.9c-38.2,0,-152.8,-13.8,-181.8,-195.6C186.4,705.8,186.4,605,186.4,507.2c0,-90.1,0,-230.7,16.8,-322.3C230.7,38.2,320.8,0,380.4,0Zm0,-33.5C305.6,-33.5,194,-3,128.3,120.7C65.7,236.8,59.6,374.3,59.6,488.9c0,122.2,7.6,241.4,56.5,346.8c62.7,142.1,174.2,181.8,265.8,181.8c64.2,0,189.5,-24.4,259.8,-171.1C695.1,733.3,702.8,611.1,702.8,488.9C702.8,368.2,695.1,249,646.3,143.6C579,-1.4,462.9,-33.5,380.4,-33.5Z" 
	id="f0_4"
	transform="scale(0.001,-0.001)" />

	<path d="M493.5,-33.5C246,-33.5,76.4,142.1,76.4,385c0,354.4,343.7,692.1,684.4,692.1c169.6,0,239.9,-114.6,253.6,-136l107,117.7c16.8,16.8,18.3,18.3,22.9,18.3c13.8,0,16.8,-10.7,16.8,-15.3L1064.9,672.2c-7.7,-27.5,-7.7,-30.5,-27.5,-30.5c-6.1,0,-23,0,-23,15.2c0,15.3,4.6,16.9,4.6,78c0,177.2,-90.1,294.8,-245.9,294.8c-151.3,0,-299.5,-93.2,-382,-197.1C230.7,634,215.4,381.9,215.4,334.6C215.4,100.8,375.8,13.8,522.5,13.8c53.5,0,252.1,16.8,294.9,184.8c15.2,56.5,32,125.3,32,139c0,19.9,-7.6,24.5,-47.3,29.1c-35.2,3,-79.5,3,-81,3c-33.6,0,-45.8,0,-45.8,16.8c0,30.6,18.3,30.6,79.4,30.6c119.2,-4.6,166.6,-4.6,201.7,-4.6c90.1,4.6,-35.1,4.6,125.3,4.6c12.2,0,19.8,-6.1,19.8,-16.8c0,-29,-16.8,-30.6,-24.4,-30.6C990,368.2,988.5,365.1,971.7,296.4c-6.1,-26,-13.8,-52,-19.9,-77.9l-29,-117.7c-7.7,-32,-22.9,-90.1,-26,-93.2c0,-1.5,-3,-6.1,-10.7,-6.1c-15.3,0,-55,56.6,-68.7,94.8C789.9,65.7,760.8,33.6,684.4,3.1C629.4,-19.8,560.7,-33.5,493.5,-33.5Z" 
	id="f1_5"
	transform="scale(0.001,-0.001)" />

	<path d="M310.1,-16.7C151.3,-16.7,62.6,103.9,62.6,241.4c0,215.4,203.2,433.9,409.5,433.9c108.5,0,180.3,-56.5,180.3,-131.4c0,-61.1,-41.3,-97.8,-85.6,-97.8c-29,0,-56.5,16.8,-56.5,53.5c0,10.7,3,36.7,27.5,59.6c21.4,21.4,42.8,21.4,67.2,21.4c-21.4,41.2,-79.4,61.1,-131.4,61.1c-84,0,-168,-65.7,-215.4,-152.8C206.3,394.2,175.7,246,175.7,183.3C175.7,91.7,216.9,16.8,313.2,16.8c18.3,0,184.9,0,305.6,151.3c9.1,12.2,12.2,15.2,19.8,15.2c9.2,0,18.3,-10.7,18.3,-19.8C656.9,145.1,528.6,-16.7,310.1,-16.7Z" 
	id="f1_9"
	transform="scale(0.001,-0.001)" />

	<path d="M846.4,203.2c-103.9,0,-183.3,70.3,-261.3,140.6C510.3,409.4,436.9,475.1,340.7,475.1c-93.2,0,-207.8,-67.2,-213.9,-235.2c0,-4.6,-4.6,-35.2,-21.4,-35.2c-1.5,0,-21.4,0,-21.4,48.9c0,139,90.2,307.1,256.7,307.1c103.9,0,183.3,-70.3,261.2,-140.6C676.8,354.4,750.1,288.8,846.4,288.8c106.9,0,207.8,84,213.9,230.6c1.5,29.1,13.7,39.8,21.4,39.8c12.2,0,21.4,-15.3,21.4,-48.9c0,-139,-90.2,-307.1,-256.7,-307.1Z" 
	id="f2_1"
	transform="scale(0.001,-0.001)" />

	<path d="M79.4,0C67.2,0,59.6,6.1,59.6,16.8c0,29,16.8,30.6,26,30.6c123.7,4.5,149.7,53.4,165,114.5L455.3,982.4c0,13.7,-96.3,13.7,-103.9,13.7c-29,0,-42.8,0,-42.8,16.8c0,30.6,13.8,30.6,44.3,30.6l204.7,0c35.2,0,36.7,-1.6,48.9,-29.1L944.2,216.9l171.1,679.9c1.5,4.6,4.6,27.5,4.6,32.1c0,33.6,-16.8,65.7,-103.9,67.2c-12.2,0,-27.5,0,-27.5,16.8c0,30.6,18.3,30.6,77.9,30.6c53.5,-4.6,105.4,-4.6,155.8,-4.6c53.5,4.6,-50.4,4.6,103.9,4.6c19.9,0,19.9,-15.3,19.9,-16.8c0,-29.1,-18.4,-30.6,-26,-30.6c-122.2,-4.6,-149.7,-51.9,-165,-113L941.1,32.1C933.5,4.6,933.5,0,916.7,0C902.9,0,898.3,3.1,887.6,29L507.2,928.9c-7.6,15.3,-7.6,18.3,-13.7,27.5L291.8,149.7c-4.6,-16.8,-6.1,-24.4,-6.1,-35.1C285.7,84,297.9,50.4,386.5,47.4c16.8,0,30.6,-1.6,30.6,-16.8C417.1,0,397.2,0,339.2,0c-55,4.6,-107,4.6,-157.4,4.6C128.3,0,232.2,0,79.4,0Z" 
	id="f1_6"
	transform="scale(0.001,-0.001)" />

	<path d="M490.4,-381.8c-15.3,0,-146.6,99.3,-238.3,287.2C168.1,77.9,151.3,262.8,151.3,381.9c0,128.4,18.3,298,96.2,466c90.1,194,227.6,297.9,242.9,297.9c9.2,0,15.3,-4.5,15.3,-15.2c0,-4.6,0,-7.7,-19.9,-26C297.9,913.6,239.9,647.8,239.9,381.9c0,-233.7,48.9,-522.4,239.8,-714.9c26,-25.9,26,-29,26,-33.6c0,-10.7,-6.1,-15.2,-15.3,-15.2Z" 
	id="f0_1"
	transform="scale(0.001,-0.001)" />

	<path d="M171.1,-294.8c-7.6,0,-15.3,6.1,-15.3,16.8c0,4.6,0,7.7,16.8,24.5c50.5,50.4,103.9,142.1,103.9,255c0,21.4,-1.5,22.9,-3,22.9c-1.6,0,-3.1,-1.5,-7.7,-4.5C250.6,6.1,230.7,0,212.4,0c-50.5,0,-81,39.7,-81,81c0,42.8,30.5,80.9,81,80.9c59.5,0,97.7,-59.5,97.7,-160.4c0,-178.6,-122.2,-296.3,-139,-296.3Z" 
	id="f1_2"
	transform="scale(0.001,-0.001)" />

	<path d="M352.9,-33.5C181.8,-33.5,76.4,114.6,76.4,246c0,70.3,53.5,80.9,74.9,80.9c50.4,0,76.3,-38.1,76.3,-74.8c0,-36.7,-25.9,-74.9,-76.3,-74.9c-16.9,0,-21.4,1.6,-26,3.1C151.3,90.1,238.3,9.2,349.9,9.2c70.2,0,126.8,39.7,163.4,99.3C550,172.6,550,264.3,550,317.8c0,76.4,-3.1,136,-27.5,192.5c-12.2,27.5,-50.4,97.8,-129.9,97.8c-123.7,0,-180.2,-82.5,-197,-107c-6.2,-9.2,-9.2,-13.7,-19.9,-13.7c-21.4,0,-21.4,12.2,-21.4,39.7l0,452.2c0,24.5,0,36.7,15.3,36.7c3,0,6.1,0,18.3,-4.6C259.7,979.3,330,968.6,391.1,968.6c102.4,0,177.2,30.6,207.8,44.3c7.6,4.6,10.7,4.6,12.2,4.6c10.7,0,15.3,-7.6,15.3,-16.8c0,-19.9,-107,-158.9,-294.9,-158.9c-48.9,0,-99.3,10.7,-129.8,19.9l0,-297.9c55,53.4,120.7,77.9,194,77.9C560.7,641.7,686,488.9,686,307.1C686,113.1,530.1,-33.5,352.9,-33.5Z" 
	id="f0_8"
	transform="scale(0.001,-0.001)" />

	<path d="M96.3,0c0,42.8,0,45.8,15.2,59.6L479.7,423.2c48.9,55,143.6,160.4,143.6,293.3c0,123.8,-79.4,242.9,-232.2,242.9c-71.8,0,-175.7,-33.6,-223,-142c79.4,0,90.1,-53.5,90.1,-81c0,-55,-44.3,-81,-81,-81c-15.3,0,-80.9,7.7,-80.9,85.6c0,140.5,128.3,273.4,317.7,273.4c195.6,0,357.5,-113,357.5,-297.9c0,-145.1,-105.4,-239.8,-218.4,-330C461.4,314.7,407.9,271.9,247.5,129.9l281.1,0c21.4,0,139,0,151.3,9.1c19.8,15.3,35.1,105.4,39.7,139.1l51.9,0L725.7,0Z" 
	id="f3_1"
	transform="scale(0.001,-0.001)" />

	<path d="M102.4,-381.8c-9.2,0,-15.3,6.1,-15.3,15.2c0,4.6,0,7.7,19.8,26c189.5,192.5,246,461.3,246,722.5c0,319.4,-87.1,562.3,-236.8,713.5c-29,27.5,-29,30.6,-29,35.2c0,9.1,6.1,15.2,15.3,15.2c15.2,0,146.6,-99.3,238.3,-287.2C424.7,686,441.5,501.1,441.5,381.9C441.5,253.6,423.2,84,345.3,-83.9C255.1,-278,117.6,-381.8,102.4,-381.8Z" 
	id="f0_2"
	transform="scale(0.001,-0.001)" />

	<path d="M569.9,522.5c253.6,0,253.6,168.1,253.6,236.8c0,68.8,0,236.8,-252.1,236.8l-146.7,0c-71.8,0,-74.8,-10.7,-74.8,-62.6l0,-411ZM61.1,0l0,47.4l35.2,0c117.6,0,120.6,16.8,120.6,73.3l0,802.1c0,56.5,-3,73.3,-120.6,73.3l-35.2,0l0,47.4l548.5,0c212.3,0,369.7,-132.9,369.7,-284.2C979.3,612.6,823.5,479.7,609.6,479.7l-255.2,0l0,-359c0,-56.5,3.1,-73.3,120.7,-73.3l35.2,0L441.5,4.6l-226.1,0C129.9,4.6,285.7,0,61.1,0Z" 
	id="f4_9"
	transform="scale(0.001,-0.001)" />

	<path d="M53.5,0l0,47.4c100.8,0,117.6,0,117.6,70.2l0,793c0,74.8,-13.7,85.5,-117.6,85.5l0,47.4l226.1,16.8l0,-524l1.5,0c47.4,85.5,122.2,139,224.6,139c76.4,0,134.4,-19.9,169.6,-62.7c42.8,-53.4,42.8,-97.7,42.8,-224.5l0,-293.4C719.6,47.4,757.8,47.4,835.7,47.4L754.7,3.1C734.9,4.6,661.5,4.6,588.2,4.6C559.2,3.1,661.5,0,487.4,0l0,47.4c100.8,0,117.6,0,117.6,70.2l0,353c0,91.6,-19.9,166.5,-110,166.5c-96.2,0,-210.8,-79.5,-210.8,-241.4l0,-278.1C284.2,47.4,301,47.4,401.8,47.4L320.8,3.1C301,4.6,227.6,4.6,154.3,4.6C125.3,3.1,227.6,0,53.5,0Z" 
	id="f4_e"
	transform="scale(0.001,-0.001)" />

	<path d="M392.6,26c64.2,0,134.5,30.5,177.3,100.8c38.2,67.2,38.2,155.8,38.2,212.4c0,64.1,-1.6,142.1,-36.7,206.2c-30.6,52,-93.2,100.9,-180.3,100.9c-55,0,-131.4,-23,-177.2,-100.9C175.7,482.8,175.7,395.7,175.7,339.2c0,-70.3,1.5,-151.3,41.2,-215.4C252.1,64.2,316.3,26,392.6,26Zm-1.5,-42.7C203.2,-16.7,44.3,134.4,44.3,325.4c0,195.6,154.3,359,348.3,359c188,0,346.8,-158.8,346.8,-359C739.4,137.5,585.1,-16.7,391.1,-16.7Z" 
	id="f4_i"
	transform="scale(0.001,-0.001)" />

	<path d="M53.5,0l0,47.4c100.8,0,117.6,0,117.6,70.2l0,408c0,74.8,-13.7,85.5,-117.6,85.5l0,47.4L275,675.3l0,-148.2l1.5,0c21.4,42.8,87.1,148.2,229.2,148.2c76.4,0,134.4,-19.9,169.6,-62.7c42.8,-53.4,42.8,-97.7,42.8,-224.5l0,-293.4C719.6,47.4,757.8,47.4,835.7,47.4L754.7,3.1C734.9,4.6,661.5,4.6,588.2,4.6C559.2,3.1,661.5,0,487.4,0l0,47.4c100.8,0,117.6,0,117.6,70.2l0,353c0,91.6,-19.9,166.5,-110,166.5c-96.2,0,-210.8,-79.5,-210.8,-241.4l0,-278.1C284.2,47.4,301,47.4,401.8,47.4L320.8,3.1C301,4.6,227.6,4.6,154.3,4.6C125.3,3.1,227.6,0,53.5,0Z" 
	id="f4_h"
	transform="scale(0.001,-0.001)" />

	<path d="M55,0l0,47.4c100.8,0,117.6,0,117.6,70.2l0,793c0,74.8,-13.7,85.5,-117.6,85.5l0,47.4l226.1,16.8l0,-942.7c0,-70.2,16.8,-70.2,117.7,-70.2L323.9,3.1c-26,1.5,-97.8,1.5,-168.1,1.5C126.8,3.1,226.1,0,55,0Z" 
	id="f4_g"
	transform="scale(0.001,-0.001)" />

	<path d="M392.6,-273.4c143.7,0,261.3,68.8,261.3,155.9C653.9,6.1,466,7.6,417.1,7.6l-140.6,0C145.1,7.6,129.9,-93.1,129.9,-117.5c0,-84.1,113,-155.9,262.7,-155.9ZM346.8,267.4c137.5,0,137.5,148.2,137.5,183.3c0,35.1,0,183.3,-137.5,183.3c-42.8,0,-84,-22.9,-106.9,-53.4c-26,-36.7,-29.1,-88.7,-29.1,-129.9c0,-33.6,0,-183.3,136,-183.3Zm44.3,-582c-195.5,0,-346.8,87.1,-346.8,195.5c0,71.8,61.1,128.3,139,152.7c-41.2,27.5,-65.7,82.5,-65.7,134.5c0,70.2,42.8,123.7,45.9,126.8C139,317.8,93.2,372.8,93.2,450.7c0,120.7,110,224.6,255.1,224.6c64.2,0,123.8,-21.4,165,-55c53.5,55,122.3,71.8,166.6,71.8c61.1,0,82.5,-47.4,82.5,-76.4c0,-32.1,-24.5,-47.4,-45.9,-47.4c-35.1,0,-45.8,29.1,-45.8,45.9c0,27.5,12.2,35.1,19.9,39.7c-18.4,0,-90.2,0,-151.3,-55c19.9,-21.4,62.6,-73.3,62.6,-148.2C601.9,330,491.9,226.1,346.8,226.1C276.5,226.1,229.2,249,191,273.5C177.2,253.6,169.6,230.7,169.6,206.3c0,-48.9,29,-90.2,73.3,-99.4c12.2,-3,61.1,-3,91.7,-3c145.1,0,233.7,0,319.3,-53.5C710.4,13.8,739.4,-53.4,739.4,-116C739.4,-233.7,579,-314.6,391.1,-314.6Z" 
	id="f4_d"
	transform="scale(0.001,-0.001)" />

	<path d="M55,0l0,47.4c100.8,0,117.6,0,117.6,70.2l0,409.5c0,74.8,-13.7,84,-111.5,84l0,47.4l220,16.8l0,-560.7c0,-59.6,6.1,-67.2,105.4,-67.2L311.7,4.6l-155.9,0C123.8,3.1,223.1,0,55,0ZM203.2,858.6c-47.4,0,-82.5,38.2,-82.5,82.5c0,44.3,35.1,82.5,82.5,82.5c45.8,0,82.5,-36.7,82.5,-82.5c0,-45.8,-36.7,-82.5,-82.5,-82.5Z" 
	id="f4_f"
	transform="scale(0.001,-0.001)" />

	<path d="M391.1,-16.7C210.8,-16.7,51.9,132.9,51.9,330c0,191,146.7,354.4,342.3,354.4c134.4,0,241.4,-58,241.4,-152.7c0,-47.4,-32.1,-73.4,-71.8,-73.4c-39.8,0,-70.3,30.6,-70.3,70.3c0,44.3,30.5,65.7,62.6,71.8c-56.5,38.2,-139,41.3,-158.9,41.3c-91.6,0,-213.9,-71.8,-213.9,-310.2C183.3,105.4,308.6,26,406.4,26C484.3,26,569.9,65.7,605,171.1c9.2,26,9.2,29,26,29c4.6,0,21.4,0,21.4,-18.3c0,-13.7,-48.9,-198.5,-261.3,-198.5Z" 
	id="f4_b"
	transform="scale(0.001,-0.001)" />

	<path d="M326.9,21.4c67.3,0,181.9,45.8,181.9,194l0,151.3C275,357.5,187.9,250.6,187.9,149.7c0,-76.4,67.2,-128.3,139,-128.3ZM316.3,-16.7C213.9,-16.7,65.7,24.4,65.7,149.7c0,61.1,33.6,140.6,143.6,194.1c102.4,48.8,217,56.5,299.5,59.5l0,50.5c0,134.4,-87.1,192.5,-165,192.5c-44.4,0,-117.7,-13.8,-158.9,-53.5c1.5,0,68.7,-7.7,68.7,-73.4c0,-39.7,-29,-70.2,-70.3,-70.2c-39.7,0,-71.8,25.9,-71.8,73.3c0,97.8,107,161.9,235.3,161.9c76.4,0,149.7,-22.9,206.3,-73.3c68.7,-62.6,68.7,-114.6,68.7,-201.7l0,-267.3c0,-24.5,0,-97.8,55,-97.8c55,0,55,76.4,55,93.2l0,84l42.8,0l0,-85.5C774.6,13.8,678.3,-9.1,640.1,-9.1c-65.7,0,-110,54.9,-117.6,119.1C501.1,67.2,443.1,-16.7,316.3,-16.7Z" 
	id="f4_a"
	transform="scale(0.001,-0.001)" />

	<path d="M722.6,398.8L542.4,898.3L362.1,398.8ZM51.9,0l0,47.4c117.7,1.5,152.8,55,171.2,105.4l328.4,907.5c9.2,24.4,12.3,33.6,36.7,33.6c24.4,0,29,-12.2,36.7,-32.1L971.7,103.9c15.2,-42.8,32.1,-56.5,126.8,-56.5l25.9,0L997.6,4.6L854,4.6C774.6,4.6,924.3,0,705.8,0l0,47.4c39.8,0,125.3,0,125.3,45.8c0,7.6,-1.5,12.2,-7.6,27.5L741,351.4l-395.7,0L273.5,154.3c-3.1,-7.6,-6.1,-15.3,-6.1,-29c0,-29,25.9,-76.4,113,-77.9L294.9,3.1C261.3,4.6,207.8,4.6,151.3,4.6C110,4.6,207.8,0,51.9,0Z" 
	id="f4_8"
	transform="scale(0.001,-0.001)" />

	<path d="M374.3,-16.7c-22.9,0,-27.5,15.3,-35.1,33.5L142.1,556.1c-18.3,52,-38.2,55,-111.5,55l51.9,42.8l155.8,0c35.2,1.5,-61.1,4.6,105.5,4.6l0,-47.4c-29.1,0,-88.7,0,-88.7,-41.2c0,-6.1,0,-9.2,9.2,-32.1L409.4,140.6L534.7,484.3c0,1.5,7.7,18.3,7.7,21.4c0,4.6,-19.9,65.7,-33.6,82.5c-16.9,21.4,-47.4,22.9,-96.3,22.9l48.9,42.8l116.1,0c62.6,0,-24.4,4.6,132.9,4.6l0,-47.4c-39.7,0,-87.1,-3,-87.1,-42.8c0,-4.5,0,-9.1,7.7,-29L785.3,120.7L925.8,502.6c4.6,10.7,7.7,19.9,7.7,35.2c0,30.5,-21.4,71.8,-87.1,73.3l61.1,42.8l129.9,0c3,0,-50.5,4.6,64.1,4.6l0,-47.4c-32.1,-1.5,-94.7,-7.6,-128.3,-100.8L791.4,13.8C785.3,-1.4,780.7,-16.7,757.8,-16.7c-22.9,0,-29,16.7,-35.2,32L565.3,443.1L409.4,15.3c-6.1,-15.3,-12.2,-32,-35.1,-32Z" 
	id="f4_l"
	transform="scale(0.001,-0.001)" />

	<path d="M45.8,0l0,47.4c100.9,0,117.7,0,117.7,70.2l0,408c0,74.8,-13.8,85.5,-117.7,85.5l0,47.4l217,16.8l0,-158.9l1.5,0c35.1,94.7,99.3,158.9,191,158.9c68.7,0,114.6,-45.9,114.6,-94.7c0,-45.9,-35.2,-68.8,-67.3,-68.8c-35.1,0,-67.2,26,-67.2,67.2c0,36.7,24.5,55,27.5,56.6l0,1.5c-174.1,0,-191,-224.6,-191,-287.2l0,-229.2c0,-56.5,4.6,-73.3,116.2,-73.3l30.5,0L322.4,3.1C285.7,4.6,224.6,4.6,146.7,4.6C126.8,3.1,224.6,0,45.8,0Z" 
	id="f4_j"
	transform="scale(0.001,-0.001)" />

	<path d="M548.5,386.5C546.9,582.1,455.3,646.3,371.3,646.3C328.5,646.3,191,621.8,177.2,386.5ZM391.1,-16.7C204.7,-16.7,44.3,136,44.3,336.1c0,189.5,143.6,348.3,327,348.3c195.5,0,281.1,-145.1,281.1,-302.5c0,-32,-7.7,-32,-41.3,-32l-435.4,0c0,-64.2,1.5,-155.9,51.9,-230.7C262.8,67.2,325.4,26,398.8,26c22.9,0,158.8,3,210.8,158.9c1.5,6.1,6.1,16.8,21.4,16.8c13.7,0,21.4,-9.2,21.4,-19.9c0,-35.1,-74.9,-198.5,-261.3,-198.5Z" 
	id="f4_c"
	transform="scale(0.001,-0.001)" />

	<path d="M70.3,-16.7C51.9,-16.7,51.9,-3,51.9,22.9l0,195.6c0,27.5,0,39.7,21.4,39.7c18.4,0,19.9,-9.2,24.5,-24.4C116.1,151.3,155.8,21.4,311.7,21.4c21.4,0,175.7,0,175.7,134.4c0,58.1,-38.2,87.1,-53.5,99.3c-33.6,26,-59.6,30.6,-137.5,45.9c-77.9,13.7,-136,24.4,-187.9,71.8C73.3,406.4,51.9,446.1,51.9,495c0,77.9,50.5,189.4,252.1,189.4c52,0,99.3,-9.1,146.7,-42.7c9.2,7.6,22.9,21.4,26,24.4c19.8,18.3,22.9,18.3,30.5,18.3c18.4,0,18.4,-13.7,18.4,-39.7l0,-146.6c0,-29.1,0,-39.8,-21.4,-39.8c-19.9,0,-19.9,9.2,-21.4,27.5C479.7,524,469,650.8,304,650.8c-139,0,-174.1,-64.1,-174.1,-113c0,-87.1,111.5,-107,151.2,-114.6c113.1,-21.4,168.1,-32.1,220,-82.5c33.6,-35.1,64.2,-76.4,64.2,-145.1C565.3,93.2,499.6,-16.7,311.7,-16.7c-38.2,0,-108.5,4.6,-172.7,67.1C131.4,42.8,114.6,22.9,108.5,13.8C81,-15.2,79.4,-16.7,70.3,-16.7Z" 
	id="f4_k"
	transform="scale(0.001,-0.001)" />

	<path d="M143.6,194c-22.9,0,-56.5,0,-56.5,33.6c0,32.1,30.5,32.1,50.4,32.1l944.2,0c21.4,0,50.4,0,50.4,-32.1c0,-33.6,-33.6,-33.6,-56.5,-33.6Zm-6.1,311.7c-19.9,0,-50.4,0,-50.4,32.1c0,33.6,33.6,33.6,56.5,33.6l932,0c22.9,0,56.5,0,56.5,-33.6c0,-32.1,-29,-32.1,-50.4,-32.1Z" 
	id="f4_7"
	transform="scale(0.001,-0.001)" />

	<path d="M348.3,-33.5c-70.2,0,-70.2,68.6,-70.2,85.4c0,87.1,18.3,336.2,216.9,609.6L641.7,861.7l-320.9,0c-21.4,0,-142,0,-152.7,-9.2C148.2,834.2,136,748.6,129.9,713.5l-42.8,0l50.4,319.3l42.8,0c4.6,-29,9.1,-48.9,201.6,-48.9l380.5,0c0,-32.1,0,-35.1,-13.8,-52L534.7,640.1C453.8,530.1,420.1,352.9,420.1,128.3l0,-74.8c0,-19.9,0,-87,-71.8,-87Z" 
	id="f4_6"
	transform="scale(0.001,-0.001)" />

	<path d="M363.6,-33.5C194,-33.5,77.9,106.9,77.9,246c0,61.1,42.8,79.4,74.9,79.4c41.2,0,74.8,-27.5,74.8,-74.8c0,-55,-44.3,-74.9,-74.8,-74.9c-10.7,0,-19.9,3.1,-21.4,3.1C168.1,65.7,270.4,9.2,360.6,9.2c59.5,0,123.7,29,165,93.2c42.7,68.7,42.7,163.4,42.7,210.8c0,55,0,290.3,-163.4,290.3c-79.5,0,-152.8,-36.7,-198.6,-100.9c-9.2,-13.7,-13.8,-19.8,-26,-19.8c-21.4,0,-21.4,16.8,-21.4,44.3l0,449.2c0,25.9,0,41.2,18.3,41.2c1.6,0,4.6,0,19.9,-7.6c70.3,-29.1,139,-41.3,204.7,-41.3c64.2,0,134.5,12.2,206.3,41.3c13.7,7.6,16.8,7.6,19.8,7.6c7.7,0,16.8,-6.1,16.8,-19.9c0,-19.8,-110,-155.8,-297.9,-155.8c-47.4,0,-94.7,7.6,-140.5,21.4l0,-301c53.4,55,128.3,79.5,201.6,79.5c166.5,0,297.9,-151.3,297.9,-336.1C705.8,116.1,548.5,-33.5,363.6,-33.5Z" 
	id="f4_5"
	transform="scale(0.001,-0.001)" />

	<path d="M699.7,522.5c131.4,0,201.7,45.8,235.3,76.4c79.4,73.3,96.3,216.9,96.3,249c0,111.5,-94.8,148.2,-213.9,148.2l-154.3,0c-64.2,0,-67.3,-4.6,-81,-59.6L478.2,522.5ZM91.7,0C81,0,68.8,3.1,68.8,19.9c0,27.5,16.8,27.5,45.8,27.5c114.6,0,117.6,13.7,131.4,68.7L452.2,939.6c4.6,16.8,6.1,22.9,6.1,30.5c0,16.8,-10.7,19.9,-36.6,23c-24.5,3,-52,3,-58.1,3c-32.1,0,-45.8,0,-45.8,19.9c0,27.5,18.3,27.5,45.8,27.5l504.2,0c200.1,0,308.6,-111.6,308.6,-232.2c0,-162,-201.7,-331.6,-449.2,-331.6l-255.1,0L380.4,110C372.8,82.5,372.8,79.4,372.8,74.9c0,-13.8,1.5,-19.9,35.1,-24.5c24.5,-3,52,-3,58.1,-3c32.1,0,47.3,0,47.3,-19.9C513.3,0,493.5,0,482.8,0C453.8,0,414,1.5,383.5,3.1C337.6,4.6,334.6,4.6,285.7,4.6c-48.9,0,-51.9,0,-97.8,-1.5C158.9,1.5,120.7,0,91.7,0Z" 
	id="f5_4"
	transform="scale(0.001,-0.001)" />

	<path d="M828.1,400.3L771.5,904.4L462.9,400.3ZM77.9,0C62.6,0,56.5,10.7,56.5,19.9c0,13.7,7.7,25.9,18.4,27.5c61.1,4.5,128.3,9.1,203.2,131.4l539.3,884.5c12.2,19.9,21.4,30.6,42.7,30.6c26,0,27.5,-7.6,30.6,-41.3L997.6,102.4c4.6,-44.3,6.2,-55,97.8,-55c18.4,0,35.2,0,35.2,-19.9C1130.6,0,1110.7,0,1101.5,0c-24.4,0,-59.6,1.5,-84,3.1C980.8,4.6,977.8,4.6,927.4,4.6C902.9,4.6,866.3,3.1,835.7,3.1C805.1,3.1,768.5,0,739.4,0C728.8,0,716.5,3.1,716.5,19.9c0,27.5,19.9,27.5,35.2,27.5c88.6,0,110,25.9,110,48.9c0,4.5,-9.2,71.8,-15.3,131.3c-4.6,38.2,-9.2,90.2,-13.8,125.3l-398.7,0L313.2,155.8c-4.6,-7.6,-21.4,-36.6,-21.4,-58c0,-45.9,58.1,-48.9,71.8,-50.4c4.6,0,22.9,-1.6,22.9,-19.9C386.5,0,366.7,0,323.9,0C241.4,4.6,207.8,4.6,178.8,4.6C106.9,0,207.8,0,77.9,0Z" 
	id="f5_2"
	transform="scale(0.001,-0.001)" />

	<path d="M870.8,195.6C766.9,195.6,689,258.2,598.9,342.2c-91.7,82.5,-162,134.5,-250.6,134.5c-74.8,0,-206.2,-50.4,-215.4,-242.9c0,-7.7,-6.1,-36.7,-22.9,-36.7c-10.7,0,-22.9,12.2,-22.9,51.9c0,148.2,94.7,319.3,261.2,319.3c103.9,0,181.8,-62.6,272,-146.6C711.9,339.2,782.2,287.2,870.8,287.2c123.8,0,209.3,110,215.5,223.1c1.5,21.4,3,56.5,22.9,56.5c9.1,0,22.9,-10.7,22.9,-51.9c0,-148.2,-94.7,-319.3,-261.3,-319.3Z" 
	id="f6_1"
	transform="scale(0.001,-0.001)" />

	<path d="M88.6,0C67.2,0,67.2,16.8,67.2,19.9c0,25.9,19.9,27.5,26,27.5c106.9,4.5,145.1,39.7,163.5,114.5l206.2,825c-36.6,9.2,-93.2,9.2,-100.8,9.2c-30.6,0,-45.8,0,-45.8,19.9c0,27.5,16.8,27.5,45.8,27.5l203.2,0c35.1,0,36.6,-1.6,50.4,-30.6L965.6,220l171.1,679.9c0,1.5,4.6,22.9,4.6,30.5c0,50.4,-44.4,64.2,-102.4,65.7c-9.2,0,-27.5,0,-27.5,19.9c0,27.5,21.4,27.5,27.5,27.5c22.9,0,55,-3.1,79.4,-3.1c36.7,-1.5,39.8,-1.5,78,-1.5c33.6,0,119.1,4.6,152.7,4.6c12.3,0,21.4,-7.7,21.4,-19.9c0,-26,-18.3,-27.5,-27.5,-27.5c-119.1,-4.6,-148.2,-55,-163.5,-117.6L967.1,32.1C961,6.1,959.4,0,939.6,0C924.3,0,922.8,3.1,912.1,27.5L502.6,951.8L302.5,146.7c-4.6,-21.4,-6.1,-22.9,-6.1,-33.6c0,-41.3,27.5,-64.2,99.3,-65.7c13.7,0,30.6,-1.6,30.6,-19.9C426.3,0,406.4,0,398.8,0c-23,0,-55,3.1,-79.5,3.1C282.6,4.6,279.6,4.6,241.4,4.6c-48.9,0,-52,0,-76.4,-1.5C145.1,1.5,106.9,0,88.6,0Z" 
	id="f5_3"
	transform="scale(0.001,-0.001)" />

	<path d="M502.6,-380.3c-18.3,0,-160.4,111.5,-250.5,299.4c-84,180.2,-97.8,354.4,-97.8,464.4c0,181.8,36.7,339.1,110,485.8c82.5,166.5,220,276.5,238.3,276.5c10.7,0,18.4,-6.1,18.4,-16.8c0,-7.6,-3.1,-12.2,-9.2,-18.3C296.4,906,250.6,618.8,250.6,381.9c0,-267.3,59.5,-542.2,256.6,-722.5c9.2,-10.7,13.8,-15.3,13.8,-22.9c0,-10.7,-7.7,-16.8,-18.4,-16.8Z" 
	id="f4_1"
	transform="scale(0.001,-0.001)" />

	<path d="M151.3,0l0,47.4l48.8,0c142.1,0,146.7,18.3,146.7,74.8l0,789.9C264.3,872.4,171.1,872.4,142.1,872.4l0,47.3c47.3,0,187.9,0,282.6,97.8c38.2,0,39.7,-3.1,39.7,-41.2l0,-854.1c0,-56.5,4.6,-74.8,146.7,-74.8l48.9,0L605,4.6l-262.8,0C206.3,4.6,404.9,0,151.3,0Z" 
	id="f4_4"
	transform="scale(0.001,-0.001)" />

	<path d="M392.6,4.6C430.8,4.6,543.9,19.9,576,194c15.3,90.2,15.3,218.5,15.3,313.2c0,96.3,0,215.4,-16.9,299.5C545.4,948.8,449.2,979.3,391.1,979.3c-51.9,0,-149.7,-27.5,-180.3,-163.5C192.5,731.8,192.5,611.1,192.5,507.2c0,-87.1,0,-218.4,15.3,-308.6C236.8,26,346.8,4.6,392.6,4.6Zm-1.5,-38.1c-70.3,0,-189.4,24.4,-261.2,154.2C64.2,241.4,61.1,389.6,61.1,488.9c0,116.1,7.7,239.9,56.5,345.3c67.3,146.6,183.4,183.3,275,183.3c88.7,0,204.8,-36.7,272,-180.3c53.5,-114.6,58,-245.9,58,-348.3c0,-122.2,-9.1,-236.8,-55,-339.2C603.5,9.2,490.4,-33.5,391.1,-33.5Z" 
	id="f4_3"
	transform="scale(0.001,-0.001)" />

	<path d="M175.7,-294.8c-9.2,0,-19.9,7.7,-19.9,18.4c0,6.1,0,7.6,9.2,16.8c113.1,108.4,113.1,233.7,113.1,284C262.8,7.6,239.9,0,216.9,0C165,0,134.4,39.7,134.4,82.5c0,42.8,30.6,82.5,82.5,82.5c65.7,0,99.4,-67.2,99.4,-161.9c0,-178.7,-123.8,-297.9,-140.6,-297.9Z" 
	id="f5_1"
	transform="scale(0.001,-0.001)" />

	<path d="M110,0c0,47.4,1.5,48.9,16.8,64.2L488.9,395.7C595.8,493.5,667.6,605,667.6,713.5c0,123.7,-85.5,242.9,-245.9,242.9c-105.4,0,-198.6,-58.1,-233.8,-136c67.2,0,87.1,-48.9,87.1,-82.5c0,-55,-44.3,-82.5,-82.5,-82.5c-16.8,0,-82.5,9.2,-82.5,87.1C110,886.1,247.5,1016,444.6,1016c204.7,0,377.3,-111.6,377.3,-302.5C821.9,605,759.3,527.1,713.5,481.3C666.1,435.4,530.1,337.6,478.2,296.4L282.6,137.5l285.7,0c21.4,0,145.2,0,155.9,9.2c22.9,16.8,38.2,117.6,41.2,139l56.5,0L774.6,0Z" 
	id="f7_1"
	transform="scale(0.001,-0.001)" />

	<path d="M106.9,-380.3c-15.2,0,-18.3,12.2,-18.3,16.8c0,7.6,6.1,13.7,9.2,18.3C319.3,-138.9,359,165,359,383.5c0,435.4,-168,643.2,-256.6,722.6c-10.7,10.7,-13.8,15.3,-13.8,22.9c0,4.6,3.1,16.8,18.3,16.8c18.4,0,160.5,-111.5,250.6,-299.4C436.9,676.8,455.3,508.8,455.3,383.5c0,-183.4,-36.7,-340.7,-110,-487.3C262.8,-270.3,125.3,-380.3,106.9,-380.3Z" 
	id="f4_2"
	transform="scale(0.001,-0.001)" />

	<path d="M204.7,825l-27.5,27.5l204.7,207.8L585.1,852.5L557.6,825L381.9,980.8L204.7,825Z" 
	id="f0_g"
	transform="scale(0.001,-0.001)" />

	<path d="M161.9,0c-3,0,-21.3,0,-21.3,16.8c0,30.6,12.2,30.6,41.2,30.6c122.2,1.5,123.8,6.1,143.6,90.1c7.7,27.5,68.8,273.5,68.8,278.1c0,4.5,-4.6,21.3,-6.1,25.9l-188,502.7c-13.7,38.2,-19.8,51.9,-111.5,51.9c-19.8,0,-35.1,0,-35.1,16.8c0,30.6,19.8,30.6,67.2,30.6c94.7,-4.6,132.9,-4.6,175.7,-4.6c106.9,4.6,-42.8,4.6,149.7,4.6c4.6,0,22.9,0,22.9,-16.8c0,-30.6,-15.2,-30.6,-36.6,-30.6c-15.3,0,-90.2,0,-90.2,-36.7c0,-1.5,0,-4.5,9.2,-25.9l168,-453.8L873.9,887.6c6.1,7.7,41.2,47.4,41.2,73.4c0,32.1,-44.3,35.1,-55,35.1c-7.6,0,-22.9,1.5,-22.9,18.3c0,29.1,19.9,29.1,77.9,29.1c53.5,-4.6,103.9,-4.6,145.2,-4.6c44.3,4.6,-41.3,4.6,84,4.6c12.2,0,19.9,-6.1,19.9,-18.4c0,-27.5,-13.8,-27.5,-30.6,-29C1029.7,988.5,979.3,936.5,933.5,890.7L912.1,869.3L533.2,433.9C521,420.1,519.4,415.6,511.8,386.5L458.3,171.1C450.7,139,436.9,85.6,436.9,74.9c0,-18.4,9.2,-21.4,41.3,-24.5c26,-3,55,-3,58.1,-3c29,0,42.7,0,42.7,-16.8C579,0,560.7,0,507.2,0C397.2,4.6,354.4,4.6,311.7,4.6C204.7,0,354.4,0,161.9,0Z" 
	id="f1_8"
	transform="scale(0.001,-0.001)" />

	<path d="M371.3,368.2c134.4,0,186.3,148.2,186.3,275c0,70.3,-6.1,166.5,-24.4,215.4c-26,68.8,-76.4,120.7,-146.7,120.7C333.1,979.3,275,959.4,233.8,883.1C201.7,826.5,201.7,754.7,201.7,672.2c0,-74.8,0,-151.2,27.5,-207.8c47.3,-96.2,117.6,-96.2,142.1,-96.2ZM314.7,-33.5C184.9,-33.5,102.4,29,102.4,131.4c0,59.6,45.8,73.3,70.2,73.3c33.7,0,70.3,-22.9,70.3,-70.3c0,-25.9,-12.2,-70.2,-79.4,-70.2c41.2,-52,123.7,-55,149.7,-55c88.6,0,247.5,70.2,247.5,427.7l0,48.9C525.6,397.2,462.9,333.1,369.7,333.1C198.6,333.1,64.2,482.8,64.2,673.8c0,114.5,35.1,178.7,97.7,247.5c65.7,68.7,140.6,96.2,224.6,96.2c136,0,311.7,-103.9,311.7,-514.9C698.2,174.2,511.8,-33.5,314.7,-33.5Z" 
	id="f0_b"
	transform="scale(0.001,-0.001)" />

	<path d="M372.8,-33.5C206.3,-33.5,64.2,67.2,64.2,206.3c0,67.2,48.9,88.6,85.5,88.6c44.3,0,85.6,-30.6,85.6,-85.6c0,-52.6,-38.9,-85.1,-85.9,-85.1c-4.9,0,-9.9,0.4,-15,1.1C187.9,35.1,302.5,9.2,368.2,9.2c67.2,0,172.6,44.3,172.6,252.1C540.8,411,484.3,514.9,359,514.9l-67.2,0c-26,0,-36.7,0,-36.7,16.8c0,15.2,10.7,16.8,23,18.3c10.7,0,47.3,3.1,59.5,4.6c38.2,1.5,90.2,6.1,136,79.4c39.7,67.3,42.8,155.9,42.8,174.2c0,137.5,-84,171.1,-146.7,171.1c-55,0,-155.8,-19.9,-203.2,-94.7c22.9,0,94.8,0,94.8,-76.4c0,-44.3,-30.6,-77.9,-78,-77.9c-44.3,0,-77.9,29,-77.9,79.4c0,116.1,116.1,207.8,270.4,207.8c146.7,0,281.1,-85.6,281.1,-210.8C656.9,686,568.3,579,443.1,537.8C601.9,505.7,698.2,386.5,698.2,261.3c0,-155.9,-139,-294.8,-325.4,-294.8Z" 
	id="f0_6"
	transform="scale(0.001,-0.001)" />

	<path d="M212.4,0c-44.3,0,-81,36.7,-81,81c0,44.3,36.7,80.9,81,80.9c44.3,0,80.9,-36.6,80.9,-80.9C293.3,36.7,256.7,0,212.4,0Z" 
	id="f0_3"
	transform="scale(0.001,-0.001)" />

	<path d="M458.3,299.4l0,569.9L85.6,299.4ZM301,0l0,47.4l32.1,0c113,0,116.1,16.8,116.1,71.8l0,132.9l-406.4,0l0,47.3l469,716.6c12.2,18.3,16.8,18.3,30.6,18.3c24.4,0,24.4,-9.2,24.4,-39.7l0,-695.2l152.8,0l0,-47.3l-152.8,0l0,-132.9c0,-55,3.1,-71.8,116.1,-71.8l32.1,0L652.4,4.6l-209.3,0C363.6,4.6,507.2,0,301,0Z" 
	id="f0_7"
	transform="scale(0.001,-0.001)" />

	<path d="M212.4,0c-44.3,0,-81,36.7,-81,81c0,44.3,36.7,80.9,81,80.9c44.3,0,80.9,-36.6,80.9,-80.9C293.3,36.7,256.7,0,212.4,0Z" 
	id="f1_1"
	transform="scale(0.001,-0.001)" />

	<path d="M383.5,9.2c35.1,0,105.4,7.6,151.2,99.3c26,55,26,131.4,26,204.7c0,74.9,0,152.8,-27.5,209.3c-47.4,94.7,-117.6,94.7,-142.1,94.7C253.6,617.2,204.7,464.4,204.7,345.3c0,-27.5,0,-149.7,27.5,-221.5c9.2,-23,55,-114.6,151.3,-114.6Zm0,-42.7C241.4,-33.5,64.2,74.9,64.2,482.8c0,337.6,206.2,534.7,401.8,534.7c126.8,0,194,-73.3,194,-165c0,-59.6,-45.8,-73.3,-70.3,-73.3c-33.6,0,-70.3,22.9,-70.3,70.2c0,68.8,61.2,68.8,84.1,68.8C569.9,970.1,505.7,979.3,469,979.3c-77.9,0,-267.3,-55,-267.3,-441.5l0,-36.7c30.5,73.3,87.1,151.3,190.9,151.3c169.6,0,305.6,-146.7,305.6,-340.7C698.2,110,553.1,-33.5,383.5,-33.5Z" 
	id="f0_9"
	transform="scale(0.001,-0.001)" />

	<path d="M511.8,539.3c226.1,0,262.8,123.8,262.8,229.2C774.6,990,603.5,996.1,466,996.1c-30.6,0,-74.9,0,-90.2,-3c-33.6,-4.6,-33.6,-23,-33.6,-58.1l0,-395.7ZM973.2,-33.5c-45.8,0,-129.9,9.2,-192.5,64.1C718.1,88.6,718.1,149.7,718.1,249c0,102.4,0,149.8,-58.1,204.8c-53.5,51.9,-117.6,51.9,-142.1,51.9l-175.7,0l0,-386.5c0,-55,3.1,-71.8,120.7,-71.8l36.7,0L444.6,4.6l-227.7,0C108.5,4.6,276.5,0,53.5,0l0,47.4l36.6,0c117.7,0,120.7,16.8,120.7,71.8l0,805.1c0,55,-3,71.8,-120.7,71.8l-36.6,0l0,47.4l479.7,0c224.6,0,398.7,-128.4,398.7,-275C931.9,649.3,812.8,556.1,664.6,519.4C748.6,490.4,823.5,440,851,342.2L870.8,220C892.2,77.9,904.4,0,979.3,0c38.2,0,91.7,27.5,100.8,136c1.6,10.7,1.6,24.4,18.4,24.4c19.8,0,19.8,-16.8,19.8,-26c0,-42.7,-25.9,-167.9,-145.1,-167.9Z" 
	id="f0_f"
	transform="scale(0.001,-0.001)" />

	<path d="M533.2,385c0,59.6,-15.3,265.8,-172.6,265.8c-52,0,-180.3,-38.2,-189.5,-265.8ZM378.9,-16.7C203.2,-16.7,42.8,131.4,42.8,336.1c0,191,140.5,348.3,317.8,348.3C551.5,684.4,634,536.3,634,385c0,-32.1,-4.6,-32.1,-38.2,-32.1l-426.2,0c0,-55,0,-155.8,45.8,-229.1C250.6,67.2,311.7,21.4,388.1,21.4c15.2,0,152.7,0,206.2,157.4c3.1,12.2,6.1,21.3,19.9,21.3c7.6,0,19.8,-3,19.8,-18.3c0,-29,-68.7,-198.5,-255.1,-198.5Z" 
	id="f0_k"
	transform="scale(0.001,-0.001)" />

	<path d="M319.3,16.8c68.8,0,178.8,52,178.8,197.1l0,152.8C246,357.5,181.8,230.7,181.8,146.7C181.8,70.3,244.4,16.8,319.3,16.8ZM308.6,-16.7C212.4,-16.7,64.2,21.4,64.2,145.1c0,67.3,38.2,146.7,152.7,198.7c96.3,45.8,203.2,50.4,281.2,55l0,56.5c0,136,-87.1,195.5,-162,195.5c-48.9,0,-123.7,-16.8,-165,-70.2C241.4,579,249,528.6,249,510.3C249,470.6,221.5,440,178.8,440c-39.8,0,-70.3,26,-70.3,71.8c0,100.8,105.4,172.6,230.7,172.6c73.3,0,149.7,-24.4,209.3,-84c55,-56.5,55,-116.1,55,-180.3l0,-305.5c0,-7.7,6.1,-76.4,56.5,-76.4c16.8,0,55,9.2,55,97.8l0,85.5l38.2,0l0,-85.5C753.2,12.2,660,-9.1,627.9,-9.1c-71.8,0,-113,64.1,-119.1,125.2C479.7,44.3,409.4,-16.7,308.6,-16.7Z" 
	id="f0_h"
	transform="scale(0.001,-0.001)" />

	<path d="M383.5,16.8c65.7,0,134.4,33.6,180.3,107c16.8,25.9,16.8,29,16.8,56.5l0,313.2c0,27.5,0,30.5,-16.8,56.5c-47.4,68.8,-111.6,91.7,-165,91.7c-82.5,0,-140.6,-50.4,-172.7,-97.8C181.8,475.1,178.8,383.5,178.8,326.9c0,-62.6,4.5,-149.7,44.3,-212.3C259.7,56.5,314.7,16.8,383.5,16.8Zm-7.7,-33.5C201.7,-16.7,51.9,134.4,51.9,328.5c0,197.1,160.5,346.8,340.7,346.8c82.5,0,148.2,-39.7,192.5,-94.7l0,330c0,74.8,-12.2,85.5,-119.1,85.5l0,47.4l220,16.8l0,-927.4C686,58.1,698.2,47.4,805.1,47.4L805.1,0L580.6,-16.7l0,100.7C542.4,35.1,473.6,-16.7,375.8,-16.7Z" 
	id="f0_j"
	transform="scale(0.001,-0.001)" />

	<path d="M50.4,0l0,47.4c102.4,0,119.2,0,119.2,68.7l0,411c0,74.8,-13.8,84,-113.1,84l0,47.4l213.9,16.8l0,-560.7c0,-59.6,6.1,-67.2,107,-67.2L325.4,1.5C271.9,4.6,218.5,4.6,181.8,4.6C99.3,1.5,218.5,0,50.4,0ZM195.6,860.1c-47.4,0,-81,39.8,-81,81c0,39.7,33.6,81,81,81c42.7,0,80.9,-32.1,80.9,-81c0,-48.9,-38.2,-81,-80.9,-81Z" 
	id="f0_m"
	transform="scale(0.001,-0.001)" />

	<path d="M48.9,0l0,47.4c102.4,0,119.2,0,119.2,68.7l0,409.5c0,74.8,-12.3,85.5,-119.2,85.5l0,47.4l215.4,16.8l0,-160.4c42.8,94.7,114.6,160.4,226.1,160.4c88.6,0,139,-30.6,160.4,-56.5c47.4,-55,47.4,-102.4,47.4,-233.8l0,-291.8C699.7,47.4,737.9,47.4,817.4,47.4L765.4,1.5C686,4.6,646.3,4.6,605,4.6C527.1,1.5,646.3,0,473.6,0l0,47.4c102.4,0,119.2,0,119.2,68.7l0,356c0,87.1,-16.8,169.6,-113.1,169.6c-97.8,0,-206.2,-85.6,-206.2,-244.5l0,-281.1c0,-68.7,16.8,-68.7,119.1,-68.7L340.7,1.5C261.3,4.6,221.5,4.6,180.3,4.6C102.4,1.5,221.5,0,48.9,0Z" 
	id="f0_n"
	transform="scale(0.001,-0.001)" />

	<path d="M381.9,-279.5c149.8,0,258.2,76.4,258.2,158.9C640.1,10.7,469,10.7,337.6,10.7l-90.1,0C180.3,6.1,122.2,-50.3,122.2,-120.6c0,-81,105.4,-158.9,259.7,-158.9ZM339.2,262.8c61.1,0,96.2,42.8,108.4,61.1c23,38.2,24.5,87.1,24.5,128.3c0,35.2,0,187.9,-132.9,187.9c-61.1,0,-96.3,-42.7,-108.5,-61.1C207.8,540.8,206.3,491.9,206.3,450.7c0,-35.1,0,-187.9,132.9,-187.9Zm41.2,-577.4c-186.4,0,-337.6,84,-337.6,194c0,61.1,48.9,126.7,140.5,152.7c-47.3,30.5,-67.2,88.6,-67.2,136c0,53.4,27.5,103.8,47.4,126.8C125.3,326.9,91.7,385,91.7,452.2c0,117.7,105.4,223.1,247.5,223.1c33.6,0,97.7,-4.6,161.9,-55c64.2,62.6,131.4,71.8,162,71.8c59.5,0,77.9,-48.9,77.9,-74.9c0,-35.1,-29.1,-45.8,-44.3,-45.8c-24.5,0,-44.3,18.3,-44.3,44.3c0,18.3,7.6,35.1,24.4,41.2c-4.6,1.6,-12.2,1.6,-15.3,1.6C634,658.5,579,650.8,524,598.9c38.2,-35.1,62.7,-91.7,62.7,-148.2C586.7,333.1,481.3,227.6,339.2,227.6c-29.1,0,-91.7,4.6,-151.3,47.4c-26,-30.6,-26,-65.7,-26,-71.8c0,-48.9,32.1,-96.3,81,-102.4c10.7,-1.5,76.4,-1.5,114.6,-1.5c93.2,0,181.8,0,262.8,-42.8c77.9,-42.7,99.3,-120.6,99.3,-174c0,-119.2,-158.9,-197.1,-339.2,-197.1Z" 
	id="f0_l"
	transform="scale(0.001,-0.001)" />

	<path d="M571.4,47.4c154.3,0,241.4,88.6,271.9,129.8c55,74.9,84.1,166.6,84.1,336.1c0,119.2,-13.8,250.6,-79.5,340.7C770,962.5,664.6,996.1,569.9,996.1l-152.8,0c-71.8,0,-74.9,-10.7,-74.9,-61.1l0,-826.5c0,-50.4,3.1,-61.1,74.9,-61.1ZM53.5,0l0,47.4l36.6,0c117.7,0,120.7,16.8,120.7,71.8l0,805.1c0,55,-3,71.8,-120.7,71.8l-36.6,0l0,47.4l559.1,0c261.3,0,467.5,-239.9,467.5,-530.2C1080.1,226.1,869.3,0,612.6,0Z" 
	id="f0_d"
	transform="scale(0.001,-0.001)" />

	<path d="M381.9,21.4c76.4,0,143.7,44.3,177.3,113c33.6,67.3,33.6,149.8,33.6,204.8c0,58,0,146.6,-39.7,212.3c-39.8,65.7,-105.5,99.3,-172.7,99.3c-61.1,0,-132.9,-32,-174.1,-102.3C169.6,481.3,169.6,398.8,169.6,339.2c0,-55,0,-148.2,38.2,-215.4C249,53.5,316.3,21.4,381.9,21.4Zm-1.5,-38.1C201.7,-16.7,42.8,129.9,42.8,326.9c0,191,148.2,357.5,339.1,357.5c184.9,0,337.7,-161.9,337.7,-357.5c0,-194,-154.3,-343.6,-339.2,-343.6Z" 
	id="f0_o"
	transform="scale(0.001,-0.001)" />

	<path d="M339.2,-33.5c-70.3,0,-70.3,68.6,-70.3,83.9c0,155.9,50.4,368.2,187.9,574.5c33.6,50.4,154.3,216.9,171.1,241.4l-316.2,0c-19.9,0,-139.1,0,-149.8,-9.2C142.1,838.8,128.3,742.5,123.8,718.1l-38.2,0L136,1032.8l38.2,0c6.1,-29,9.1,-48.9,195.5,-48.9l371.3,0c0,-32.1,0,-35.1,-13.8,-53.5L521,640.1C453.8,545.4,432.4,414,426.3,378.9C414,296.4,409.4,212.4,409.4,128.3l0,-77.9c0,-15.3,0,-83.9,-70.2,-83.9Z" 
	id="f0_a"
	transform="scale(0.001,-0.001)" />

	<path d="M644.7,539.3c137.5,0,218.5,48.9,258.2,88.6c59.6,59.6,84,165,84,217c0,151.2,-169.5,151.2,-278,151.2c-30.6,0,-79.5,0,-93.2,-1.5c-29,-4.6,-33.6,-19.9,-42.8,-56.5L473.6,539.3ZM970.1,-33.5c-19.8,0,-203.2,0,-203.2,164.9c0,30.5,13.8,87.1,24.5,129.9c9.2,35.1,21.4,82.5,21.4,105.4c0,53.4,-27.5,139,-166.5,139l-181.9,0L363.6,100.8C362.1,91.7,359,84,359,74.9c0,-27.5,42.8,-27.5,99.3,-27.5c29.1,0,42.8,0,42.8,-16.8C501.1,0,482.8,0,427.8,0C319.3,4.6,276.5,4.6,233.8,4.6C126.8,0,276.5,0,84,0C81,0,62.6,0,62.6,16.8c0,30.6,13.8,30.6,41.3,30.6c120.7,0,123.7,12.2,139,71.8L447.6,939.6c4.6,18.3,6.2,22.9,6.2,29c0,19.9,-13.8,21.4,-41.3,24.5c-26,3,-55,3,-58.1,3c-29,0,-42.7,0,-42.7,16.8c0,30.6,13.7,30.6,44.3,30.6l435.4,0c200.1,0,337.6,-97.8,337.6,-229.2C1129,660,947.2,553.1,792.9,519.4C834.2,504.2,936.5,456.8,936.5,339.2c0,-21.4,-3,-50.4,-6.1,-71.8C924.3,218.5,915.1,140.6,915.1,93.2C915.1,33.6,925.8,0,976.3,0c35.1,0,100.8,26,139,139c3,10.7,6.1,21.4,19.8,21.4c1.6,0,18.4,0,18.4,-18.3c0,-21.4,-53.5,-175.6,-183.4,-175.6Z" 
	id="f1_7"
	transform="scale(0.001,-0.001)" />

	<path d="M582.1,47.4C770,47.4,890.7,163.5,935,220c129.9,168.1,160.4,418.6,160.4,493.5c0,201.6,-126.8,282.6,-276.5,282.6l-163.5,0c-65.7,0,-68.7,-4.6,-82.5,-58L363.6,99.3C356,71.8,356,68.8,356,64.2c0,-12.3,4.6,-13.8,19.8,-15.3c9.2,-1.5,12.3,-1.5,33.6,-1.5ZM103.9,0C74.9,0,61.1,0,61.1,18.3c0,29.1,16.8,29.1,42.8,29.1c120.7,0,123.7,12.2,139,71.8L447.6,939.6c4.6,18.3,6.2,22.9,6.2,29c0,16.8,-9.2,21.4,-33.7,24.5c-18.3,1.5,-45.8,3,-65.7,3c-30.5,0,-44.3,0,-44.3,18.3c0,29.1,16.8,29.1,45.9,29.1l513.3,0c229.2,0,359,-171.1,359,-386.6C1228.3,322.4,927.4,0,609.6,0Z" 
	id="f1_3"
	transform="scale(0.001,-0.001)" />

	<path d="M307.1,0c-52,0,-93.2,41.3,-93.2,93.2c0,51.9,42.8,93.2,93.2,93.2c51.9,0,93.2,-41.3,93.2,-93.2C400.3,41.3,357.5,0,307.1,0Z" 
	id="f8_2"
	transform="scale(0.001,-0.001)" />

	<path d="M617.2,316.3l0,553L168.1,316.3ZM418.6,0l0,67.2l53.5,0C605,67.2,605,82.5,605,129.9L605,249L96.3,249l0,67.3l565.2,695.1c16.8,21.4,18.4,22.9,48.9,22.9c39.7,0,41.3,-9.2,41.3,-45.8l0,-672.2l190.9,0l0,-67.3l-190.9,0l0,-119.1c0,-47.4,0,-62.7,132.9,-62.7l53.5,0L864.7,3.1c-97.8,3,-186.4,3,-275,3C490.4,3.1,678.3,0,418.6,0Z" 
	id="f8_6"
	transform="scale(0.001,-0.001)" />

	<path d="M139,0l0,45.8c1.6,10.7,3.1,10.7,18.4,24.5L530.1,386.5c117.7,99.3,206.3,197.1,206.3,325.4c0,149.8,-123.8,238.4,-272,238.4C362.1,950.3,273.5,904.4,230.7,835.7c47.4,-4.6,87.1,-35.1,87.1,-90.1c0,-62.7,-48.9,-90.2,-90.2,-90.2c-21.3,0,-88.6,13.8,-88.6,93.2c0,149.7,151.3,268.9,357.5,268.9c218.5,0,403.4,-108.5,403.4,-304C899.9,551.5,771.5,462.9,634,368.2C542.4,307.1,429.3,221.5,328.5,146.7l299.4,0c22.9,0,151.3,0,163.5,9.1c24.4,15.3,39.7,110,44.3,139.1l64.2,0L849.4,0Z" 
	id="f8_5"
	transform="scale(0.001,-0.001)" />

	<path d="M519.4,16.8c61.2,0,183.4,22.9,223.1,171.1c22.9,91.7,22.9,215.4,22.9,319.3c0,90.2,0,217,-21.4,294.9C713.5,909,632.5,967.1,519.4,967.1c-65.6,0,-183.3,-26,-221.5,-154.3C273.5,725.7,273.5,620.3,273.5,507.2C273.5,381.9,275,273.5,296.4,191C334.6,36.7,462.9,16.8,519.4,16.8Zm0,-50.3c-398.7,0,-398.7,410.9,-398.7,522.4c0,110,0,528.6,398.7,528.6c398.8,0,398.8,-418.6,398.8,-528.6c0,-111.5,0,-522.4,-398.8,-522.4Z" 
	id="f8_3"
	transform="scale(0.001,-0.001)" />

	<path d="M524,29c85.6,0,139.1,27.5,181.8,77.9c48.9,61.2,48.9,119.2,48.9,207.8c0,85.6,-1.5,149.7,-47.3,206.3C660,582.1,611.1,601.9,533.2,601.9C372.8,601.9,288.8,464.4,288.8,346.8C288.8,282.6,288.8,29,524,29Zm0,-62.5c-223,0,-401.8,154.2,-401.8,519.3c0,316.3,241.4,531.7,504.2,531.7c184.9,0,242.9,-91.7,242.9,-174.2c0,-71.8,-55,-85.5,-81,-85.5c-44.3,0,-80.9,32.1,-80.9,81c0,51.9,39.7,74.8,64.1,80.9c-45.8,36.7,-114.6,39.7,-143.6,39.7c-142.1,0,-241.4,-85.5,-285.7,-168c-55,-99.3,-56.5,-220,-58,-290.3c64.1,110,163.4,152.8,252.1,152.8c132.9,0,203.1,-41.3,270.4,-102.4c79.4,-70.2,110,-145.1,110,-238.3C916.7,236.8,896.8,146.7,799,65.7C747.1,22.9,675.3,-33.5,524,-33.5Z" 
	id="f8_7"
	transform="scale(0.001,-0.001)" />

	<path d="M229.2,0l0,67.2l76.4,0c161.9,0,161.9,16.8,161.9,64.2l0,763.9C378.9,857.1,279.6,852.5,244.4,852.5l-25.9,0l0,67.2l25.9,0c30.6,0,200.2,0,308.7,97.8c50.4,0,55,0,55,-45.8l0,-840.3c0,-47.4,0,-64.2,161.9,-64.2l76.4,0L762.4,6.1l-313.2,0C313.2,6.1,537.8,0,229.2,0Z" 
	id="f8_4"
	transform="scale(0.001,-0.001)" />

	<path d="M100.8,0C71.8,0,58.1,0,58.1,18.3c0,29.1,16.8,29.1,42.7,29.1c120.7,0,123.8,12.2,139.1,71.8L441.5,927.4c7.7,27.5,7.7,30.5,7.7,36.6c0,27.5,-42.8,27.5,-99.3,27.5c-29.1,0,-42.8,0,-42.8,16.8c0,30.6,15.3,30.6,45.8,30.6l771.5,0c38.2,0,45.9,0,41.3,-41.3L1135.1,733.3c-3,-29,-4.5,-38.2,-21.3,-38.2c-13.8,0,-18.4,10.7,-18.4,18.4c0,7.6,1.5,18.3,1.5,27.5c6.2,41.2,6.2,44.3,6.2,80.9c0,125.3,-45.9,169.6,-232.3,169.6l-215.4,0c-67.2,0,-68.7,-6.1,-82.5,-59.6L481.3,563.8l143.6,0c140.5,0,168,35.1,200.1,151.2c4.6,18.3,7.6,27.5,21.4,27.5c10.7,0,18.3,-7.6,18.3,-16.8L777.6,368.2c-6.1,-22.9,-10.7,-30.6,-22.9,-30.6c-13.7,0,-19.8,9.2,-19.8,16.8c0,4.6,1.5,9.2,4.5,16.9c10.7,45.8,10.7,64.1,10.7,74.8c0,38.2,0,70.3,-129.8,70.3l-151.3,0L365.1,99.3C357.5,71.8,357.5,68.8,357.5,64.2c0,-12.3,4.6,-13.8,19.9,-15.3c9.1,-1.5,12.2,-1.5,33.6,-1.5l223,0c261.3,0,317.8,102.3,417.1,328.4c3.1,9.2,6.1,18.4,19.9,18.4c18.3,0,18.3,-15.3,18.3,-16.8c0,-3.1,-4.6,-13.8,-7.6,-21.4L941.1,26C930.4,1.5,928.9,0,893.8,0Z" 
	id="f1_4"
	transform="scale(0.001,-0.001)" />

	<path d="M165,-16.7c-22.9,0,-44.3,13.7,-44.3,41.1c0,7.7,9.2,42.8,13.7,65.7l88.7,353c19.8,79.4,24.4,96.2,24.4,128.3c0,58,-21.4,70.3,-47.4,70.3c-55,0,-85.5,-73.4,-111.5,-181.8C79.4,426.3,77.9,424.7,62.6,424.7c-3,0,-18.3,0,-18.3,15.3c0,4.6,19.9,96.3,47.4,148.2c13.7,27.5,42.7,87.1,113,87.1c71.8,0,126.8,-48.9,139.1,-117.7c29,42.8,96.2,117.7,195.5,117.7c77.9,0,126.8,-45.9,126.8,-99.3c0,-55,-42.8,-90.2,-84,-90.2c-41.3,0,-58.1,29.1,-58.1,53.5c0,39.7,33.6,76.4,79.5,84c-1.6,0,-24.5,18.4,-64.2,18.4c-65.7,0,-110,-39.8,-122.2,-50.4C380.4,557.6,337.6,485.8,331.5,466C322.4,424.7,294.9,317.8,282.6,267.4C276.5,239.9,224.6,32.1,221.5,26C210.8,-4.5,183.3,-16.7,165,-16.7Z" 
	id="f1_b"
	transform="scale(0.001,-0.001)" />

	<path d="M308.6,16.8c70.3,0,154.3,52,207.8,140.6c58,99.3,88.6,259.7,88.6,319.3c0,91.6,-45.8,165,-134.4,165c-42.8,0,-129.9,-22.9,-206.3,-140.6C215.4,423.2,175.7,258.2,175.7,183.3C175.7,64.2,242.9,16.8,308.6,16.8Zm-1.5,-33.5C165,-16.7,62.6,90.1,62.6,241.4c0,216.9,204.8,433.9,409.5,433.9c137.5,0,244.4,-99.3,244.4,-258.2C716.5,194,510.3,-16.7,307.1,-16.7Z" 
	id="f1_a"
	transform="scale(0.001,-0.001)" />

	<path d="M126.8,0l0,67.2l45.8,0c123.8,0,123.8,15.3,123.8,62.7l0,777.6c0,47.4,0,62.6,-123.8,62.6l-45.8,0l0,67.3l1048.1,0l50.4,-363.6l-64.2,0C1127.5,909,1058.8,970.1,803.6,970.1l-270.4,0c-74.9,0,-74.9,-10.7,-74.9,-58l0,-340.7l177.3,0c152.7,0,195.5,32.1,195.5,178.7l64.2,0l0,-424.7l-64.2,0c0,146.7,-42.8,178.8,-195.5,178.8l-177.3,0l0,-378.9c0,-47.4,0,-58.1,74.9,-58.1l284.2,0c291.8,0,351.4,96.3,395.7,346.8l64.1,0L1200.8,0Z" 
	id="f8_a"
	transform="scale(0.001,-0.001)" />

	<path d="M116.1,0l0,67.2l27.5,0c99.3,0,99.3,13.8,99.3,61.1l0,377.4c0,74.9,-13.7,85.6,-126.8,85.6l0,67.2l244.5,16.8l0,-168.1l1.5,0c59.6,128.4,157.3,168.1,233.7,168.1c81,0,136,-47.4,136,-105.4c0,-52,-39.7,-78,-77.9,-78c-33.6,0,-76.4,23,-76.4,78c0,33.6,19.9,53.4,21.4,55C453.8,621.8,372.8,484.3,372.8,342.2l0,-212.3c0,-47.4,0,-62.7,117.6,-62.7l41.3,0L467.5,3.1c-74.9,3,-154.3,3,-218.5,3C180.3,4.6,313.2,0,116.1,0Z" 
	id="f8_c"
	transform="scale(0.001,-0.001)" />

	<path d="M519.4,38.2c267.4,0,267.4,227.6,267.4,302.5c0,68.7,0,293.3,-267.4,293.3C252.1,634,252.1,409.4,252.1,340.7c0,-74.9,0,-302.5,267.3,-302.5Zm0,-54.9C281.1,-16.7,99.3,142.1,99.3,325.4c0,191,180.3,359,420.1,359c239.9,0,420.2,-168,420.2,-359C939.6,142.1,759.3,-16.7,519.4,-16.7Z" 
	id="f8_b"
	transform="scale(0.001,-0.001)" />

	<path d="M215.4,157.4c-22.9,0,-67.2,0,-67.2,42.7c0,42.8,38.2,42.8,59.6,42.8l1153.5,0c21.3,0,59.5,0,59.5,-42.8c0,-42.7,-44.3,-42.7,-67.2,-42.7ZM207.8,521c-19.9,0,-59.6,0,-59.6,42.8c0,42.7,44.3,42.7,67.2,42.7l1138.2,0c22.9,0,67.2,0,67.2,-42.7c0,-42.8,-38.2,-42.8,-59.5,-42.8Z" 
	id="f8_9"
	transform="scale(0.001,-0.001)" />

	<path d="M64.2,270.4l0,117.7l507.2,0l0,-117.7Z" 
	id="f8_1"
	transform="scale(0.001,-0.001)" />

	<path d="M521,29c135.9,0,290.3,53.5,290.3,177.3c0,82.5,-78,123.7,-133,152.7L441.5,479.7C392.6,458.3,227.6,388.1,227.6,236.8C227.6,97.8,381.9,29,521,29Zm71.8,557.7c1.5,0,175.7,62.6,175.7,197.1c0,116.1,-128.4,175.6,-250.6,175.6c-122.2,0,-247.5,-44.3,-247.5,-142c0,-36.7,19.9,-76.4,85.6,-110L576,594.3c13.7,-7.6,15.3,-7.6,16.8,-7.6ZM517.9,-33.5c-192.5,0,-395.7,85.4,-395.7,268.8c0,125.3,91.7,215.4,253.6,278C296.4,554.6,175.7,617.2,175.7,757.8c0,152.8,155.8,259.7,345.3,259.7c166.5,0,342.2,-73.3,342.2,-232.2c0,-87.1,-50.4,-168.1,-207.8,-233.8C757.8,505.7,916.7,427.8,916.7,261.3C916.7,81,731.8,-33.5,517.9,-33.5Z" 
	id="f8_8"
	transform="scale(0.001,-0.001)" />


</defs>

<!-- Any embedded fonts defined here -->
<style type="text/css" ><![CDATA[

@font-face {
	font-family: CMR5_11;
	src: url("fonts/CMR5_11.woff") format("woff");
}

@font-face {
	font-family: CMMI10_w;
	src: url("fonts/CMMI10_w.woff") format("woff");
}

@font-face {
	font-family: CMMI9_-;
	src: url("fonts/CMMI9_-.woff") format("woff");
}

@font-face {
	font-family: CMR6_10;
	src: url("fonts/CMR6_10.woff") format("woff");
}

@font-face {
	font-family: CMSY10_x;
	src: url("fonts/CMSY10_x.woff") format("woff");
}

@font-face {
	font-family: CMSY9__;
	src: url("fonts/CMSY9__.woff") format("woff");
}

@font-face {
	font-family: CMR9_z;
	src: url("fonts/CMR9_z.woff") format("woff");
}

@font-face {
	font-family: CMR7_y;
	src: url("fonts/CMR7_y.woff") format("woff");
}

@font-face {
	font-family: CMR10_v;
	src: url("fonts/CMR10_v.woff") format("woff");
}

]]></style>

</svg>
