<?xml version="1.0" encoding="UTF-8" standalone="no"?>
<!DOCTYPE svg PUBLIC "-//W3C//DTD SVG 1.1//EN"
"http://www.w3.org/Graphics/SVG/1.1/DTD/svg11.dtd">


<!-- Page 1 -->
<svg x="0" y="0" width="918" height="695" viewBox="0 0 918 695" version="1.1" xmlns="http://www.w3.org/2000/svg" xmlns:xlink="http://www.w3.org/1999/xlink"
style="display: block;margin-left: auto;margin-right: auto;">
<defs>

<style type="text/css"><![CDATA[

.g1_1{
fill: #F9F8EB;
}
.g2_1{
fill: #D8D8D8;
}
.g3_1{
fill: none;
stroke: #B2B2B2;
stroke-width: 1.8265041;
stroke-linecap: butt;
stroke-linejoin: miter;
}
.g4_1{
fill: #B2B2B2;
}
.g5_1{
fill: #D8D8D8;
stroke: #D8D8D8;
stroke-width: 1.8265041;
stroke-linecap: butt;
stroke-linejoin: miter;
}
.g6_1{
fill: none;
stroke: #D8D8D8;
stroke-width: 1.8265041;
stroke-linecap: butt;
stroke-linejoin: miter;
}

.s1_1{
font-size: 15.22px;
font-family: CMR10_v;
fill: #191919;
}
.s2_1{
font-size: 10.65px;
font-family: CMR7_w;
fill: #191919;
}
.s3_1{
font-size: 31.57px;
font-family: CMR17_x;
fill: #191919;
}
.s4_1{
font-size: 10.65px;
font-family: CMR7_w;
fill: #000000;
}
.s5_1{
font-size: 15.22px;
font-family: CMSY10_y;
fill: #191919;
}

]]></style>

</defs>
<path d="M0,0
L0,695
L918,695
L918,0 Z " 
fill="#FFFFFF" stroke="none" />
<path d="M0,695.6l922.1,0l0,-698.1L0,-2.5L0,695.6Z" class="g1_1" />
<path d="M136.1,66.3l-31.2,0c-3.3,0,-6.1,2.7,-6.1,6.1l0,31.1c0,3.4,2.8,6.1,6.1,6.1l31.2,0c3.3,0,6.1,-2.7,6.1,-6.1l0,-31.1c0,-3.4,-2.8,-6.1,-6.1,-6.1Z" class="g2_1" />
<text 
x="107" 
y="84" 
dx="0,0" 
class="s1_1"
>Gc</text>

<text 
x="126" 
y="86" 
dx="0" 
class="s2_1"
>1</text>

<text 
x="109" 
y="102" 
dx="0,0,0" 
class="s1_1"
>108</text>

<path d="M136.1,131.3l-31.2,0c-3.3,0,-6.1,2.7,-6.1,6.1l0,31.1c0,3.4,2.8,6.1,6.1,6.1l31.2,0c3.3,0,6.1,-2.7,6.1,-6.1l0,-31.1c0,-3.4,-2.8,-6.1,-6.1,-6.1Z" class="g2_1" />
<text 
x="107" 
y="148" 
dx="0,0" 
class="s1_1"
>Gc</text>

<text 
x="126" 
y="151" 
dx="0" 
class="s2_1"
>2</text>

<text 
x="109" 
y="167" 
dx="0,0,0" 
class="s1_1"
>125</text>

<path d="M136.1,196.2l-31.2,0c-3.3,0,-6.1,2.8,-6.1,6.1l0,31.2c0,3.3,2.8,6,6.1,6l31.2,0c3.3,0,6.1,-2.7,6.1,-6l0,-31.2c0,-3.3,-2.8,-6.1,-6.1,-6.1Z" class="g2_1" />
<text 
x="107" 
y="213" 
dx="0,0" 
class="s1_1"
>Gc</text>

<text 
x="126" 
y="216" 
dx="0" 
class="s2_1"
>3</text>

<text 
x="109" 
y="232" 
dx="0,0,0" 
class="s1_1"
>123</text>

<path d="M136.1,261.2l-31.2,0c-3.3,0,-6.1,2.7,-6.1,6.1l0,31.1c0,3.4,2.8,6.1,6.1,6.1l31.2,0c3.3,0,6.1,-2.7,6.1,-6.1l0,-31.1c0,-3.4,-2.8,-6.1,-6.1,-6.1Z" class="g2_1" />
<text 
x="108" 
y="278" 
dx="0,0" 
class="s1_1"
>Gf</text>

<text 
x="125" 
y="281" 
dx="0" 
class="s2_1"
>1</text>

<text 
x="109" 
y="297" 
dx="0,0,0" 
class="s1_1"
>100</text>

<path d="M136.1,326.2l-31.2,0c-3.3,0,-6.1,2.7,-6.1,6l0,31.2c0,3.3,2.8,6.1,6.1,6.1l31.2,0c3.3,0,6.1,-2.8,6.1,-6.1l0,-31.2c0,-3.3,-2.8,-6,-6.1,-6Z" class="g2_1" />
<text 
x="108" 
y="343" 
dx="0,0" 
class="s1_1"
>Gf</text>

<text 
x="125" 
y="346" 
dx="0" 
class="s2_1"
>2</text>

<text 
x="109" 
y="362" 
dx="0,0,0" 
class="s1_1"
>110</text>

<path d="M136.1,391.1l-31.2,0c-3.3,0,-6.1,2.7,-6.1,6.1l0,31.1c0,3.4,2.8,6.1,6.1,6.1l31.2,0c3.3,0,6.1,-2.7,6.1,-6.1l0,-31.1c0,-3.4,-2.8,-6.1,-6.1,-6.1Z" class="g2_1" />
<text 
x="108" 
y="408" 
dx="0,0" 
class="s1_1"
>Gf</text>

<text 
x="125" 
y="411" 
dx="0" 
class="s2_1"
>3</text>

<text 
x="109" 
y="427" 
dx="0,0,0" 
class="s1_1"
>103</text>

<path d="M136.1,456.1l-31.2,0c-3.3,0,-6.1,2.7,-6.1,6.1l0,31.1c0,3.4,2.8,6.1,6.1,6.1l31.2,0c3.3,0,6.1,-2.7,6.1,-6.1l0,-31.1c0,-3.4,-2.8,-6.1,-6.1,-6.1Z" class="g2_1" />
<text 
x="108" 
y="473" 
dx="0,0" 
class="s1_1"
>Gs</text>

<text 
x="126" 
y="476" 
dx="0" 
class="s2_1"
>1</text>

<text 
x="112" 
y="492" 
dx="0,0" 
class="s1_1"
>89</text>

<path d="M136.1,521l-31.2,0c-3.3,0,-6.1,2.8,-6.1,6.1l0,31.2c0,3.3,2.8,6.1,6.1,6.1l31.2,0c3.3,0,6.1,-2.8,6.1,-6.1l0,-31.2c0,-3.3,-2.8,-6.1,-6.1,-6.1Z" class="g2_1" />
<text 
x="108" 
y="538" 
dx="0,0" 
class="s1_1"
>Gs</text>

<text 
x="126" 
y="541" 
dx="0" 
class="s2_1"
>2</text>

<text 
x="112" 
y="557" 
dx="0,0" 
class="s1_1"
>85</text>

<path d="M136.1,586l-31.2,0c-3.3,0,-6.1,2.7,-6.1,6.1l0,31.1c0,3.4,2.8,6.1,6.1,6.1l31.2,0c3.3,0,6.1,-2.7,6.1,-6.1l0,-31.1c0,-3.4,-2.8,-6.1,-6.1,-6.1Z" class="g2_1" />
<text 
x="108" 
y="603" 
dx="0,0" 
class="s1_1"
>Gs</text>

<text 
x="126" 
y="606" 
dx="0" 
class="s2_1"
>3</text>

<text 
x="112" 
y="621" 
dx="0,0" 
class="s1_1"
>95</text>

<path d="M329,152.9C329,119.4,301.8,92.3,268.4,92.3c-33.5,0,-60.7,27.1,-60.7,60.6c0,33.5,27.2,60.7,60.7,60.7c33.4,0,60.6,-27.2,60.6,-60.7Z" class="g2_1" />
<text 
x="250" 
y="144" 
dx="0,0" 
class="s3_1"
>Gc</text>

<text 
x="246" 
y="182" 
dx="0,0,0" 
class="s3_1"
>119</text>

<path d="M329,347.8c0,-33.5,-27.2,-60.6,-60.6,-60.6c-33.5,0,-60.7,27.1,-60.7,60.6c0,33.5,27.2,60.6,60.7,60.6c33.4,0,60.6,-27.1,60.6,-60.6Z" class="g2_1" />
<text 
x="252" 
y="339" 
dx="0,0" 
class="s3_1"
>Gf</text>

<text 
x="246" 
y="377" 
dx="0,0,0" 
class="s3_1"
>101</text>

<path d="M329,542.7c0,-33.5,-27.2,-60.6,-60.6,-60.6c-33.5,0,-60.7,27.1,-60.7,60.6c0,33.5,27.2,60.6,60.7,60.6c33.4,0,60.6,-27.1,60.6,-60.6Z" class="g2_1" />
<text 
x="251" 
y="534" 
dx="0,0" 
class="s3_1"
>Gs</text>

<text 
x="253" 
y="572" 
dx="0,0" 
class="s3_1"
>90</text>

<path d="M206.8,125.9L153.4,102.4" class="g3_1" />
<path d="M148.1,100.1c2,1.4,5.6,4.1,7.4,7.3c-1.1,-3.5,-0.3,-5.3,3,-6.8c-3.6,0.9,-8,0,-10.4,-0.5Z" class="g4_1" />
<path d="M187.7,113.7c0,-4.7,-3.8,-8.5,-8.5,-8.5c-4.7,0,-8.5,3.8,-8.5,8.5c0,4.7,3.8,8.5,8.5,8.5c4.7,0,8.5,-3.8,8.5,-8.5Z" class="g1_1" />
<text 
x="171" 
y="117" 
dx="0,0,0" 
class="s4_1"
>.87</text>

<path d="M201.3,152.9l-46.9,0" class="g3_1" />
<path d="M148.6,152.9c2.4,0.5,6.8,1.5,9.7,3.7c-2.4,-2.7,-2.4,-4.6,0,-7.3c-2.9,2.2,-7.3,3.1,-9.7,3.6Z" class="g4_1" />
<path d="M185.1,152.9c0,-4.7,-3.8,-8.5,-8.5,-8.5c-4.7,0,-8.5,3.8,-8.5,8.5c0,4.7,3.8,8.5,8.5,8.5c4.7,0,8.5,-3.8,8.5,-8.5Z" class="g1_1" />
<text 
x="168" 
y="156" 
dx="0,0,0" 
class="s4_1"
>.89</text>

<path d="M206.8,180l-53.4,23.4" class="g3_1" />
<path d="M148.1,205.8c2.4,-0.5,6.8,-1.4,10.4,-0.6c-3.3,-1.5,-4.1,-3.3,-3,-6.7c-1.8,3.2,-5.4,5.9,-7.4,7.3Z" class="g4_1" />
<path d="M187.7,192.1c0,-4.7,-3.8,-8.5,-8.5,-8.5c-4.7,0,-8.5,3.8,-8.5,8.5c0,4.7,3.8,8.5,8.5,8.5c4.7,0,8.5,-3.8,8.5,-8.5Z" class="g1_1" />
<text 
x="171" 
y="195" 
dx="0,0,0" 
class="s4_1"
>.90</text>

<path d="M206.8,320.8L153.4,297.3" class="g3_1" />
<path d="M148.1,294.9c2,1.5,5.6,4.1,7.4,7.3c-1.1,-3.4,-0.3,-5.2,3,-6.7c-3.6,0.9,-8,0,-10.4,-0.6Z" class="g4_1" />
<path d="M187.7,308.6c0,-4.7,-3.8,-8.5,-8.5,-8.5c-4.7,0,-8.5,3.8,-8.5,8.5c0,4.7,3.8,8.5,8.5,8.5c4.7,0,8.5,-3.8,8.5,-8.5Z" class="g1_1" />
<text 
x="171" 
y="312" 
dx="0,0,0" 
class="s4_1"
>.79</text>

<path d="M201.3,347.8l-46.9,0" class="g3_1" />
<path d="M148.6,347.8c2.4,0.5,6.8,1.5,9.7,3.7c-2.4,-2.7,-2.4,-4.7,0,-7.3c-2.9,2.2,-7.3,3.1,-9.7,3.6Z" class="g4_1" />
<path d="M185.1,347.8c0,-4.7,-3.8,-8.5,-8.5,-8.5c-4.7,0,-8.5,3.8,-8.5,8.5c0,4.7,3.8,8.5,8.5,8.5c4.7,0,8.5,-3.8,8.5,-8.5Z" class="g1_1" />
<text 
x="168" 
y="351" 
dx="0,0,0" 
class="s4_1"
>.89</text>

<path d="M206.8,374.9l-53.4,23.4" class="g3_1" />
<path d="M148.1,400.7c2.4,-0.6,6.8,-1.4,10.4,-0.6c-3.3,-1.5,-4.1,-3.3,-3,-6.7c-1.8,3.2,-5.4,5.8,-7.4,7.3Z" class="g4_1" />
<path d="M187.7,387c0,-4.7,-3.8,-8.5,-8.5,-8.5c-4.7,0,-8.5,3.8,-8.5,8.5c0,4.7,3.8,8.5,8.5,8.5c4.7,0,8.5,-3.8,8.5,-8.5Z" class="g1_1" />
<text 
x="171" 
y="390" 
dx="0,0,0" 
class="s4_1"
>.85</text>

<path d="M206.8,515.6L153.4,492.2" class="g3_1" />
<path d="M148.1,489.8c2,1.5,5.6,4.1,7.4,7.3c-1.1,-3.4,-0.3,-5.2,3,-6.7c-3.6,0.8,-8,0,-10.4,-0.6Z" class="g4_1" />
<path d="M187.7,503.5c0,-4.7,-3.8,-8.5,-8.5,-8.5c-4.7,0,-8.5,3.8,-8.5,8.5c0,4.7,3.8,8.5,8.5,8.5c4.7,0,8.5,-3.8,8.5,-8.5Z" class="g1_1" />
<text 
x="171" 
y="506" 
dx="0,0,0" 
class="s4_1"
>.84</text>

<path d="M201.3,542.7l-46.9,0" class="g3_1" />
<path d="M148.6,542.7c2.4,0.5,6.8,1.5,9.7,3.6c-2.4,-2.6,-2.4,-4.6,0,-7.3c-2.9,2.2,-7.3,3.2,-9.7,3.7Z" class="g4_1" />
<path d="M185.1,542.7c0,-4.7,-3.8,-8.5,-8.5,-8.5c-4.7,0,-8.5,3.8,-8.5,8.5c0,4.7,3.8,8.5,8.5,8.5c4.7,0,8.5,-3.8,8.5,-8.5Z" class="g1_1" />
<text 
x="168" 
y="546" 
dx="0,0,0" 
class="s4_1"
>.86</text>

<path d="M206.8,569.8l-53.4,23.4" class="g3_1" />
<path d="M148.1,595.6c2.4,-0.6,6.8,-1.4,10.4,-0.6c-3.3,-1.5,-4.1,-3.3,-3,-6.7c-1.8,3.2,-5.4,5.8,-7.4,7.3Z" class="g4_1" />
<path d="M187.7,581.9c0,-4.7,-3.8,-8.5,-8.5,-8.5c-4.7,0,-8.5,3.8,-8.5,8.5c0,4.7,3.8,8.5,8.5,8.5c4.7,0,8.5,-3.8,8.5,-8.5Z" class="g1_1" />
<text 
x="171" 
y="585" 
dx="0,0,0" 
class="s4_1"
>.90</text>

<path d="M54.9,88C54.9,76,45.2,66.3,33.3,66.3C21.3,66.3,11.6,76,11.6,88c0,11.9,9.7,21.6,21.7,21.6c11.9,0,21.6,-9.7,21.6,-21.6Z" class="g2_1" />
<path d="M61.3,88l25.3,0" class="g5_1" />
<path d="M92.5,88C90,87.5,85.6,86.5,82.7,84.3c2.5,2.7,2.5,4.6,0,7.3C85.6,89.4,90,88.5,92.5,88Z" class="g2_1" />
<path d="M54.9,152.9C54.9,141,45.2,131.3,33.3,131.3c-12,0,-21.7,9.7,-21.7,21.6c0,12,9.7,21.7,21.7,21.7c11.9,0,21.6,-9.7,21.6,-21.7Z" class="g2_1" />
<path d="M61.3,152.9l25.3,0" class="g5_1" />
<path d="M92.5,152.9c-2.5,-0.5,-6.9,-1.4,-9.8,-3.6c2.5,2.7,2.5,4.6,0,7.3c2.9,-2.2,7.3,-3.2,9.8,-3.7Z" class="g2_1" />
<path d="M54.9,217.9c0,-12,-9.7,-21.7,-21.6,-21.7c-12,0,-21.7,9.7,-21.7,21.7c0,11.9,9.7,21.6,21.7,21.6c11.9,0,21.6,-9.7,21.6,-21.6Z" class="g2_1" />
<path d="M61.3,217.9l25.3,0" class="g5_1" />
<path d="M92.5,217.9c-2.5,-0.5,-6.9,-1.5,-9.8,-3.7c2.5,2.7,2.5,4.7,0,7.3c2.9,-2.1,7.3,-3.1,9.8,-3.6Z" class="g2_1" />
<path d="M54.9,282.9c0,-12,-9.7,-21.7,-21.6,-21.7c-12,0,-21.7,9.7,-21.7,21.7c0,11.9,9.7,21.6,21.7,21.6c11.9,0,21.6,-9.7,21.6,-21.6Z" class="g2_1" />
<path d="M61.3,282.9l25.3,0" class="g5_1" />
<path d="M92.5,282.9c-2.5,-0.5,-6.9,-1.5,-9.8,-3.7c2.5,2.7,2.5,4.6,0,7.3c2.9,-2.2,7.3,-3.2,9.8,-3.6Z" class="g2_1" />
<path d="M54.9,347.8c0,-11.9,-9.7,-21.6,-21.6,-21.6c-12,0,-21.7,9.7,-21.7,21.6c0,12,9.7,21.7,21.7,21.7c11.9,0,21.6,-9.7,21.6,-21.7Z" class="g2_1" />
<path d="M61.3,347.8l25.3,0" class="g5_1" />
<path d="M92.5,347.8c-2.5,-0.5,-6.9,-1.4,-9.8,-3.6c2.5,2.6,2.5,4.6,0,7.3c2.9,-2.2,7.3,-3.2,9.8,-3.7Z" class="g2_1" />
<path d="M54.9,412.8c0,-12,-9.7,-21.7,-21.6,-21.7c-12,0,-21.7,9.7,-21.7,21.7c0,11.9,9.7,21.6,21.7,21.6c11.9,0,21.6,-9.7,21.6,-21.6Z" class="g2_1" />
<path d="M61.3,412.8l25.3,0" class="g5_1" />
<path d="M92.5,412.8c-2.5,-0.5,-6.9,-1.5,-9.8,-3.7c2.5,2.7,2.5,4.6,0,7.3c2.9,-2.2,7.3,-3.1,9.8,-3.6Z" class="g2_1" />
<path d="M54.9,477.7c0,-11.9,-9.7,-21.6,-21.6,-21.6c-12,0,-21.7,9.7,-21.7,21.6c0,12,9.7,21.7,21.7,21.7c11.9,0,21.6,-9.7,21.6,-21.7Z" class="g2_1" />
<path d="M61.3,477.7l25.3,0" class="g5_1" />
<path d="M92.5,477.7c-2.5,-0.5,-6.9,-1.4,-9.8,-3.6c2.5,2.7,2.5,4.6,0,7.3c2.9,-2.2,7.3,-3.2,9.8,-3.7Z" class="g2_1" />
<path d="M54.9,542.7C54.9,530.7,45.2,521,33.3,521c-12,0,-21.7,9.7,-21.7,21.7c0,12,9.7,21.7,21.7,21.7c11.9,0,21.6,-9.7,21.6,-21.7Z" class="g2_1" />
<path d="M61.3,542.7l25.3,0" class="g5_1" />
<path d="M92.5,542.7C90,542.2,85.6,541.2,82.7,539c2.5,2.7,2.5,4.7,0,7.3c2.9,-2.1,7.3,-3.1,9.8,-3.6Z" class="g2_1" />
<path d="M54.9,607.7C54.9,595.7,45.2,586,33.3,586c-12,0,-21.7,9.7,-21.7,21.7c0,11.9,9.7,21.6,21.7,21.6c11.9,0,21.6,-9.7,21.6,-21.6Z" class="g2_1" />
<path d="M61.3,607.7l25.3,0" class="g5_1" />
<path d="M92.5,607.7C90,607.2,85.6,606.2,82.7,604c2.5,2.7,2.5,4.6,0,7.3c2.9,-2.2,7.3,-3.2,9.8,-3.6Z" class="g2_1" />
<path d="M559.1,152.9C559.1,119.4,532,92.3,498.5,92.3c-33.5,0,-60.6,27.1,-60.6,60.6c0,33.5,27.1,60.7,60.6,60.7c33.5,0,60.6,-27.2,60.6,-60.7Z" class="g4_1" />
<text 
x="471" 
y="139" 
dx="0,0,0,0,0,0,0" 
class="s1_1"
>Reading</text>

<text 
x="467" 
y="158" 
dx="0,0,0,0,0.4,0,0,0" 
class="s1_1"
>Decoding</text>

<text 
x="487" 
y="176" 
dx="0,0,0" 
class="s1_1"
>100</text>

<path d="M711,347.8c0,-34.7,-28.2,-62.9,-63,-62.9c-34.7,0,-62.9,28.2,-62.9,62.9c0,34.8,28.2,62.9,62.9,62.9c34.8,0,63,-28.1,63,-62.9Z" class="g4_1" />
<text 
x="620" 
y="334" 
dx="0,0,0,0,0,0,0" 
class="s1_1"
>Reading</text>

<text 
x="596" 
y="353" 
dx="0,0,0,0,0,0,0,0,0,0,0,0,0" 
class="s1_1"
>Comprehension</text>

<text 
x="636" 
y="371" 
dx="0,0,0" 
class="s1_1"
>105</text>

<path d="M559.1,542.7c0,-33.5,-27.1,-60.6,-60.6,-60.6c-33.5,0,-60.6,27.1,-60.6,60.6c0,33.5,27.1,60.6,60.6,60.6c33.5,0,60.6,-27.1,60.6,-60.6Z" class="g4_1" />
<text 
x="471" 
y="529" 
dx="0,0,0,0,0,0,0" 
class="s1_1"
>Reading</text>

<text 
x="472" 
y="547" 
dx="0,0,0,0,0,0,0" 
class="s1_1"
>Fluency</text>

<text 
x="490" 
y="566" 
dx="0,0" 
class="s1_1"
>77</text>

<path d="M661.9,131.3l-31.1,0c-3.4,0,-6.1,2.7,-6.1,6.1l0,31.1c0,3.4,2.7,6.1,6.1,6.1l31.1,0c3.4,0,6.1,-2.7,6.1,-6.1l0,-31.1c0,-3.4,-2.7,-6.1,-6.1,-6.1Z" class="g4_1" />
<text 
x="631" 
y="156" 
dx="0,0" 
class="s1_1"
>RD</text>

<text 
x="654" 
y="159" 
dx="0" 
class="s2_1"
>2</text>

<path d="M661.9,65.7l-31.1,0c-3.4,0,-6.1,2.7,-6.1,6.1l0,31.1c0,3.4,2.7,6.1,6.1,6.1l31.1,0c3.4,0,6.1,-2.7,6.1,-6.1l0,-31.1c0,-3.4,-2.7,-6.1,-6.1,-6.1Z" class="g4_1" />
<text 
x="631" 
y="91" 
dx="0,0" 
class="s1_1"
>RD</text>

<text 
x="654" 
y="93" 
dx="0" 
class="s2_1"
>1</text>

<path d="M661.9,196.8l-31.1,0c-3.4,0,-6.1,2.8,-6.1,6.1l0,31.2c0,3.3,2.7,6.1,6.1,6.1l31.1,0c3.4,0,6.1,-2.8,6.1,-6.1l0,-31.2c0,-3.3,-2.7,-6.1,-6.1,-6.1Z" class="g4_1" />
<text 
x="631" 
y="222" 
dx="0,0" 
class="s1_1"
>RD</text>

<text 
x="654" 
y="224" 
dx="0" 
class="s2_1"
>3</text>

<path d="M813.8,326.2l-31.2,0c-3.3,0,-6.1,2.7,-6.1,6l0,31.2c0,3.3,2.8,6.1,6.1,6.1l31.2,0c3.3,0,6.1,-2.8,6.1,-6.1l0,-31.2c0,-3.3,-2.8,-6,-6.1,-6Z" class="g4_1" />
<text 
x="783" 
y="351" 
dx="0,-0.4" 
class="s1_1"
>RC</text>

<text 
x="805" 
y="354" 
dx="0" 
class="s2_1"
>2</text>

<path d="M813.8,260.6l-31.2,0c-3.3,0,-6.1,2.7,-6.1,6.1l0,31.1c0,3.4,2.8,6.1,6.1,6.1l31.2,0c3.3,0,6.1,-2.7,6.1,-6.1l0,-31.1c0,-3.4,-2.8,-6.1,-6.1,-6.1Z" class="g4_1" />
<text 
x="783" 
y="286" 
dx="0,-0.4" 
class="s1_1"
>RC</text>

<text 
x="805" 
y="288" 
dx="0" 
class="s2_1"
>1</text>

<path d="M813.8,391.7l-31.2,0c-3.3,0,-6.1,2.8,-6.1,6.1l0,31.1c0,3.4,2.8,6.1,6.1,6.1l31.2,0c3.3,0,6.1,-2.7,6.1,-6.1l0,-31.1c0,-3.3,-2.8,-6.1,-6.1,-6.1Z" class="g4_1" />
<text 
x="783" 
y="417" 
dx="0,-0.4" 
class="s1_1"
>RC</text>

<text 
x="805" 
y="419" 
dx="0" 
class="s2_1"
>3</text>

<path d="M661.9,521l-31.1,0c-3.4,0,-6.1,2.8,-6.1,6.1l0,31.2c0,3.3,2.7,6.1,6.1,6.1l31.1,0c3.4,0,6.1,-2.8,6.1,-6.1l0,-31.2c0,-3.3,-2.7,-6.1,-6.1,-6.1Z" class="g4_1" />
<text 
x="632" 
y="546" 
dx="0,0" 
class="s1_1"
>RF</text>

<text 
x="653" 
y="549" 
dx="0" 
class="s2_1"
>2</text>

<path d="M661.9,455.5l-31.1,0c-3.4,0,-6.1,2.7,-6.1,6.1l0,31.1c0,3.4,2.7,6.1,6.1,6.1l31.1,0c3.4,0,6.1,-2.7,6.1,-6.1l0,-31.1c0,-3.4,-2.7,-6.1,-6.1,-6.1Z" class="g4_1" />
<text 
x="632" 
y="481" 
dx="0,0" 
class="s1_1"
>RF</text>

<text 
x="653" 
y="483" 
dx="0" 
class="s2_1"
>1</text>

<path d="M661.9,586.6l-31.1,0c-3.4,0,-6.1,2.7,-6.1,6.1l0,31.1c0,3.4,2.7,6.1,6.1,6.1l31.1,0c3.4,0,6.1,-2.7,6.1,-6.1l0,-31.1c0,-3.4,-2.7,-6.1,-6.1,-6.1Z" class="g4_1" />
<text 
x="632" 
y="612" 
dx="0,0" 
class="s1_1"
>RF</text>

<text 
x="653" 
y="614" 
dx="0" 
class="s2_1"
>3</text>

<path d="M661.9,131.3l-31.1,0c-3.4,0,-6.1,2.7,-6.1,6.1l0,31.1c0,3.4,2.7,6.1,6.1,6.1l31.1,0c3.4,0,6.1,-2.7,6.1,-6.1l0,-31.1c0,-3.4,-2.7,-6.1,-6.1,-6.1Z" class="g4_1" />
<text 
x="631" 
y="148" 
dx="0,0" 
class="s1_1"
>RD</text>

<text 
x="654" 
y="151" 
dx="0" 
class="s2_1"
>2</text>

<text 
x="634" 
y="167" 
dx="0,0,0" 
class="s1_1"
>103</text>

<path d="M661.9,65.7l-31.1,0c-3.4,0,-6.1,2.7,-6.1,6.1l0,31.1c0,3.4,2.7,6.1,6.1,6.1l31.1,0c3.4,0,6.1,-2.7,6.1,-6.1l0,-31.1c0,-3.4,-2.7,-6.1,-6.1,-6.1Z" class="g4_1" />
<text 
x="631" 
y="83" 
dx="0,0" 
class="s1_1"
>RD</text>

<text 
x="654" 
y="85" 
dx="0" 
class="s2_1"
>1</text>

<text 
x="638" 
y="101" 
dx="0,0" 
class="s1_1"
>99</text>

<path d="M661.9,196.8l-31.1,0c-3.4,0,-6.1,2.8,-6.1,6.1l0,31.2c0,3.3,2.7,6.1,6.1,6.1l31.1,0c3.4,0,6.1,-2.8,6.1,-6.1l0,-31.2c0,-3.3,-2.7,-6.1,-6.1,-6.1Z" class="g4_1" />
<text 
x="631" 
y="214" 
dx="0,0" 
class="s1_1"
>RD</text>

<text 
x="654" 
y="216" 
dx="0" 
class="s2_1"
>3</text>

<text 
x="634" 
y="232" 
dx="0,0,0" 
class="s1_1"
>101</text>

<path d="M813.8,326.2l-31.2,0c-3.3,0,-6.1,2.7,-6.1,6l0,31.2c0,3.3,2.8,6.1,6.1,6.1l31.2,0c3.3,0,6.1,-2.8,6.1,-6.1l0,-31.2c0,-3.3,-2.8,-6,-6.1,-6Z" class="g4_1" />
<text 
x="783" 
y="343" 
dx="0,-0.4" 
class="s1_1"
>RC</text>

<text 
x="805" 
y="346" 
dx="0" 
class="s2_1"
>2</text>

<text 
x="786" 
y="362" 
dx="0,0,0" 
class="s1_1"
>103</text>

<path d="M813.8,260.6l-31.2,0c-3.3,0,-6.1,2.7,-6.1,6.1l0,31.1c0,3.4,2.8,6.1,6.1,6.1l31.2,0c3.3,0,6.1,-2.7,6.1,-6.1l0,-31.1c0,-3.4,-2.8,-6.1,-6.1,-6.1Z" class="g4_1" />
<text 
x="783" 
y="278" 
dx="0,0" 
class="s1_1"
>RD</text>

<text 
x="806" 
y="280" 
dx="0" 
class="s2_1"
>1</text>

<text 
x="786" 
y="296" 
dx="0,0,0" 
class="s1_1"
>107</text>

<path d="M813.8,391.7l-31.2,0c-3.3,0,-6.1,2.8,-6.1,6.1l0,31.1c0,3.4,2.8,6.1,6.1,6.1l31.2,0c3.3,0,6.1,-2.7,6.1,-6.1l0,-31.1c0,-3.3,-2.8,-6.1,-6.1,-6.1Z" class="g4_1" />
<text 
x="783" 
y="409" 
dx="0,0" 
class="s1_1"
>RD</text>

<text 
x="806" 
y="411" 
dx="0" 
class="s2_1"
>3</text>

<text 
x="790" 
y="427" 
dx="0,0" 
class="s1_1"
>98</text>

<path d="M661.9,521l-31.1,0c-3.4,0,-6.1,2.8,-6.1,6.1l0,31.2c0,3.3,2.7,6.1,6.1,6.1l31.1,0c3.4,0,6.1,-2.8,6.1,-6.1l0,-31.2c0,-3.3,-2.7,-6.1,-6.1,-6.1Z" class="g4_1" />
<text 
x="631" 
y="538" 
dx="0,0" 
class="s1_1"
>RD</text>

<text 
x="654" 
y="541" 
dx="0" 
class="s2_1"
>2</text>

<text 
x="638" 
y="557" 
dx="0,0" 
class="s1_1"
>78</text>

<path d="M661.9,455.5l-31.1,0c-3.4,0,-6.1,2.7,-6.1,6.1l0,31.1c0,3.4,2.7,6.1,6.1,6.1l31.1,0c3.4,0,6.1,-2.7,6.1,-6.1l0,-31.1c0,-3.4,-2.7,-6.1,-6.1,-6.1Z" class="g4_1" />
<text 
x="631" 
y="473" 
dx="0,0" 
class="s1_1"
>RD</text>

<text 
x="654" 
y="475" 
dx="0" 
class="s2_1"
>1</text>

<text 
x="638" 
y="491" 
dx="0,0" 
class="s1_1"
>85</text>

<path d="M661.9,586.6l-31.1,0c-3.4,0,-6.1,2.7,-6.1,6.1l0,31.1c0,3.4,2.7,6.1,6.1,6.1l31.1,0c3.4,0,6.1,-2.7,6.1,-6.1l0,-31.1c0,-3.4,-2.7,-6.1,-6.1,-6.1Z" class="g4_1" />
<text 
x="631" 
y="604" 
dx="0,0" 
class="s1_1"
>RD</text>

<text 
x="654" 
y="606" 
dx="0" 
class="s2_1"
>3</text>

<text 
x="638" 
y="622" 
dx="0,0" 
class="s1_1"
>73</text>

<path d="M598.1,26.7C598.1,14.8,588.4,5.1,576.5,5.1c-12,0,-21.7,9.7,-21.7,21.6c0,12,9.7,21.7,21.7,21.7c11.9,0,21.6,-9.7,21.6,-21.7Z" class="g4_1" />
<text 
x="562" 
y="30" 
dx="0,0,0" 
class="s1_1"
>+10</text>

<path d="M561.7,50.7l-24.8,40" class="g3_1" />
<path d="M533.8,95.7c1.7,-1.8,4.9,-5,8.3,-6.4C538.5,90,536.9,89,535.9,85.5c0.3,3.6,-1.2,7.9,-2.1,10.2Z" class="g4_1" />
<path d="M557.1,71.8c0,-4.7,-3.8,-8.5,-8.5,-8.5c-4.7,0,-8.5,3.8,-8.5,8.5c0,4.7,3.8,8.5,8.5,8.5c4.7,0,8.5,-3.8,8.5,-8.5Z" class="g1_1" />
<text 
x="540" 
y="75" 
dx="0,0,0" 
class="s4_1"
>.66</text>

<path d="M768.7,266.1c0,-11.9,-9.7,-21.6,-21.7,-21.6c-11.9,0,-21.6,9.7,-21.6,21.6c0,12,9.7,21.7,21.6,21.7c12,0,21.7,-9.7,21.7,-21.7Z" class="g4_1" />
<text 
x="733" 
y="270" 
dx="0,0,0" 
class="s1_1"
>+11</text>

<path d="M725.4,284l-19.2,15.9" class="g3_1" />
<path d="M701.7,303.6c2.1,-1.2,6.2,-3.2,9.8,-3.4c-3.6,-0.5,-4.8,-2,-4.6,-5.7c-0.9,3.6,-3.7,7.2,-5.2,9.1Z" class="g4_1" />
<path d="M722.8,293.1c0,-4.7,-3.8,-8.5,-8.5,-8.5c-4.7,0,-8.5,3.8,-8.5,8.5c0,4.7,3.8,8.5,8.5,8.5c4.7,0,8.5,-3.8,8.5,-8.5Z" class="g1_1" />
<text 
x="706" 
y="296" 
dx="0,0,0" 
class="s4_1"
>.76</text>

<path d="M212.1,452.4c0,-12,-9.7,-21.7,-21.7,-21.7c-12,0,-21.6,9.7,-21.6,21.7c0,11.9,9.6,21.6,21.6,21.6c12,0,21.7,-9.7,21.7,-21.6Z" class="g2_1" />
<text 
x="176" 
y="456" 
dx="0,0,0" 
class="s1_1"
>+10</text>

<path d="M207.2,429.8l17.5,-23.4" class="g6_1" />
<path d="M228.2,401.7c-1.9,1.7,-5.3,4.6,-8.8,5.6c3.6,-0.3,5.2,0.8,5.9,4.4c0,-3.7,1.8,-7.8,2.9,-10Z" class="g2_1" />
<path d="M225.5,416.7c0,-4.7,-3.8,-8.5,-8.5,-8.5c-4.7,0,-8.5,3.8,-8.5,8.5c0,4.7,3.8,8.5,8.5,8.5c4.7,0,8.5,-3.8,8.5,-8.5Z" class="g1_1" />
<text 
x="209" 
y="420" 
dx="0,0,0" 
class="s4_1"
>.83</text>

<path d="M368,26.7C368,14.8,358.3,5.1,346.3,5.1c-11.9,0,-21.6,9.7,-21.6,21.6c0,12,9.7,21.7,21.6,21.7c12,0,21.7,-9.7,21.7,-21.7Z" class="g2_1" />
<text 
x="336" 
y="30" 
dx="0" 
class="s5_1"
>-</text>

<text 
x="348" 
y="30" 
dx="0" 
class="s1_1"
>5</text>

<path d="M331.5,50.7l-24.7,40" class="g6_1" />
<path d="M303.7,95.7c1.7,-1.8,4.8,-5,8.3,-6.4C308.4,90,306.7,89,305.7,85.5c0.3,3.6,-1.1,7.9,-2,10.2Z" class="g2_1" />
<path d="M327,71.8c0,-4.7,-3.8,-8.5,-8.5,-8.5c-4.7,0,-8.5,3.8,-8.5,8.5c0,4.7,3.8,8.5,8.5,8.5c4.7,0,8.5,-3.8,8.5,-8.5Z" class="g1_1" />
<text 
x="310" 
y="75" 
dx="0,0,0" 
class="s4_1"
>.80</text>

<path d="M442.2,668.9c0,-12,-9.7,-21.7,-21.7,-21.7c-11.9,0,-21.6,9.7,-21.6,21.7c0,12,9.7,21.7,21.6,21.7c12,0,21.7,-9.7,21.7,-21.7Z" class="g4_1" />
<text 
x="407" 
y="673" 
dx="0" 
class="s5_1"
>-</text>

<text 
x="418" 
y="673" 
dx="0,0" 
class="s1_1"
>13</text>

<path d="M435.3,645l24.8,-40.1" class="g3_1" />
<path d="M463.2,599.9c-1.7,1.8,-4.9,5.1,-8.3,6.4c3.6,-0.7,5.2,0.4,6.2,3.9c-0.3,-3.7,1.2,-7.9,2.1,-10.3Z" class="g4_1" />
<path d="M456.9,623.8c0,-4.7,-3.8,-8.5,-8.5,-8.5c-4.7,0,-8.5,3.8,-8.5,8.5c0,4.7,3.8,8.5,8.5,8.5c4.7,0,8.5,-3.8,8.5,-8.5Z" class="g1_1" />
<text 
x="440" 
y="627" 
dx="0,0,0" 
class="s4_1"
>.70</text>

<path d="M268.4,280.8l0,-55" class="g6_1" />
<path d="M268.4,220c-0.5,2.4,-1.5,6.8,-3.7,9.7c2.7,-2.4,4.6,-2.4,7.3,0c-2.2,-2.9,-3.2,-7.3,-3.6,-9.7Z" class="g2_1" />
<path d="M276.8,252.2c0,-4.7,-3.8,-8.5,-8.4,-8.5c-4.7,0,-8.5,3.8,-8.5,8.5c0,4.7,3.8,8.5,8.5,8.5c4.6,0,8.4,-3.8,8.4,-8.5Z" class="g1_1" />
<text 
x="260" 
y="255" 
dx="0,0,0" 
class="s4_1"
>.30</text>

<path d="M268.4,475.7l0,-55" class="g6_1" />
<path d="M268.4,414.8c-0.5,2.5,-1.5,6.9,-3.7,9.8c2.7,-2.5,4.6,-2.5,7.3,0c-2.2,-2.9,-3.2,-7.3,-3.6,-9.8Z" class="g2_1" />
<path d="M276.8,447.1c0,-4.7,-3.8,-8.5,-8.4,-8.5c-4.7,0,-8.5,3.8,-8.5,8.5c0,4.7,3.8,8.5,8.5,8.5c4.6,0,8.4,-3.8,8.4,-8.5Z" class="g1_1" />
<text 
x="260" 
y="450" 
dx="0,0,0" 
class="s4_1"
>.19</text>

<path d="M335.4,152.9l90.2,0" class="g6_1" />
<path d="M431.5,152.9c-2.5,-0.5,-6.8,-1.4,-9.8,-3.6c2.5,2.7,2.5,4.6,0,7.3c3,-2.2,7.3,-3.2,9.8,-3.7Z" class="g2_1" />
<path d="M389.2,152.9c0,-4.7,-3.8,-8.5,-8.5,-8.5c-4.7,0,-8.5,3.8,-8.5,8.5c0,4.7,3.8,8.5,8.5,8.5c4.7,0,8.5,-3.8,8.5,-8.5Z" class="g1_1" />
<text 
x="372" 
y="156" 
dx="0,0,0" 
class="s4_1"
>.21</text>

<path d="M328.1,183.6l253,129.8" class="g6_1" />
<path d="M586.3,316.1c-2,-1.5,-5.4,-4.4,-7,-7.7c0.9,3.5,0,5.2,-3.4,6.5c3.6,-0.6,8,0.5,10.4,1.2Z" class="g2_1" />
<path d="M458.9,246.4c0,-4.7,-3.8,-8.5,-8.4,-8.5c-4.7,0,-8.5,3.8,-8.5,8.5c0,4.7,3.8,8.5,8.5,8.5c4.6,0,8.4,-3.8,8.4,-8.5Z" class="g1_1" />
<text 
x="442" 
y="249" 
dx="0,0,0" 
class="s4_1"
>.25</text>

<path d="M302.4,210.7l159,269.2" class="g6_1" />
<path d="M464.4,485c-0.8,-2.4,-2.2,-6.6,-1.8,-10.3c-1.1,3.5,-2.7,4.5,-6.3,3.7c3.4,1.4,6.5,4.7,8.1,6.6Z" class="g2_1" />
<path d="M375.1,319.3c0,-4.7,-3.8,-8.5,-8.5,-8.5c-4.7,0,-8.5,3.8,-8.5,8.5c0,4.7,3.8,8.5,8.5,8.5c4.7,0,8.5,-3.8,8.5,-8.5Z" class="g1_1" />
<text 
x="358" 
y="322" 
dx="0,0,0" 
class="s4_1"
>.33</text>

<path d="M335.4,347.8l237.5,0" class="g6_1" />
<path d="M578.7,347.8c-2.4,-0.5,-6.8,-1.4,-9.7,-3.6c2.4,2.6,2.4,4.6,0,7.3c2.9,-2.2,7.3,-3.2,9.7,-3.7Z" class="g2_1" />
<path d="M459.2,347.8c0,-4.7,-3.8,-8.5,-8.5,-8.5c-4.7,0,-8.5,3.8,-8.5,8.5c0,4.7,3.8,8.5,8.5,8.5c4.7,0,8.5,-3.8,8.5,-8.5Z" class="g1_1" />
<text 
x="442" 
y="351" 
dx="0,0,0" 
class="s4_1"
>.15</text>

<path d="M319.7,391.3l123,104.1" class="g6_1" />
<path d="M447.2,499.2c-1.6,-1.9,-4.3,-5.5,-5.1,-9.1c0.1,3.7,-1.1,5.1,-4.7,5.6c3.6,0.2,7.6,2.3,9.8,3.5Z" class="g2_1" />
<path d="M388.5,442.4c0,-4.7,-3.8,-8.5,-8.5,-8.5c-4.7,0,-8.5,3.8,-8.5,8.5c0,4.6,3.8,8.4,8.5,8.4c4.7,0,8.5,-3.8,8.5,-8.4Z" class="g1_1" />
<text 
x="372" 
y="445" 
dx="0,0,0" 
class="s4_1"
>.24</text>

<path d="M319.7,304.4l123,-104.2" class="g6_1" />
<path d="M447.2,196.4c-2.2,1.2,-6.2,3.3,-9.8,3.5c3.6,0.5,4.8,2,4.7,5.6c0.8,-3.6,3.5,-7.2,5.1,-9.1Z" class="g2_1" />
<path d="M388.5,253.3c0,-4.7,-3.8,-8.5,-8.5,-8.5c-4.7,0,-8.5,3.8,-8.5,8.5c0,4.7,3.8,8.5,8.5,8.5c4.7,0,8.5,-3.8,8.5,-8.5Z" class="g1_1" />
<text 
x="372" 
y="256" 
dx="0,0,0" 
class="s4_1"
>.46</text>

<path d="M335.4,542.7l90.2,0" class="g6_1" />
<path d="M431.5,542.7c-2.5,-0.5,-6.8,-1.5,-9.8,-3.7c2.5,2.7,2.5,4.7,0,7.3c3,-2.1,7.3,-3.1,9.8,-3.6Z" class="g2_1" />
<path d="M389.2,542.7c0,-4.7,-3.8,-8.5,-8.5,-8.5c-4.7,0,-8.5,3.8,-8.5,8.5c0,4.7,3.8,8.5,8.5,8.5c4.7,0,8.5,-3.8,8.5,-8.5Z" class="g1_1" />
<text 
x="372" 
y="546" 
dx="0,0,0" 
class="s4_1"
>.36</text>

<path d="M302.4,485l159,-269.3" class="g6_1" />
<path d="M464.4,210.7c-1.6,1.8,-4.7,5.1,-8.1,6.5c3.6,-0.7,5.2,0.2,6.3,3.7c-0.4,-3.6,1,-7.9,1.8,-10.2Z" class="g2_1" />
<path d="M375.1,376.3c0,-4.7,-3.8,-8.5,-8.5,-8.5c-4.7,0,-8.5,3.8,-8.5,8.5c0,4.7,3.8,8.5,8.5,8.5c4.7,0,8.5,-3.8,8.5,-8.5Z" class="g1_1" />
<text 
x="358" 
y="379" 
dx="0,0,0" 
class="s4_1"
>.26</text>

<path d="M328.1,512.1l253,-129.9" class="g6_1" />
<path d="M586.3,379.5c-2.4,0.7,-6.8,1.8,-10.4,1.2c3.4,1.3,4.3,3,3.4,6.5c1.6,-3.3,5,-6.1,7,-7.7Z" class="g2_1" />
<path d="M458.9,449.2c0,-4.7,-3.8,-8.5,-8.4,-8.5c-4.7,0,-8.5,3.8,-8.5,8.5c0,4.7,3.8,8.5,8.5,8.5c4.6,0,8.4,-3.8,8.4,-8.5Z" class="g1_1" />
<text 
x="442" 
y="452" 
dx="0,0,0" 
class="s4_1"
>.16</text>

<path d="M539.4,206.3L602.1,288" class="g3_1" />
<path d="M605.7,292.6c-1.1,-2.2,-3,-6.3,-3.1,-10c-0.6,3.6,-2.1,4.8,-5.8,4.5c3.6,1,7,3.9,8.9,5.5Z" class="g4_1" />
<path d="M579.2,247.1c0,-4.7,-3.8,-8.5,-8.5,-8.5c-4.7,0,-8.5,3.8,-8.5,8.5c0,4.6,3.8,8.4,8.5,8.4c4.7,0,8.5,-3.8,8.5,-8.4Z" class="g1_1" />
<text 
x="562" 
y="250" 
dx="0,0,0" 
class="s4_1"
>.66</text>

<path d="M539.4,489.3l62.7,-81.6" class="g3_1" />
<path d="M605.7,403c-1.9,1.6,-5.3,4.5,-8.9,5.5c3.7,-0.3,5.2,0.9,5.8,4.5c0.1,-3.7,2,-7.8,3.1,-10Z" class="g4_1" />
<path d="M579.2,448.6c0,-4.7,-3.8,-8.5,-8.5,-8.5c-4.7,0,-8.5,3.8,-8.5,8.5c0,4.7,3.8,8.5,8.5,8.5c4.7,0,8.5,-3.8,8.5,-8.5Z" class="g1_1" />
<text 
x="562" 
y="451" 
dx="0,0,0" 
class="s4_1"
>.68</text>

<path d="M498.5,220l0,249.8" class="g3_1" />
<path d="M498.5,475.7c0.5,-2.5,1.5,-6.8,3.7,-9.8c-2.7,2.5,-4.7,2.5,-7.4,0c2.2,3,3.2,7.3,3.7,9.8Z" class="g4_1" />
<path d="M507,321c0,-4.7,-3.8,-8.5,-8.5,-8.5c-4.7,0,-8.5,3.8,-8.5,8.5c0,4.7,3.8,8.5,8.5,8.5c4.7,0,8.5,-3.8,8.5,-8.5Z" class="g1_1" />
<text 
x="490" 
y="324" 
dx="0,0,0" 
class="s4_1"
>.70</text>

<path d="M755.2,87.4c0,-12,-9.7,-21.7,-21.6,-21.7c-12,0,-21.7,9.7,-21.7,21.7c0,11.9,9.7,21.6,21.7,21.6c11.9,0,21.6,-9.7,21.6,-21.6Z" class="g4_1" />
<path d="M705.5,87.4l-25.3,0" class="g3_1" />
<path d="M674.4,87.4c2.4,0.4,6.8,1.4,9.7,3.6c-2.4,-2.7,-2.4,-4.6,0,-7.3c-2.9,2.2,-7.3,3.2,-9.7,3.7Z" class="g4_1" />
<path d="M755.2,152.9c0,-11.9,-9.7,-21.6,-21.6,-21.6c-12,0,-21.7,9.7,-21.7,21.6c0,12,9.7,21.7,21.7,21.7c11.9,0,21.6,-9.7,21.6,-21.7Z" class="g4_1" />
<path d="M705.5,152.9l-25.3,0" class="g3_1" />
<path d="M674.4,152.9c2.4,0.5,6.8,1.5,9.7,3.7c-2.4,-2.7,-2.4,-4.6,0,-7.3c-2.9,2.2,-7.3,3.1,-9.7,3.6Z" class="g4_1" />
<path d="M755.2,218.5c0,-12,-9.7,-21.7,-21.6,-21.7c-12,0,-21.7,9.7,-21.7,21.7c0,12,9.7,21.7,21.7,21.7c11.9,0,21.6,-9.7,21.6,-21.7Z" class="g4_1" />
<path d="M705.5,218.5l-25.3,0" class="g3_1" />
<path d="M674.4,218.5c2.4,0.5,6.8,1.5,9.7,3.7c-2.4,-2.7,-2.4,-4.7,0,-7.4c-2.9,2.2,-7.3,3.2,-9.7,3.7Z" class="g4_1" />
<path d="M907.1,282.2c0,-11.9,-9.7,-21.6,-21.7,-21.6c-11.9,0,-21.6,9.7,-21.6,21.6c0,12,9.7,21.7,21.6,21.7c12,0,21.7,-9.7,21.7,-21.7Z" class="g4_1" />
<path d="M857.4,282.2l-25.3,0" class="g3_1" />
<path d="M826.2,282.2c2.5,0.5,6.9,1.5,9.8,3.7c-2.4,-2.7,-2.4,-4.6,0,-7.3c-2.9,2.2,-7.3,3.2,-9.8,3.6Z" class="g4_1" />
<path d="M907.1,347.8c0,-11.9,-9.7,-21.6,-21.7,-21.6c-11.9,0,-21.6,9.7,-21.6,21.6c0,12,9.7,21.7,21.6,21.7c12,0,21.7,-9.7,21.7,-21.7Z" class="g4_1" />
<path d="M857.4,347.8l-25.3,0" class="g3_1" />
<path d="M826.2,347.8c2.5,0.5,6.9,1.5,9.8,3.7c-2.4,-2.7,-2.4,-4.7,0,-7.3c-2.9,2.2,-7.3,3.1,-9.8,3.6Z" class="g4_1" />
<path d="M907.1,413.4c0,-12,-9.7,-21.7,-21.7,-21.7c-11.9,0,-21.6,9.7,-21.6,21.7c0,11.9,9.7,21.6,21.6,21.6c12,0,21.7,-9.7,21.7,-21.6Z" class="g4_1" />
<path d="M857.4,413.4l-25.3,0" class="g3_1" />
<path d="M826.2,413.4c2.5,0.5,6.9,1.4,9.8,3.6c-2.4,-2.6,-2.4,-4.6,0,-7.3c-2.9,2.2,-7.3,3.2,-9.8,3.7Z" class="g4_1" />
<path d="M755.2,477.1c0,-11.9,-9.7,-21.6,-21.6,-21.6c-12,0,-21.7,9.7,-21.7,21.6c0,12,9.7,21.7,21.7,21.7c11.9,0,21.6,-9.7,21.6,-21.7Z" class="g4_1" />
<path d="M705.5,477.1l-25.3,0" class="g3_1" />
<path d="M674.4,477.1c2.4,0.5,6.8,1.5,9.7,3.7c-2.4,-2.7,-2.4,-4.6,0,-7.3c-2.9,2.2,-7.3,3.1,-9.7,3.6Z" class="g4_1" />
<path d="M755.2,542.7c0,-12,-9.7,-21.7,-21.6,-21.7c-12,0,-21.7,9.7,-21.7,21.7c0,12,9.7,21.7,21.7,21.7c11.9,0,21.6,-9.7,21.6,-21.7Z" class="g4_1" />
<path d="M705.5,542.7l-25.3,0" class="g3_1" />
<path d="M674.4,542.7c2.4,0.5,6.8,1.5,9.7,3.6c-2.4,-2.6,-2.4,-4.6,0,-7.3c-2.9,2.2,-7.3,3.2,-9.7,3.7Z" class="g4_1" />
<path d="M755.2,608.3c0,-12,-9.7,-21.7,-21.6,-21.7c-12,0,-21.7,9.7,-21.7,21.7c0,11.9,9.7,21.6,21.7,21.6c11.9,0,21.6,-9.7,21.6,-21.6Z" class="g4_1" />
<path d="M705.5,608.3l-25.3,0" class="g3_1" />
<path d="M674.4,608.3c2.4,0.5,6.8,1.4,9.7,3.6c-2.4,-2.7,-2.4,-4.6,0,-7.3c-2.9,2.2,-7.3,3.2,-9.7,3.7Z" class="g4_1" />
<path d="M559.8,125.7l53.7,-23.8" class="g3_1" />
<path d="M618.8,99.6c-2.4,0.5,-6.8,1.4,-10.4,0.6c3.3,1.4,4.1,3.2,3,6.7c1.8,-3.2,5.4,-5.9,7.4,-7.3Z" class="g4_1" />
<path d="M596.1,113.4c0,-4.7,-3.8,-8.5,-8.5,-8.5c-4.7,0,-8.5,3.8,-8.5,8.5c0,4.7,3.8,8.5,8.5,8.5c4.7,0,8.5,-3.8,8.5,-8.5Z" class="g1_1" />
<text 
x="579" 
y="116" 
dx="0,0,0" 
class="s4_1"
>.86</text>

<path d="M565.5,152.9l47,0" class="g3_1" />
<path d="M618.3,152.9c-2.4,-0.5,-6.8,-1.4,-9.7,-3.6c2.4,2.7,2.4,4.6,0,7.3c2.9,-2.2,7.3,-3.2,9.7,-3.7Z" class="g4_1" />
<path d="M598.8,152.9c0,-4.7,-3.8,-8.5,-8.5,-8.5c-4.7,0,-8.5,3.8,-8.5,8.5c0,4.7,3.8,8.5,8.5,8.5c4.7,0,8.5,-3.8,8.5,-8.5Z" class="g1_1" />
<text 
x="582" 
y="156" 
dx="0,0,0" 
class="s4_1"
>.88</text>

<path d="M559.8,180.1l53.7,23.8" class="g3_1" />
<path d="M618.8,206.3c-2,-1.4,-5.6,-4.1,-7.4,-7.3c1.1,3.4,0.3,5.2,-3,6.7c3.6,-0.8,8,0.1,10.4,0.6Z" class="g4_1" />
<path d="M596.1,192.4c0,-4.6,-3.8,-8.4,-8.5,-8.4c-4.7,0,-8.5,3.8,-8.5,8.4c0,4.7,3.8,8.5,8.5,8.5c4.7,0,8.5,-3.8,8.5,-8.5Z" class="g1_1" />
<text 
x="579" 
y="195" 
dx="0,0,0" 
class="s4_1"
>.89</text>

<path d="M711.7,320l53.6,-23.4" class="g3_1" />
<path d="M770.7,294.3c-2.5,0.5,-6.9,1.4,-10.5,0.5c3.3,1.5,4.1,3.3,3,6.7c1.8,-3.2,5.4,-5.8,7.5,-7.2Z" class="g4_1" />
<path d="M747.9,307.9c0,-4.7,-3.8,-8.5,-8.5,-8.5c-4.6,0,-8.4,3.8,-8.4,8.5c0,4.7,3.8,8.5,8.4,8.5c4.7,0,8.5,-3.8,8.5,-8.5Z" class="g1_1" />
<text 
x="731" 
y="311" 
dx="0,0,0" 
class="s4_1"
>.78</text>

<path d="M717.4,347.8l46.9,0" class="g3_1" />
<path d="M770.2,347.8c-2.5,-0.5,-6.9,-1.4,-9.8,-3.6c2.5,2.6,2.5,4.6,0,7.3c2.9,-2.2,7.3,-3.2,9.8,-3.7Z" class="g4_1" />
<path d="M750.6,347.8c0,-4.7,-3.8,-8.5,-8.5,-8.5c-4.6,0,-8.4,3.8,-8.4,8.5c0,4.7,3.8,8.5,8.4,8.5c4.7,0,8.5,-3.8,8.5,-8.5Z" class="g1_1" />
<text 
x="734" 
y="351" 
dx="0,0,0" 
class="s4_1"
>.88</text>

<path d="M711.7,375.6L765.3,399" class="g3_1" />
<path d="M770.7,401.4c-2.1,-1.5,-5.7,-4.1,-7.5,-7.3c1.1,3.4,0.3,5.2,-3,6.7c3.6,-0.8,8,0,10.5,0.6Z" class="g4_1" />
<path d="M747.9,387.7c0,-4.7,-3.8,-8.5,-8.5,-8.5c-4.6,0,-8.4,3.8,-8.4,8.5c0,4.7,3.8,8.5,8.4,8.5c4.7,0,8.5,-3.8,8.5,-8.5Z" class="g1_1" />
<text 
x="731" 
y="391" 
dx="0,0,0" 
class="s4_1"
>.84</text>

<path d="M559.8,515.5l53.7,-23.8" class="g3_1" />
<path d="M618.8,489.3c-2.4,0.6,-6.8,1.5,-10.4,0.6c3.3,1.5,4.1,3.3,3,6.7c1.8,-3.2,5.4,-5.8,7.4,-7.3Z" class="g4_1" />
<path d="M596.1,503.2c0,-4.7,-3.8,-8.5,-8.5,-8.5c-4.7,0,-8.5,3.8,-8.5,8.5c0,4.7,3.8,8.5,8.5,8.5c4.7,0,8.5,-3.8,8.5,-8.5Z" class="g1_1" />
<text 
x="579" 
y="506" 
dx="0,0,0" 
class="s4_1"
>.83</text>

<path d="M565.5,542.7l47,0" class="g3_1" />
<path d="M618.3,542.7c-2.4,-0.5,-6.8,-1.5,-9.7,-3.7c2.4,2.7,2.4,4.7,0,7.3c2.9,-2.1,7.3,-3.1,9.7,-3.6Z" class="g4_1" />
<path d="M598.8,542.7c0,-4.7,-3.8,-8.5,-8.5,-8.5c-4.7,0,-8.5,3.8,-8.5,8.5c0,4.7,3.8,8.5,8.5,8.5c4.7,0,8.5,-3.8,8.5,-8.5Z" class="g1_1" />
<text 
x="582" 
y="546" 
dx="0,0,0" 
class="s4_1"
>.85</text>

<path d="M559.8,569.9l53.7,23.8" class="g3_1" />
<path d="M618.8,596.1c-2,-1.5,-5.6,-4.1,-7.4,-7.3c1.1,3.4,0.3,5.2,-3,6.7c3.6,-0.9,8,0,10.4,0.6Z" class="g4_1" />
<path d="M596.1,582.2c0,-4.7,-3.8,-8.5,-8.5,-8.5c-4.7,0,-8.5,3.8,-8.5,8.5c0,4.7,3.8,8.5,8.5,8.5c4.7,0,8.5,-3.8,8.5,-8.5Z" class="g1_1" />
<text 
x="579" 
y="585" 
dx="0,0,0" 
class="s4_1"
>.89</text>



<!-- Any embedded fonts defined here -->
<style type="text/css" ><![CDATA[

@font-face {
	font-family: CMR7_w;
	src: url("fonts/CMR7_w.woff") format("woff");
}

@font-face {
	font-family: CMSY10_y;
	src: url("fonts/CMSY10_y.woff") format("woff");
}

@font-face {
	font-family: CMR17_x;
	src: url("fonts/CMR17_x.woff") format("woff");
}

@font-face {
	font-family: CMR10_v;
	src: url("fonts/CMR10_v.woff") format("woff");
}

]]></style>

</svg>
