<?xml version="1.0" encoding="UTF-8" standalone="no"?>
<!DOCTYPE svg PUBLIC "-//W3C//DTD SVG 1.1//EN"
"http://www.w3.org/Graphics/SVG/1.1/DTD/svg11.dtd">


<!-- Page 1 -->
<svg x="0" y="0" width="971" height="695" viewBox="0 0 971 695" version="1.1" xmlns="http://www.w3.org/2000/svg" xmlns:xlink="http://www.w3.org/1999/xlink"
style="display: block;margin-left: auto;margin-right: auto;">
<defs>

<style type="text/css"><![CDATA[

.g1_1{
fill: #F9F8EB;
}
.g2_1{
fill: #D8D8D8;
}
.g3_1{
fill: none;
stroke: #B2B2B2;
stroke-width: 1.8265041;
stroke-linecap: butt;
stroke-linejoin: miter;
}
.g4_1{
fill: #B2B2B2;
}
.g5_1{
fill: #D8D8D8;
stroke: #D8D8D8;
stroke-width: 1.8265041;
stroke-linecap: butt;
stroke-linejoin: miter;
}
.g6_1{
fill: none;
stroke: #D8D8D8;
stroke-width: 1.8265041;
stroke-linecap: butt;
stroke-linejoin: miter;
}

.s1_1{
font-size: 15.22px;
font-family: CMR10_v;
fill: #191919;
}
.s2_1{
font-size: 31.57px;
font-family: CMR17_w;
fill: #191919;
}
.s3_1{
font-size: 7.61px;
font-family: CMR5_x;
fill: #000000;
}
.s4_1{
font-size: 18.26px;
font-family: CMMI12_y;
fill: #191919;
}
.s5_1{
font-size: 18.26px;
font-family: CMR12_z;
fill: #191919;
}
.s6_1{
font-size: 10.65px;
font-family: CMR7_-;
fill: #191919;
}

]]></style>

</defs>
<path d="M0,0
L0,695
L971,695
L971,0 Z " 
fill="#FFFFFF" stroke="none" />
<path d="M0,695.6l975.5,0l0,-698.1L0,-2.5L0,695.6Z" class="g1_1" />
<path d="M159.6,66.3l-52.2,0c-3.3,0,-6.1,2.7,-6.1,6.1l0,31.1c0,3.4,2.8,6.1,6.1,6.1l52.2,0c3.4,0,6.1,-2.7,6.1,-6.1l0,-31.1c0,-3.4,-2.7,-6.1,-6.1,-6.1Z" class="g2_1" />
<text 
x="106" 
y="93" 
dx="0,0,0,0,1.3,0,0" 
class="s1_1"
>Gc1 108</text>

<path d="M159.6,131.3l-52.2,0c-3.3,0,-6.1,2.7,-6.1,6.1l0,31.1c0,3.4,2.8,6.1,6.1,6.1l52.2,0c3.4,0,6.1,-2.7,6.1,-6.1l0,-31.1c0,-3.4,-2.7,-6.1,-6.1,-6.1Z" class="g2_1" />
<text 
x="106" 
y="158" 
dx="0,0,0,0,1.3,0,0" 
class="s1_1"
>Gc2 125</text>

<path d="M159.6,196.2l-52.2,0c-3.3,0,-6.1,2.8,-6.1,6.1l0,31.2c0,3.3,2.8,6,6.1,6l52.2,0c3.4,0,6.1,-2.7,6.1,-6l0,-31.2c0,-3.3,-2.7,-6.1,-6.1,-6.1Z" class="g2_1" />
<text 
x="106" 
y="223" 
dx="0,0,0,0,1.3,0,0" 
class="s1_1"
>Gc3 123</text>

<path d="M158.6,261.2l-50.1,0c-3.4,0,-6.1,2.7,-6.1,6.1l0,31.1c0,3.4,2.7,6.1,6.1,6.1l50.1,0c3.3,0,6,-2.7,6,-6.1l0,-31.1c0,-3.4,-2.7,-6.1,-6,-6.1Z" class="g2_1" />
<text 
x="107" 
y="288" 
dx="0,0,0,0,1.3,0,0" 
class="s1_1"
>Gf1 100</text>

<path d="M158.6,326.2l-50.1,0c-3.4,0,-6.1,2.7,-6.1,6l0,31.2c0,3.3,2.7,6.1,6.1,6.1l50.1,0c3.3,0,6,-2.8,6,-6.1l0,-31.2c0,-3.3,-2.7,-6,-6,-6Z" class="g2_1" />
<text 
x="107" 
y="353" 
dx="0,0,0,0,1.3,0,0" 
class="s1_1"
>Gf2 110</text>

<path d="M158.6,391.1l-50.1,0c-3.4,0,-6.1,2.7,-6.1,6.1l0,31.1c0,3.4,2.7,6.1,6.1,6.1l50.1,0c3.3,0,6,-2.7,6,-6.1l0,-31.1c0,-3.4,-2.7,-6.1,-6,-6.1Z" class="g2_1" />
<text 
x="107" 
y="418" 
dx="0,0,0,0,1.3,0,0" 
class="s1_1"
>Gf3 103</text>

<path d="M158,456.1l-48.9,0c-3.4,0,-6.1,2.7,-6.1,6.1l0,31.1c0,3.4,2.7,6.1,6.1,6.1l48.9,0c3.3,0,6.1,-2.7,6.1,-6.1l0,-31.1c0,-3.4,-2.8,-6.1,-6.1,-6.1Z" class="g2_1" />
<text 
x="108" 
y="482" 
dx="0,0,0,0,1.3,0" 
class="s1_1"
>Gs1 89</text>

<path d="M158,521l-48.9,0c-3.4,0,-6.1,2.8,-6.1,6.1l0,31.2c0,3.3,2.7,6.1,6.1,6.1l48.9,0c3.3,0,6.1,-2.8,6.1,-6.1l0,-31.2c0,-3.3,-2.8,-6.1,-6.1,-6.1Z" class="g2_1" />
<text 
x="108" 
y="547" 
dx="0,0,0,0,1.3,0" 
class="s1_1"
>Gs2 85</text>

<path d="M158,586l-48.9,0c-3.4,0,-6.1,2.7,-6.1,6.1l0,31.1c0,3.4,2.7,6.1,6.1,6.1l48.9,0c3.3,0,6.1,-2.7,6.1,-6.1l0,-31.1c0,-3.4,-2.8,-6.1,-6.1,-6.1Z" class="g2_1" />
<text 
x="108" 
y="612" 
dx="0,0,0,0,1.3,0" 
class="s1_1"
>Gs3 95</text>

<path d="M352.5,152.9c0,-33.5,-27.1,-60.6,-60.6,-60.6c-33.5,0,-60.6,27.1,-60.6,60.6c0,33.5,27.1,60.7,60.6,60.7c33.5,0,60.6,-27.2,60.6,-60.7Z" class="g2_1" />
<text 
x="247" 
y="163" 
dx="0,0,0,1.6,0,0" 
class="s2_1"
>Gc 119</text>

<path d="M351.5,347.8c0,-33.5,-27.2,-60.6,-60.7,-60.6c-33.4,0,-60.6,27.1,-60.6,60.6c0,33.5,27.2,60.6,60.6,60.6c33.5,0,60.7,-27.1,60.7,-60.6Z" class="g2_1" />
<text 
x="248" 
y="358" 
dx="0,0,0,1.6,0,0" 
class="s2_1"
>Gf 101</text>

<path d="M350.9,542.7c0,-33.5,-27.2,-60.6,-60.6,-60.6c-33.5,0,-60.7,27.1,-60.7,60.6c0,33.5,27.2,60.6,60.7,60.6c33.4,0,60.6,-27.1,60.6,-60.6Z" class="g2_1" />
<text 
x="253" 
y="553" 
dx="0,0,0,1.6,0" 
class="s2_1"
>Gs 90</text>

<path d="M229.9,127.5L177,105.8" class="g3_1" />
<path d="M171.6,103.6c2.1,1.4,5.8,3.9,7.7,7.1c-1.3,-3.4,-0.5,-5.2,2.7,-6.8c-3.5,0.9,-7.9,0.2,-10.4,-0.3Z" class="g4_1" />
<path d="M212.1,116.2c0,-5.3,-4.3,-9.6,-9.6,-9.6c-5.3,0,-9.6,4.3,-9.6,9.6c0,5.4,4.3,9.7,9.6,9.7c5.3,0,9.6,-4.3,9.6,-9.7Z" class="g1_1" />
<text 
x="193" 
y="118" 
dx="0,0,0,0" 
class="s3_1"
>0.87</text>

<path d="M224.9,152.9l-47,0" class="g3_1" />
<path d="M172.1,152.9c2.4,0.5,6.8,1.5,9.7,3.7c-2.4,-2.7,-2.4,-4.6,0,-7.3c-2.9,2.2,-7.3,3.1,-9.7,3.6Z" class="g4_1" />
<path d="M209.7,152.9c0,-5.3,-4.3,-9.6,-9.6,-9.6c-5.3,0,-9.6,4.3,-9.6,9.6c0,5.3,4.3,9.6,9.6,9.6c5.3,0,9.6,-4.3,9.6,-9.6Z" class="g1_1" />
<text 
x="190" 
y="155" 
dx="0,0,0,0" 
class="s3_1"
>0.89</text>

<path d="M229.9,178.4L177,200.1" class="g3_1" />
<path d="M171.6,202.3c2.5,-0.5,6.9,-1.3,10.4,-0.3c-3.2,-1.6,-4,-3.4,-2.7,-6.8c-1.9,3.1,-5.6,5.7,-7.7,7.1Z" class="g4_1" />
<path d="M212.1,189.6c0,-5.3,-4.3,-9.6,-9.6,-9.6c-5.3,0,-9.6,4.3,-9.6,9.6c0,5.3,4.3,9.6,9.6,9.6c5.3,0,9.6,-4.3,9.6,-9.6Z" class="g1_1" />
<text 
x="193" 
y="192" 
dx="0,0,0,0" 
class="s3_1"
>0.90</text>

<path d="M228.8,322.2L176,300.4" class="g3_1" />
<path d="M170.6,298.2c2.1,1.3,5.7,3.9,7.6,7.1c-1.2,-3.5,-0.5,-5.3,2.8,-6.8c-3.5,0.9,-8,0.1,-10.4,-0.3Z" class="g4_1" />
<path d="M211,310.9c0,-5.3,-4.3,-9.6,-9.6,-9.6c-5.3,0,-9.6,4.3,-9.6,9.6c0,5.3,4.3,9.6,9.6,9.6c5.3,0,9.6,-4.3,9.6,-9.6Z" class="g1_1" />
<text 
x="192" 
y="313" 
dx="0,0,0,0" 
class="s3_1"
>0.79</text>

<path d="M223.8,347.8l-46.9,0" class="g3_1" />
<path d="M171,347.8c2.5,0.5,6.9,1.5,9.8,3.7c-2.5,-2.7,-2.5,-4.7,0,-7.3c-2.9,2.2,-7.3,3.1,-9.8,3.6Z" class="g4_1" />
<path d="M208.7,347.8c0,-5.3,-4.3,-9.6,-9.6,-9.6c-5.3,0,-9.6,4.3,-9.6,9.6c0,5.3,4.3,9.6,9.6,9.6c5.3,0,9.6,-4.3,9.6,-9.6Z" class="g1_1" />
<text 
x="189" 
y="350" 
dx="0,0,0,0" 
class="s3_1"
>0.89</text>

<path d="M228.8,373.4L176,395.2" class="g3_1" />
<path d="M170.6,397.5c2.4,-0.5,6.9,-1.3,10.4,-0.4c-3.3,-1.5,-4,-3.3,-2.8,-6.7c-1.9,3.1,-5.5,5.7,-7.6,7.1Z" class="g4_1" />
<path d="M211,384.7c0,-5.3,-4.3,-9.6,-9.6,-9.6c-5.3,0,-9.6,4.3,-9.6,9.6c0,5.3,4.3,9.6,9.6,9.6c5.3,0,9.6,-4.3,9.6,-9.6Z" class="g1_1" />
<text 
x="192" 
y="387" 
dx="0,0,0,0" 
class="s3_1"
>0.85</text>

<path d="M228.2,517L175.4,495.1" class="g3_1" />
<path d="M170,492.8c2.1,1.4,5.7,4,7.6,7.2c-1.2,-3.5,-0.5,-5.3,2.8,-6.8c-3.5,0.9,-8,0.1,-10.4,-0.4Z" class="g4_1" />
<path d="M210.5,505.6c0,-5.3,-4.3,-9.6,-9.6,-9.6c-5.3,0,-9.6,4.3,-9.6,9.6c0,5.3,4.3,9.6,9.6,9.6c5.3,0,9.6,-4.3,9.6,-9.6Z" class="g1_1" />
<text 
x="191" 
y="508" 
dx="0,0,0,0" 
class="s3_1"
>0.84</text>

<path d="M223.2,542.7l-46.9,0" class="g3_1" />
<path d="M170.4,542.7c2.5,0.5,6.9,1.5,9.8,3.6c-2.4,-2.6,-2.4,-4.6,0,-7.3c-2.9,2.2,-7.3,3.2,-9.8,3.7Z" class="g4_1" />
<path d="M208.1,542.7c0,-5.3,-4.3,-9.6,-9.6,-9.6c-5.3,0,-9.6,4.3,-9.6,9.6c0,5.3,4.3,9.6,9.6,9.6c5.3,0,9.6,-4.3,9.6,-9.6Z" class="g1_1" />
<text 
x="189" 
y="545" 
dx="0,0,0,0" 
class="s3_1"
>0.86</text>

<path d="M228.2,568.4l-52.8,21.9" class="g3_1" />
<path d="M170,592.5c2.4,-0.4,6.9,-1.2,10.4,-0.3c-3.3,-1.6,-4,-3.4,-2.8,-6.8c-1.9,3.2,-5.5,5.8,-7.6,7.1Z" class="g4_1" />
<path d="M210.5,579.8c0,-5.3,-4.3,-9.6,-9.6,-9.6c-5.3,0,-9.6,4.3,-9.6,9.6c0,5.3,4.3,9.6,9.6,9.6c5.3,0,9.6,-4.3,9.6,-9.6Z" class="g1_1" />
<text 
x="191" 
y="582" 
dx="0,0,0,0" 
class="s3_1"
>0.90</text>

<path d="M57.4,88C57.4,75.3,47.2,65.1,34.5,65.1C21.9,65.1,11.6,75.3,11.6,88c0,12.6,10.3,22.9,22.9,22.9c12.7,0,22.9,-10.3,22.9,-22.9Z" class="g2_1" />
<text 
x="12" 
y="94" 
dx="0,0" 
class="s4_1"
>e.</text>

<text 
x="25" 
y="94" 
dx="0,0,0" 
class="s5_1"
>Gc1</text>

<path d="M63.8,88l25.3,0" class="g5_1" />
<path d="M94.9,88C92.5,87.5,88.1,86.5,85.2,84.3c2.4,2.7,2.4,4.6,0,7.3c2.9,-2.2,7.3,-3.1,9.7,-3.6Z" class="g2_1" />
<path d="M57.4,152.9C57.4,140.3,47.2,130,34.5,130c-12.6,0,-22.9,10.3,-22.9,22.9c0,12.7,10.3,22.9,22.9,22.9c12.7,0,22.9,-10.2,22.9,-22.9Z" class="g2_1" />
<text 
x="12" 
y="159" 
dx="0,0" 
class="s4_1"
>e.</text>

<text 
x="25" 
y="159" 
dx="0,0,0" 
class="s5_1"
>Gc2</text>

<path d="M63.8,152.9l25.3,0" class="g5_1" />
<path d="M94.9,152.9c-2.4,-0.5,-6.8,-1.4,-9.7,-3.6c2.4,2.7,2.4,4.6,0,7.3c2.9,-2.2,7.3,-3.2,9.7,-3.7Z" class="g2_1" />
<path d="M57.4,217.9C57.4,205.2,47.2,195,34.5,195c-12.6,0,-22.9,10.2,-22.9,22.9c0,12.6,10.3,22.9,22.9,22.9c12.7,0,22.9,-10.3,22.9,-22.9Z" class="g2_1" />
<text 
x="12" 
y="224" 
dx="0,0" 
class="s4_1"
>e.</text>

<text 
x="25" 
y="224" 
dx="0,0,0" 
class="s5_1"
>Gc3</text>

<path d="M63.8,217.9l25.3,0" class="g5_1" />
<path d="M94.9,217.9c-2.4,-0.5,-6.8,-1.5,-9.7,-3.7c2.4,2.7,2.4,4.7,0,7.3c2.9,-2.1,7.3,-3.1,9.7,-3.6Z" class="g2_1" />
<path d="M58.5,282.9c0,-12,-9.7,-21.7,-21.7,-21.7c-12,0,-21.7,9.7,-21.7,21.7c0,11.9,9.7,21.6,21.7,21.6c12,0,21.7,-9.7,21.7,-21.6Z" class="g2_1" />
<text 
x="15" 
y="289" 
dx="0,0" 
class="s4_1"
>e.</text>

<text 
x="29" 
y="289" 
dx="0,0,0" 
class="s5_1"
>Gf1</text>

<path d="M64.9,282.9l25.3,0" class="g5_1" />
<path d="M96,282.9c-2.4,-0.5,-6.8,-1.5,-9.7,-3.7c2.4,2.7,2.4,4.6,0,7.3c2.9,-2.2,7.3,-3.2,9.7,-3.6Z" class="g2_1" />
<path d="M58.5,347.8c0,-12,-9.7,-21.7,-21.7,-21.7c-12,0,-21.7,9.7,-21.7,21.7c0,12,9.7,21.7,21.7,21.7c12,0,21.7,-9.7,21.7,-21.7Z" class="g2_1" />
<text 
x="15" 
y="354" 
dx="0,0" 
class="s4_1"
>e.</text>

<text 
x="29" 
y="354" 
dx="0,0,0" 
class="s5_1"
>Gf2</text>

<path d="M64.9,347.8l25.3,0" class="g5_1" />
<path d="M96,347.8c-2.4,-0.5,-6.8,-1.4,-9.7,-3.6c2.4,2.6,2.4,4.6,0,7.3c2.9,-2.2,7.3,-3.2,9.7,-3.7Z" class="g2_1" />
<path d="M58.5,412.8c0,-12,-9.7,-21.7,-21.7,-21.7c-12,0,-21.7,9.7,-21.7,21.7c0,12,9.7,21.7,21.7,21.7c12,0,21.7,-9.7,21.7,-21.7Z" class="g2_1" />
<text 
x="15" 
y="419" 
dx="0,0" 
class="s4_1"
>e.</text>

<text 
x="29" 
y="419" 
dx="0,0,0" 
class="s5_1"
>Gf3</text>

<path d="M64.9,412.8l25.3,0" class="g5_1" />
<path d="M96,412.8c-2.4,-0.5,-6.8,-1.5,-9.7,-3.7c2.4,2.7,2.4,4.6,0,7.3c2.9,-2.2,7.3,-3.1,9.7,-3.6Z" class="g2_1" />
<path d="M59.1,477.7C59.1,465.3,49,455.3,36.6,455.3c-12.4,0,-22.4,10,-22.4,22.4c0,12.4,10,22.5,22.4,22.5c12.4,0,22.5,-10.1,22.5,-22.5Z" class="g2_1" />
<text 
x="14" 
y="483" 
dx="0,0" 
class="s4_1"
>e.</text>

<text 
x="28" 
y="483" 
dx="0,0,0" 
class="s5_1"
>Gs1</text>

<path d="M65.5,477.7l25.2,0" class="g5_1" />
<path d="M96.6,477.7c-2.4,-0.5,-6.8,-1.4,-9.8,-3.6c2.5,2.7,2.5,4.6,0,7.3c3,-2.2,7.4,-3.2,9.8,-3.7Z" class="g2_1" />
<path d="M59.1,542.7C59.1,530.3,49,520.3,36.6,520.3c-12.4,0,-22.4,10,-22.4,22.4c0,12.4,10,22.4,22.4,22.4c12.4,0,22.5,-10,22.5,-22.4Z" class="g2_1" />
<text 
x="14" 
y="548" 
dx="0,0" 
class="s4_1"
>e.</text>

<text 
x="28" 
y="548" 
dx="0,0,0" 
class="s5_1"
>Gs2</text>

<path d="M65.5,542.7l25.2,0" class="g5_1" />
<path d="M96.6,542.7c-2.4,-0.5,-6.8,-1.5,-9.8,-3.7c2.5,2.7,2.5,4.7,0,7.3c3,-2.1,7.4,-3.1,9.8,-3.6Z" class="g2_1" />
<path d="M59.1,607.7C59.1,595.3,49,585.2,36.6,585.2c-12.4,0,-22.4,10.1,-22.4,22.5c0,12.3,10,22.4,22.4,22.4C49,630.1,59.1,620,59.1,607.7Z" class="g2_1" />
<text 
x="14" 
y="613" 
dx="0,0" 
class="s4_1"
>e.</text>

<text 
x="28" 
y="613" 
dx="0,0,0" 
class="s5_1"
>Gs3</text>

<path d="M65.5,607.7l25.2,0" class="g5_1" />
<path d="M96.6,607.7c-2.4,-0.5,-6.8,-1.5,-9.8,-3.7c2.5,2.7,2.5,4.6,0,7.3c3,-2.2,7.4,-3.2,9.8,-3.6Z" class="g2_1" />
<path d="M582.7,152.9C582.7,119.4,555.5,92.3,522,92.3c-33.4,0,-60.6,27.1,-60.6,60.6c0,33.5,27.2,60.7,60.6,60.7c33.5,0,60.7,-27.2,60.7,-60.7Z" class="g4_1" />
<text 
x="494" 
y="139" 
dx="0,0,0,0,0,0,0" 
class="s1_1"
>Reading</text>

<text 
x="491" 
y="158" 
dx="0,0,0,0,0.4,0,0,0" 
class="s1_1"
>Decoding</text>

<text 
x="510" 
y="176" 
dx="0,0,0" 
class="s1_1"
>100</text>

<path d="M733.5,347.8c0,-34.7,-28.2,-62.9,-63,-62.9c-34.7,0,-62.9,28.2,-62.9,62.9c0,34.8,28.2,62.9,62.9,62.9c34.8,0,63,-28.1,63,-62.9Z" class="g4_1" />
<text 
x="643" 
y="334" 
dx="0,0,0,0,0,0,0" 
class="s1_1"
>Reading</text>

<text 
x="619" 
y="353" 
dx="0,0,0,0,0,0,0,0,0,0,0,0,0" 
class="s1_1"
>Comprehension</text>

<text 
x="659" 
y="371" 
dx="0,0,0" 
class="s1_1"
>105</text>

<path d="M581,542.7c0,-33.5,-27.1,-60.6,-60.6,-60.6c-33.5,0,-60.6,27.1,-60.6,60.6c0,33.5,27.1,60.6,60.6,60.6c33.5,0,60.6,-27.1,60.6,-60.6Z" class="g4_1" />
<text 
x="493" 
y="529" 
dx="0,0,0,0,0,0,0" 
class="s1_1"
>Reading</text>

<text 
x="494" 
y="547" 
dx="0,0,0,0,0,0,0" 
class="s1_1"
>Fluency</text>

<text 
x="512" 
y="566" 
dx="0,0" 
class="s1_1"
>77</text>

<path d="M685.5,131.3l-31.2,0c-3.3,0,-6.1,2.7,-6.1,6.1l0,31.1c0,3.4,2.8,6.1,6.1,6.1l31.2,0c3.3,0,6.1,-2.7,6.1,-6.1l0,-31.1c0,-3.4,-2.8,-6.1,-6.1,-6.1Z" class="g4_1" />
<text 
x="655" 
y="156" 
dx="0,0" 
class="s1_1"
>RD</text>

<text 
x="677" 
y="159" 
dx="0" 
class="s6_1"
>2</text>

<path d="M685.5,65.7l-31.2,0c-3.3,0,-6.1,2.7,-6.1,6.1l0,31.1c0,3.4,2.8,6.1,6.1,6.1l31.2,0c3.3,0,6.1,-2.7,6.1,-6.1l0,-31.1c0,-3.4,-2.8,-6.1,-6.1,-6.1Z" class="g4_1" />
<text 
x="655" 
y="91" 
dx="0,0" 
class="s1_1"
>RD</text>

<text 
x="677" 
y="93" 
dx="0" 
class="s6_1"
>1</text>

<path d="M685.5,196.8l-31.2,0c-3.3,0,-6.1,2.8,-6.1,6.1l0,31.2c0,3.3,2.8,6.1,6.1,6.1l31.2,0c3.3,0,6.1,-2.8,6.1,-6.1l0,-31.2c0,-3.3,-2.8,-6.1,-6.1,-6.1Z" class="g4_1" />
<text 
x="655" 
y="222" 
dx="0,0" 
class="s1_1"
>RD</text>

<text 
x="677" 
y="224" 
dx="0" 
class="s6_1"
>3</text>

<path d="M836.3,326.2l-31.2,0c-3.3,0,-6.1,2.7,-6.1,6l0,31.2c0,3.3,2.8,6.1,6.1,6.1l31.2,0c3.3,0,6,-2.8,6,-6.1l0,-31.2c0,-3.3,-2.7,-6,-6,-6Z" class="g4_1" />
<text 
x="806" 
y="351" 
dx="0,-0.4" 
class="s1_1"
>RC</text>

<text 
x="828" 
y="354" 
dx="0" 
class="s6_1"
>2</text>

<path d="M836.3,260.6l-31.2,0c-3.3,0,-6.1,2.7,-6.1,6.1l0,31.1c0,3.4,2.8,6.1,6.1,6.1l31.2,0c3.3,0,6,-2.7,6,-6.1l0,-31.1c0,-3.4,-2.7,-6.1,-6,-6.1Z" class="g4_1" />
<text 
x="806" 
y="286" 
dx="0,-0.4" 
class="s1_1"
>RC</text>

<text 
x="828" 
y="288" 
dx="0" 
class="s6_1"
>1</text>

<path d="M836.3,391.7l-31.2,0c-3.3,0,-6.1,2.8,-6.1,6.1l0,31.1c0,3.4,2.8,6.1,6.1,6.1l31.2,0c3.3,0,6,-2.7,6,-6.1l0,-31.1c0,-3.3,-2.7,-6.1,-6,-6.1Z" class="g4_1" />
<text 
x="806" 
y="417" 
dx="0,-0.4" 
class="s1_1"
>RC</text>

<text 
x="828" 
y="419" 
dx="0" 
class="s6_1"
>3</text>

<path d="M683.8,521l-31.1,0c-3.4,0,-6.1,2.8,-6.1,6.1l0,31.2c0,3.3,2.7,6.1,6.1,6.1l31.1,0c3.4,0,6.1,-2.8,6.1,-6.1l0,-31.2c0,-3.3,-2.7,-6.1,-6.1,-6.1Z" class="g4_1" />
<text 
x="654" 
y="546" 
dx="0,0" 
class="s1_1"
>RF</text>

<text 
x="675" 
y="549" 
dx="0" 
class="s6_1"
>2</text>

<path d="M683.8,455.5l-31.1,0c-3.4,0,-6.1,2.7,-6.1,6.1l0,31.1c0,3.4,2.7,6.1,6.1,6.1l31.1,0c3.4,0,6.1,-2.7,6.1,-6.1l0,-31.1c0,-3.4,-2.7,-6.1,-6.1,-6.1Z" class="g4_1" />
<text 
x="654" 
y="481" 
dx="0,0" 
class="s1_1"
>RF</text>

<text 
x="675" 
y="483" 
dx="0" 
class="s6_1"
>1</text>

<path d="M683.8,586.6l-31.1,0c-3.4,0,-6.1,2.7,-6.1,6.1l0,31.1c0,3.4,2.7,6.1,6.1,6.1l31.1,0c3.4,0,6.1,-2.7,6.1,-6.1l0,-31.1c0,-3.4,-2.7,-6.1,-6.1,-6.1Z" class="g4_1" />
<text 
x="654" 
y="612" 
dx="0,0" 
class="s1_1"
>RF</text>

<text 
x="675" 
y="614" 
dx="0" 
class="s6_1"
>3</text>

<path d="M710.6,131.3l-56.3,0c-3.3,0,-6.1,2.7,-6.1,6.1l0,31.1c0,3.4,2.8,6.1,6.1,6.1l56.3,0c3.4,0,6.1,-2.7,6.1,-6.1l0,-31.1c0,-3.4,-2.7,-6.1,-6.1,-6.1Z" class="g4_1" />
<text 
x="653" 
y="158" 
dx="0,0,0,0,1.3,0,0" 
class="s1_1"
>RD2 103</text>

<path d="M709.4,65.7l-53.8,0c-3.4,0,-6.1,2.7,-6.1,6.1l0,31.1c0,3.4,2.7,6.1,6.1,6.1l53.8,0c3.3,0,6.1,-2.7,6.1,-6.1l0,-31.1c0,-3.4,-2.8,-6.1,-6.1,-6.1Z" class="g4_1" />
<text 
x="654" 
y="92" 
dx="0,0,0,0,1.3,0" 
class="s1_1"
>RD1 99</text>

<path d="M710.6,196.8l-56.3,0c-3.3,0,-6.1,2.8,-6.1,6.1l0,31.2c0,3.3,2.8,6.1,6.1,6.1l56.3,0c3.4,0,6.1,-2.8,6.1,-6.1l0,-31.2c0,-3.3,-2.7,-6.1,-6.1,-6.1Z" class="g4_1" />
<text 
x="653" 
y="223" 
dx="0,0,0,0,1.3,0,0" 
class="s1_1"
>RD3 101</text>

<path d="M860.4,326.2l-55.3,0c-3.3,0,-6.1,2.7,-6.1,6l0,31.2c0,3.3,2.8,6.1,6.1,6.1l55.3,0c3.3,0,6.1,-2.8,6.1,-6.1l0,-31.2c0,-3.3,-2.8,-6,-6.1,-6Z" class="g4_1" />
<text 
x="804" 
y="353" 
dx="0,-0.4,0,0,1.3,0,0" 
class="s1_1"
>RC2 103</text>

<path d="M860.9,260.6l-56.3,0c-3.4,0,-6.1,2.7,-6.1,6.1l0,31.1c0,3.4,2.7,6.1,6.1,6.1l56.3,0c3.4,0,6.1,-2.7,6.1,-6.1l0,-31.1c0,-3.4,-2.7,-6.1,-6.1,-6.1Z" class="g4_1" />
<text 
x="803" 
y="287" 
dx="0,0,0,0,1.3,0,0" 
class="s1_1"
>RD1 107</text>

<path d="M859.6,391.7l-53.7,0c-3.4,0,-6.1,2.8,-6.1,6.1l0,31.1c0,3.4,2.7,6.1,6.1,6.1l53.7,0c3.4,0,6.1,-2.7,6.1,-6.1l0,-31.1c0,-3.3,-2.7,-6.1,-6.1,-6.1Z" class="g4_1" />
<text 
x="804" 
y="418" 
dx="0,0,0,0,1.3,0" 
class="s1_1"
>RD3 98</text>

<path d="M706.5,521l-53.8,0c-3.4,0,-6.1,2.8,-6.1,6.1l0,31.2c0,3.3,2.7,6.1,6.1,6.1l53.8,0c3.3,0,6.1,-2.8,6.1,-6.1l0,-31.2c0,-3.3,-2.8,-6.1,-6.1,-6.1Z" class="g4_1" />
<text 
x="651" 
y="547" 
dx="0,0,0,0,1.3,0" 
class="s1_1"
>RD2 78</text>

<path d="M706.5,455.5l-53.8,0c-3.4,0,-6.1,2.7,-6.1,6.1l0,31.1c0,3.4,2.7,6.1,6.1,6.1l53.8,0c3.3,0,6.1,-2.7,6.1,-6.1l0,-31.1c0,-3.4,-2.8,-6.1,-6.1,-6.1Z" class="g4_1" />
<text 
x="651" 
y="482" 
dx="0,0,0,0,1.3,0" 
class="s1_1"
>RD1 85</text>

<path d="M706.5,586.6l-53.8,0c-3.4,0,-6.1,2.7,-6.1,6.1l0,31.1c0,3.4,2.7,6.1,6.1,6.1l53.8,0c3.3,0,6.1,-2.7,6.1,-6.1l0,-31.1c0,-3.4,-2.8,-6.1,-6.1,-6.1Z" class="g4_1" />
<text 
x="651" 
y="613" 
dx="0,0,0,0,1.3,0" 
class="s1_1"
>RD3 73</text>

<path d="M621.7,26.7C621.7,14.8,612,5.1,600,5.1c-12,0,-21.7,9.7,-21.7,21.6c0,12,9.7,21.7,21.7,21.7c12,0,21.7,-9.7,21.7,-21.7Z" class="g4_1" />
<text 
x="584" 
y="31" 
dx="0,0,0" 
class="s5_1"
>+10</text>

<path d="M585.2,50.7l-24.7,40" class="g3_1" />
<path d="M557.4,95.7c1.7,-1.8,4.8,-5,8.2,-6.4C562.1,90,560.4,89,559.4,85.5c0.3,3.6,-1.1,7.9,-2,10.2Z" class="g4_1" />
<path d="M581.8,71.8c0,-5.3,-4.3,-9.6,-9.6,-9.6c-5.4,0,-9.6,4.3,-9.6,9.6c0,5.3,4.2,9.6,9.6,9.6c5.3,0,9.6,-4.3,9.6,-9.6Z" class="g1_1" />
<text 
x="562" 
y="74" 
dx="0,0,0,0" 
class="s3_1"
>0.66</text>

<path d="M770.1,249.6c0,-11.9,-9.7,-21.6,-21.6,-21.6c-12,0,-21.7,9.7,-21.7,21.6c0,12,9.7,21.7,21.7,21.7c11.9,0,21.6,-9.7,21.6,-21.7Z" class="g4_1" />
<text 
x="732" 
y="254" 
dx="0,0,0" 
class="s5_1"
>+11</text>

<path d="M731,271.6l-13.6,17.2" class="g3_1" />
<path d="M713.7,293.4c1.9,-1.6,5.4,-4.4,9,-5.4c-3.7,0.3,-5.2,-0.9,-5.8,-4.5c-0.1,3.7,-2,7.7,-3.2,9.9Z" class="g4_1" />
<path d="M732.6,281.7c0,-5.3,-4.3,-9.6,-9.6,-9.6c-5.3,0,-9.6,4.3,-9.6,9.6c0,5.3,4.3,9.6,9.6,9.6c5.3,0,9.6,-4.3,9.6,-9.6Z" class="g1_1" />
<text 
x="713" 
y="284" 
dx="0,0,0,0" 
class="s3_1"
>0.76</text>

<path d="M234.5,452.4c0,-12,-9.6,-21.7,-21.6,-21.7c-12,0,-21.7,9.7,-21.7,21.7c0,11.9,9.7,21.6,21.7,21.6c12,0,21.6,-9.7,21.6,-21.6Z" class="g2_1" />
<text 
x="196" 
y="457" 
dx="0,0,0" 
class="s5_1"
>+10</text>

<path d="M229.7,429.8l17.5,-23.4" class="g6_1" />
<path d="M250.7,401.7c-1.9,1.7,-5.3,4.6,-8.8,5.6c3.6,-0.3,5.2,0.8,5.9,4.4c0,-3.7,1.8,-7.8,2.9,-10Z" class="g2_1" />
<path d="M249.1,416.7c0,-5.3,-4.3,-9.6,-9.6,-9.6c-5.3,0,-9.6,4.3,-9.6,9.6c0,5.3,4.3,9.6,9.6,9.6c5.3,0,9.6,-4.3,9.6,-9.6Z" class="g1_1" />
<text 
x="230" 
y="419" 
dx="0,0,0,0" 
class="s3_1"
>0.83</text>

<path d="M391.5,26.7C391.5,14.8,381.8,5.1,369.9,5.1c-12,0,-21.7,9.7,-21.7,21.6c0,12,9.7,21.7,21.7,21.7c11.9,0,21.6,-9.7,21.6,-21.7Z" class="g2_1" />
<text 
x="362" 
y="32" 
dx="0,0" 
class="s5_1"
>-5</text>

<path d="M355.1,50.7l-24.8,40" class="g6_1" />
<path d="M327.2,95.7c1.7,-1.8,4.9,-5,8.3,-6.4C331.9,90,330.3,89,329.3,85.5c0.3,3.6,-1.2,7.9,-2.1,10.2Z" class="g2_1" />
<path d="M351.6,71.8c0,-5.3,-4.3,-9.6,-9.6,-9.6c-5.3,0,-9.6,4.3,-9.6,9.6c0,5.3,4.3,9.6,9.6,9.6c5.3,0,9.6,-4.3,9.6,-9.6Z" class="g1_1" />
<text 
x="332" 
y="74" 
dx="0,0,0,0" 
class="s3_1"
>0.80</text>

<path d="M464.1,668.9c0,-12,-9.7,-21.7,-21.7,-21.7c-11.9,0,-21.6,9.7,-21.6,21.7c0,12,9.7,21.7,21.6,21.7c12,0,21.7,-9.7,21.7,-21.7Z" class="g4_1" />
<text 
x="430" 
y="674" 
dx="0,0,0" 
class="s5_1"
>-13</text>

<path d="M457.2,645L482,604.9" class="g3_1" />
<path d="M485.1,599.9c-1.7,1.8,-4.9,5.1,-8.3,6.4c3.6,-0.7,5.2,0.4,6.2,3.9c-0.3,-3.7,1.2,-7.9,2.1,-10.3Z" class="g4_1" />
<path d="M479.9,623.8c0,-5.3,-4.3,-9.6,-9.6,-9.6c-5.3,0,-9.6,4.3,-9.6,9.6c0,5.3,4.3,9.6,9.6,9.6c5.3,0,9.6,-4.3,9.6,-9.6Z" class="g1_1" />
<text 
x="460" 
y="626" 
dx="0,0,0,0" 
class="s3_1"
>0.70</text>

<path d="M291.2,280.8l0.3,-55" class="g6_1" />
<path d="M291.5,220c-0.5,2.4,-1.5,6.8,-3.7,9.7c2.7,-2.4,4.7,-2.4,7.3,0C293,226.8,292,222.4,291.5,220Z" class="g2_1" />
<path d="M301,252.2c0,-5.3,-4.3,-9.6,-9.6,-9.6c-5.3,0,-9.6,4.3,-9.6,9.6c0,5.3,4.3,9.6,9.6,9.6c5.3,0,9.6,-4.3,9.6,-9.6Z" class="g1_1" />
<text 
x="282" 
y="254" 
dx="0,0,0,0" 
class="s3_1"
>0.30</text>

<path d="M290.5,475.7l0.1,-55" class="g6_1" />
<path d="M290.6,414.8c-0.5,2.5,-1.4,6.9,-3.6,9.8c2.6,-2.5,4.6,-2.5,7.3,0c-2.2,-2.9,-3.2,-7.3,-3.7,-9.8Z" class="g2_1" />
<path d="M300.1,447.1c0,-5.3,-4.3,-9.6,-9.6,-9.6c-5.3,0,-9.6,4.3,-9.6,9.6c0,5.3,4.3,9.6,9.6,9.6c5.3,0,9.6,-4.3,9.6,-9.6Z" class="g1_1" />
<text 
x="281" 
y="449" 
dx="0,0,0,0" 
class="s3_1"
>0.19</text>

<path d="M358.9,152.9l90.3,0" class="g6_1" />
<path d="M455,152.9c-2.4,-0.5,-6.8,-1.4,-9.7,-3.6c2.4,2.7,2.4,4.6,0,7.3c2.9,-2.2,7.3,-3.2,9.7,-3.7Z" class="g2_1" />
<path d="M413.9,152.9c0,-5.3,-4.3,-9.6,-9.6,-9.6c-5.3,0,-9.6,4.3,-9.6,9.6c0,5.3,4.3,9.6,9.6,9.6c5.3,0,9.6,-4.3,9.6,-9.6Z" class="g1_1" />
<text 
x="394" 
y="155" 
dx="0,0,0,0" 
class="s3_1"
>0.21</text>

<path d="M351.6,183.7l252,129.6" class="g6_1" />
<path d="M608.8,316c-2,-1.5,-5.4,-4.4,-7,-7.7c0.9,3.5,0,5.2,-3.4,6.5c3.6,-0.6,8,0.5,10.4,1.2Z" class="g2_1" />
<path d="M483.1,246.4c0,-5.3,-4.3,-9.6,-9.6,-9.6c-5.3,0,-9.6,4.3,-9.6,9.6c0,5.3,4.3,9.6,9.6,9.6c5.3,0,9.6,-4.3,9.6,-9.6Z" class="g1_1" />
<text 
x="464" 
y="248" 
dx="0,0,0,0" 
class="s3_1"
>0.25</text>

<path d="M325.9,210.9L483.4,479.7" class="g6_1" />
<path d="M486.4,484.7c-0.8,-2.3,-2.2,-6.6,-1.8,-10.3c-1.1,3.5,-2.7,4.5,-6.3,3.7c3.4,1.5,6.5,4.8,8.1,6.6Z" class="g2_1" />
<path d="M399.1,319.4c0,-5.3,-4.3,-9.6,-9.6,-9.6c-5.3,0,-9.6,4.3,-9.6,9.6c0,5.3,4.3,9.6,9.6,9.6c5.3,0,9.6,-4.3,9.6,-9.6Z" class="g1_1" />
<text 
x="380" 
y="321" 
dx="0,0,0,0" 
class="s3_1"
>0.33</text>

<path d="M357.9,347.8l237.5,0" class="g6_1" />
<path d="M601.2,347.8c-2.4,-0.5,-6.8,-1.4,-9.7,-3.6c2.4,2.6,2.4,4.6,0,7.3c2.9,-2.2,7.3,-3.2,9.7,-3.7Z" class="g2_1" />
<path d="M482.8,347.8c0,-5.3,-4.3,-9.6,-9.6,-9.6c-5.4,0,-9.6,4.3,-9.6,9.6c0,5.3,4.2,9.6,9.6,9.6c5.3,0,9.6,-4.3,9.6,-9.6Z" class="g1_1" />
<text 
x="463" 
y="350" 
dx="0,0,0,0" 
class="s3_1"
>0.15</text>

<path d="M342.2,391.4L464.6,495.3" class="g6_1" />
<path d="M469.1,499.1c-1.6,-1.9,-4.3,-5.5,-5.1,-9.1c0.1,3.6,-1.2,5.1,-4.8,5.6c3.7,0.2,7.7,2.3,9.9,3.5Z" class="g2_1" />
<path d="M411.8,442.4c0,-5.3,-4.3,-9.6,-9.6,-9.6c-5.3,0,-9.6,4.3,-9.6,9.6c0,5.3,4.3,9.6,9.6,9.6c5.3,0,9.6,-4.3,9.6,-9.6Z" class="g1_1" />
<text 
x="392" 
y="444" 
dx="0,0,0,0" 
class="s3_1"
>0.24</text>

<path d="M342.2,304.6L466.2,200" class="g6_1" />
<path d="M470.7,196.2c-2.2,1.2,-6.1,3.3,-9.8,3.5c3.6,0.5,4.9,2,4.7,5.6c0.8,-3.6,3.6,-7.2,5.1,-9.1Z" class="g2_1" />
<path d="M412.6,253.3c0,-5.3,-4.3,-9.6,-9.6,-9.6c-5.3,0,-9.6,4.3,-9.6,9.6c0,5.3,4.3,9.6,9.6,9.6c5.3,0,9.6,-4.3,9.6,-9.6Z" class="g1_1" />
<text 
x="393" 
y="255" 
dx="0,0,0,0" 
class="s3_1"
>0.46</text>

<path d="M357.3,542.7l90.2,0" class="g6_1" />
<path d="M453.4,542.7c-2.5,-0.5,-6.8,-1.5,-9.8,-3.7c2.5,2.7,2.5,4.7,0,7.3c3,-2.1,7.3,-3.1,9.8,-3.6Z" class="g2_1" />
<path d="M412.2,542.7c0,-5.3,-4.3,-9.6,-9.6,-9.6c-5.3,0,-9.6,4.3,-9.6,9.6c0,5.3,4.3,9.6,9.6,9.6c5.3,0,9.6,-4.3,9.6,-9.6Z" class="g1_1" />
<text 
x="393" 
y="545" 
dx="0,0,0,0" 
class="s3_1"
>0.36</text>

<path d="M324.6,485L484.7,215.7" class="g6_1" />
<path d="M487.7,210.7c-1.7,1.8,-4.7,5.1,-8.1,6.5c3.5,-0.8,5.2,0.2,6.3,3.7c-0.4,-3.6,1,-7.9,1.8,-10.2Z" class="g2_1" />
<path d="M398.8,376.3c0,-5.3,-4.3,-9.6,-9.6,-9.6c-5.3,0,-9.6,4.3,-9.6,9.6c0,5.3,4.3,9.6,9.6,9.6c5.3,0,9.6,-4.3,9.6,-9.6Z" class="g1_1" />
<text 
x="379" 
y="378" 
dx="0,0,0,0" 
class="s3_1"
>0.26</text>

<path d="M350,512.1l253.6,-130" class="g6_1" />
<path d="M608.8,379.5c-2.4,0.6,-6.8,1.8,-10.4,1.2c3.4,1.2,4.3,3,3.4,6.5c1.6,-3.3,5,-6.2,7,-7.7Z" class="g2_1" />
<path d="M482.2,449.2c0,-5.3,-4.3,-9.6,-9.6,-9.6c-5.3,0,-9.6,4.3,-9.6,9.6c0,5.3,4.3,9.6,9.6,9.6c5.3,0,9.6,-4.3,9.6,-9.6Z" class="g1_1" />
<text 
x="463" 
y="451" 
dx="0,0,0,0" 
class="s3_1"
>0.16</text>

<path d="M562.7,206.3L624.9,288" class="g3_1" />
<path d="M628.5,292.6c-1.1,-2.2,-3,-6.3,-3,-10c-0.7,3.6,-2.2,4.8,-5.8,4.5c3.5,1,6.9,3.9,8.8,5.5Z" class="g4_1" />
<path d="M603.4,247.1c0,-5.3,-4.3,-9.6,-9.6,-9.6c-5.3,0,-9.6,4.3,-9.6,9.6c0,5.3,4.3,9.6,9.6,9.6c5.3,0,9.6,-4.3,9.6,-9.6Z" class="g1_1" />
<text 
x="584" 
y="249" 
dx="0,0,0,0" 
class="s3_1"
>0.66</text>

<path d="M561.3,489.6l63.3,-82.2" class="g3_1" />
<path d="M628.2,402.7c-1.9,1.7,-5.3,4.6,-8.8,5.5c3.6,-0.3,5.1,0.9,5.8,4.5c0,-3.7,1.9,-7.7,3,-10Z" class="g4_1" />
<path d="M602.5,448.6c0,-5.3,-4.3,-9.6,-9.6,-9.6c-5.3,0,-9.6,4.3,-9.6,9.6c0,5.3,4.3,9.6,9.6,9.6c5.3,0,9.6,-4.3,9.6,-9.6Z" class="g1_1" />
<text 
x="583" 
y="451" 
dx="0,0,0,0" 
class="s3_1"
>0.68</text>

<path d="M521.8,220l-1.1,249.8" class="g3_1" />
<path d="M520.7,475.7c0.5,-2.5,1.5,-6.8,3.7,-9.8c-2.7,2.5,-4.7,2.5,-7.3,0c2.1,2.9,3.1,7.3,3.6,9.8Z" class="g4_1" />
<path d="M530.9,321c0,-5.3,-4.3,-9.6,-9.6,-9.6c-5.3,0,-9.6,4.3,-9.6,9.6c0,5.3,4.3,9.6,9.6,9.6c5.3,0,9.6,-4.3,9.6,-9.6Z" class="g1_1" />
<text 
x="512" 
y="323" 
dx="0,0,0,0" 
class="s3_1"
>0.70</text>

<path d="M809.8,87.4c0,-14,-11.3,-25.2,-25.2,-25.2c-13.9,0,-25.2,11.2,-25.2,25.2c0,13.9,11.3,25.2,25.2,25.2c13.9,0,25.2,-11.3,25.2,-25.2Z" class="g4_1" />
<text 
x="760" 
y="93" 
dx="0,0" 
class="s4_1"
>e.</text>

<text 
x="773" 
y="93" 
dx="0,0,0" 
class="s5_1"
>RD1</text>

<path d="M753,87.4l-25.3,0" class="g3_1" />
<path d="M721.9,87.4c2.4,0.4,6.8,1.4,9.7,3.6c-2.4,-2.7,-2.4,-4.6,0,-7.3c-2.9,2.2,-7.3,3.2,-9.7,3.7Z" class="g4_1" />
<path d="M811.1,152.9c0,-13.9,-11.3,-25.2,-25.2,-25.2c-14,0,-25.2,11.3,-25.2,25.2c0,13.9,11.2,25.2,25.2,25.2c13.9,0,25.2,-11.3,25.2,-25.2Z" class="g4_1" />
<text 
x="761" 
y="159" 
dx="0,0" 
class="s4_1"
>e.</text>

<text 
x="774" 
y="159" 
dx="0,0,0" 
class="s5_1"
>RD2</text>

<path d="M754.3,152.9l-25.3,0" class="g3_1" />
<path d="M723.1,152.9c2.5,0.5,6.8,1.5,9.8,3.7c-2.5,-2.7,-2.5,-4.6,0,-7.3c-3,2.2,-7.3,3.1,-9.8,3.6Z" class="g4_1" />
<path d="M811.1,218.5c0,-13.9,-11.3,-25.2,-25.2,-25.2c-14,0,-25.2,11.3,-25.2,25.2c0,13.9,11.2,25.2,25.2,25.2c13.9,0,25.2,-11.3,25.2,-25.2Z" class="g4_1" />
<text 
x="761" 
y="224" 
dx="0,0" 
class="s4_1"
>e.</text>

<text 
x="774" 
y="224" 
dx="0,0,0" 
class="s5_1"
>RD3</text>

<path d="M754.3,218.5l-25.3,0" class="g3_1" />
<path d="M723.1,218.5c2.5,0.5,6.8,1.5,9.8,3.7c-2.5,-2.7,-2.5,-4.7,0,-7.4c-3,2.2,-7.3,3.2,-9.8,3.7Z" class="g4_1" />
<path d="M960.2,282.2c0,-13.6,-11,-24.6,-24.6,-24.6c-13.6,0,-24.7,11,-24.7,24.6c0,13.7,11.1,24.7,24.7,24.7c13.6,0,24.6,-11,24.6,-24.7Z" class="g4_1" />
<text 
x="911" 
y="288" 
dx="0,0" 
class="s4_1"
>e.</text>

<text 
x="924" 
y="288" 
dx="0,-0.5,0" 
class="s5_1"
>RC1</text>

<path d="M904.5,282.2l-25.3,0" class="g3_1" />
<path d="M873.4,282.2c2.4,0.5,6.8,1.5,9.7,3.7c-2.4,-2.7,-2.4,-4.6,0,-7.3c-2.9,2.2,-7.3,3.2,-9.7,3.6Z" class="g4_1" />
<path d="M959.7,347.8c0,-13.6,-11,-24.6,-24.6,-24.6c-13.7,0,-24.7,11,-24.7,24.6c0,13.6,11,24.7,24.7,24.7c13.6,0,24.6,-11.1,24.6,-24.7Z" class="g4_1" />
<text 
x="911" 
y="354" 
dx="0,0" 
class="s4_1"
>e.</text>

<text 
x="924" 
y="354" 
dx="0,-0.5,0" 
class="s5_1"
>RC2</text>

<path d="M904,347.8l-25.3,0" class="g3_1" />
<path d="M872.9,347.8c2.4,0.5,6.8,1.5,9.7,3.7c-2.4,-2.7,-2.4,-4.7,0,-7.3c-2.9,2.2,-7.3,3.1,-9.7,3.6Z" class="g4_1" />
<path d="M959,413.4c0,-13.6,-11.1,-24.7,-24.7,-24.7c-13.6,0,-24.7,11.1,-24.7,24.7c0,13.6,11.1,24.6,24.7,24.6c13.6,0,24.7,-11,24.7,-24.6Z" class="g4_1" />
<text 
x="910" 
y="419" 
dx="0,0" 
class="s4_1"
>e.</text>

<text 
x="923" 
y="419" 
dx="0,-0.5,0" 
class="s5_1"
>RC3</text>

<path d="M903.3,413.4l-25.3,0" class="g3_1" />
<path d="M872.1,413.4c2.5,0.5,6.8,1.4,9.8,3.6c-2.5,-2.6,-2.5,-4.6,0,-7.3c-3,2.2,-7.3,3.2,-9.8,3.7Z" class="g4_1" />
<path d="M805,477.1c0,-13.4,-10.9,-24.2,-24.3,-24.2c-13.4,0,-24.2,10.8,-24.2,24.2c0,13.4,10.8,24.3,24.2,24.3c13.4,0,24.3,-10.9,24.3,-24.3Z" class="g4_1" />
<text 
x="757" 
y="483" 
dx="0,0" 
class="s4_1"
>e.</text>

<text 
x="770" 
y="483" 
dx="0,0,0" 
class="s5_1"
>RF1</text>

<path d="M750.1,477.1l-25.3,0" class="g3_1" />
<path d="M718.9,477.1c2.5,0.5,6.9,1.5,9.8,3.7c-2.5,-2.7,-2.5,-4.6,0,-7.3c-2.9,2.2,-7.3,3.1,-9.8,3.6Z" class="g4_1" />
<path d="M805,542.7c0,-13.4,-10.9,-24.3,-24.3,-24.3c-13.4,0,-24.2,10.9,-24.2,24.3c0,13.4,10.8,24.3,24.2,24.3c13.4,0,24.3,-10.9,24.3,-24.3Z" class="g4_1" />
<text 
x="757" 
y="548" 
dx="0,0" 
class="s4_1"
>e.</text>

<text 
x="770" 
y="548" 
dx="0,0,0" 
class="s5_1"
>RF2</text>

<path d="M750.1,542.7l-25.3,0" class="g3_1" />
<path d="M718.9,542.7c2.5,0.5,6.9,1.5,9.8,3.6c-2.5,-2.6,-2.5,-4.6,0,-7.3c-2.9,2.2,-7.3,3.2,-9.8,3.7Z" class="g4_1" />
<path d="M805,608.3C805,594.9,794.1,584,780.7,584c-13.4,0,-24.2,10.9,-24.2,24.3c0,13.4,10.8,24.2,24.2,24.2c13.4,0,24.3,-10.8,24.3,-24.2Z" class="g4_1" />
<text 
x="757" 
y="614" 
dx="0,0" 
class="s4_1"
>e.</text>

<text 
x="770" 
y="614" 
dx="0,0,0" 
class="s5_1"
>RF3</text>

<path d="M750.1,608.3l-25.3,0" class="g3_1" />
<path d="M718.9,608.3c2.5,0.5,6.9,1.4,9.8,3.6c-2.5,-2.7,-2.5,-4.6,0,-7.3c-2.9,2.2,-7.3,3.2,-9.8,3.7Z" class="g4_1" />
<path d="M584.3,127.5l53.8,-22" class="g3_1" />
<path d="M643.6,103.3c-2.5,0.4,-6.9,1.2,-10.5,0.3c3.3,1.5,4,3.3,2.8,6.7c1.9,-3.1,5.6,-5.7,7.7,-7Z" class="g4_1" />
<path d="M621.8,116.1c0,-5.3,-4.3,-9.6,-9.7,-9.6c-5.3,0,-9.6,4.3,-9.6,9.6c0,5.3,4.3,9.6,9.6,9.6c5.4,0,9.7,-4.3,9.7,-9.6Z" class="g1_1" />
<text 
x="602" 
y="118" 
dx="0,0,0,0" 
class="s3_1"
>0.86</text>

<path d="M589.1,152.9l46.9,0" class="g3_1" />
<path d="M641.9,152.9c-2.5,-0.5,-6.9,-1.4,-9.8,-3.6c2.4,2.7,2.4,4.6,0,7.3c2.9,-2.2,7.3,-3.2,9.8,-3.7Z" class="g4_1" />
<path d="M623.4,152.9c0,-5.3,-4.3,-9.6,-9.6,-9.6c-5.3,0,-9.6,4.3,-9.6,9.6c0,5.3,4.3,9.6,9.6,9.6c5.3,0,9.6,-4.3,9.6,-9.6Z" class="g1_1" />
<text 
x="604" 
y="155" 
dx="0,0,0,0" 
class="s3_1"
>0.88</text>

<path d="M584.3,178.4l52.6,21.5" class="g3_1" />
<path d="M642.3,202.1c-2.1,-1.4,-5.8,-4,-7.7,-7.1c1.3,3.4,0.5,5.2,-2.7,6.8c3.5,-0.9,7.9,-0.2,10.4,0.3Z" class="g4_1" />
<path d="M621.1,189.5c0,-5.3,-4.2,-9.6,-9.6,-9.6c-5.3,0,-9.6,4.3,-9.6,9.6c0,5.3,4.3,9.6,9.6,9.6c5.4,0,9.6,-4.3,9.6,-9.6Z" class="g1_1" />
<text 
x="602" 
y="191" 
dx="0,0,0,0" 
class="s3_1"
>0.89</text>

<path d="M734.9,321.8l52.2,-21.1" class="g3_1" />
<path d="M792.6,298.5c-2.5,0.4,-6.9,1.2,-10.5,0.2c3.3,1.6,4,3.4,2.8,6.8c1.9,-3.1,5.6,-5.7,7.7,-7Z" class="g4_1" />
<path d="M771.6,310.8c0,-5.3,-4.3,-9.6,-9.6,-9.6c-5.3,0,-9.6,4.3,-9.6,9.6c0,5.3,4.3,9.6,9.6,9.6c5.3,0,9.6,-4.3,9.6,-9.6Z" class="g1_1" />
<text 
x="752" 
y="313" 
dx="0,0,0,0" 
class="s3_1"
>0.78</text>

<path d="M739.9,347.8l46.9,0" class="g3_1" />
<path d="M792.6,347.8c-2.4,-0.5,-6.8,-1.4,-9.7,-3.6c2.4,2.6,2.4,4.6,0,7.3c2.9,-2.2,7.3,-3.2,9.7,-3.7Z" class="g4_1" />
<path d="M774.2,347.8c0,-5.3,-4.3,-9.6,-9.6,-9.6c-5.3,0,-9.6,4.3,-9.6,9.6c0,5.3,4.3,9.6,9.6,9.6c5.3,0,9.6,-4.3,9.6,-9.6Z" class="g1_1" />
<text 
x="755" 
y="350" 
dx="0,0,0,0" 
class="s3_1"
>0.88</text>

<path d="M734.9,373.8l53.5,21.7" class="g3_1" />
<path d="M793.8,397.7c-2.1,-1.4,-5.8,-4,-7.7,-7.1c1.3,3.4,0.6,5.2,-2.7,6.8c3.5,-0.9,8,-0.2,10.4,0.3Z" class="g4_1" />
<path d="M772.2,385c0,-5.3,-4.3,-9.6,-9.6,-9.6c-5.3,0,-9.6,4.3,-9.6,9.6c0,5.3,4.3,9.6,9.6,9.6c5.3,0,9.6,-4.3,9.6,-9.6Z" class="g1_1" />
<text 
x="753" 
y="387" 
dx="0,0,0,0" 
class="s3_1"
>0.84</text>

<path d="M582.4,517.1l52.8,-21.7" class="g3_1" />
<path d="M640.7,493.1c-2.5,0.5,-6.9,1.3,-10.4,0.4c3.2,1.5,4,3.3,2.7,6.7c1.9,-3.1,5.6,-5.7,7.7,-7.1Z" class="g4_1" />
<path d="M619.4,505.9c0,-5.3,-4.3,-9.6,-9.6,-9.6c-5.3,0,-9.6,4.3,-9.6,9.6c0,5.3,4.3,9.6,9.6,9.6c5.3,0,9.6,-4.3,9.6,-9.6Z" class="g1_1" />
<text 
x="600" 
y="508" 
dx="0,0,0,0" 
class="s3_1"
>0.83</text>

<path d="M587.4,542.7l47,0" class="g3_1" />
<path d="M640.2,542.7c-2.4,-0.5,-6.8,-1.5,-9.7,-3.7c2.4,2.7,2.4,4.7,0,7.3c2.9,-2.1,7.3,-3.1,9.7,-3.6Z" class="g4_1" />
<path d="M621.8,542.7c0,-5.3,-4.3,-9.6,-9.6,-9.6c-5.3,0,-9.6,4.3,-9.6,9.6c0,5.3,4.3,9.6,9.6,9.6c5.3,0,9.6,-4.3,9.6,-9.6Z" class="g1_1" />
<text 
x="602" 
y="545" 
dx="0,0,0,0" 
class="s3_1"
>0.85</text>

<path d="M582.4,568.2L635.2,590" class="g3_1" />
<path d="M640.7,592.3c-2.1,-1.4,-5.8,-4,-7.7,-7.1c1.3,3.4,0.5,5.2,-2.7,6.7c3.5,-0.9,7.9,-0.1,10.4,0.4Z" class="g4_1" />
<path d="M619.4,579.5c0,-5.3,-4.3,-9.6,-9.6,-9.6c-5.3,0,-9.6,4.3,-9.6,9.6c0,5.3,4.3,9.6,9.6,9.6c5.3,0,9.6,-4.3,9.6,-9.6Z" class="g1_1" />
<text 
x="600" 
y="581" 
dx="0,0,0,0" 
class="s3_1"
>0.89</text>



<!-- Any embedded fonts defined here -->
<style type="text/css" ><![CDATA[

@font-face {
	font-family: CMR5_x;
	src: url("fonts/CMR5_x.woff") format("woff");
}

@font-face {
	font-family: CMR12_z;
	src: url("fonts/CMR12_z.woff") format("woff");
}

@font-face {
	font-family: CMR17_w;
	src: url("fonts/CMR17_w.woff") format("woff");
}

@font-face {
	font-family: CMR7_-;
	src: url("fonts/CMR7_-.woff") format("woff");
}

@font-face {
	font-family: CMMI12_y;
	src: url("fonts/CMMI12_y.woff") format("woff");
}

@font-face {
	font-family: CMR10_v;
	src: url("fonts/CMR10_v.woff") format("woff");
}

]]></style>

</svg>
