<?xml version="1.0" encoding="UTF-8" standalone="no"?>
<!DOCTYPE svg PUBLIC "-//W3C//DTD SVG 1.1//EN"
"http://www.w3.org/Graphics/SVG/1.1/DTD/svg11.dtd">


<!-- Page 1 -->
<svg x="0" y="0" width="935" height="1210" viewBox="0 0 935 1210" version="1.1" xmlns="http://www.w3.org/2000/svg" xmlns:xlink="http://www.w3.org/1999/xlink"
style="display: block;margin-left: auto;margin-right: auto;">
<path d="M0,0
L0,1210
L935,1210
L935,0 Z " 
fill="#FFFFFF" stroke="none" />
<image preserveAspectRatio="none" x="0" y="188" width="467" height="47" xlink:href="1/img/1.png" />
<image preserveAspectRatio="none" x="0" y="235" width="467" height="657" xlink:href="1/img/2.png" />
<image preserveAspectRatio="none" x="0" y="892" width="467" height="47" xlink:href="1/img/3.png" />
<image preserveAspectRatio="none" x="467" y="188" width="466" height="47" xlink:href="1/img/4.png" />
<image preserveAspectRatio="none" x="467" y="235" width="466" height="47" xlink:href="1/img/5.png" />
<image preserveAspectRatio="none" x="467" y="282" width="466" height="47" xlink:href="1/img/6.png" />
<image preserveAspectRatio="none" x="467" y="329" width="466" height="46" xlink:href="1/img/7.png" />
<image preserveAspectRatio="none" x="467" y="375" width="466" height="47" xlink:href="1/img/8.png" />
<image preserveAspectRatio="none" x="467" y="422" width="466" height="47" xlink:href="1/img/9.png" />
<image preserveAspectRatio="none" x="467" y="469" width="466" height="47" xlink:href="1/img/10.png" />
<image preserveAspectRatio="none" x="467" y="516" width="466" height="47" xlink:href="1/img/11.png" />
<image preserveAspectRatio="none" x="467" y="563" width="466" height="47" xlink:href="1/img/12.png" />
<image preserveAspectRatio="none" x="467" y="610" width="466" height="47" xlink:href="1/img/13.png" />
<image preserveAspectRatio="none" x="467" y="657" width="466" height="47" xlink:href="1/img/14.png" />
<image preserveAspectRatio="none" x="467" y="704" width="466" height="47" xlink:href="1/img/15.png" />
<image preserveAspectRatio="none" x="467" y="751" width="466" height="47" xlink:href="1/img/16.png" />
<image preserveAspectRatio="none" x="467" y="798" width="466" height="47" xlink:href="1/img/17.png" />
<image preserveAspectRatio="none" x="467" y="845" width="466" height="47" xlink:href="1/img/18.png" />
<image preserveAspectRatio="none" x="467" y="892" width="466" height="47" xlink:href="1/img/19.png" />

</svg>
