<?xml version="1.0" encoding="UTF-8" standalone="no"?>
<!DOCTYPE svg PUBLIC "-//W3C//DTD SVG 1.1//EN"
"http://www.w3.org/Graphics/SVG/1.1/DTD/svg11.dtd">


<!-- Page 1 -->
<svg x="0" y="0" width="739" height="574" viewBox="0 0 739 574" version="1.1" xmlns="http://www.w3.org/2000/svg" xmlns:xlink="http://www.w3.org/1999/xlink"
style="display: block;margin-left: auto;margin-right: auto;">
<defs>

<style type="text/css"><![CDATA[

.g1_1{
fill: #D8D8D8;
}
.g2_1{
fill: none;
stroke: #D8D8D8;
stroke-width: 1.8265041;
stroke-linecap: butt;
stroke-linejoin: miter;
}
.g3_1{
fill: #B2B2B2;
}
.g4_1{
fill: none;
stroke: #B2B2B2;
stroke-width: 1.8265041;
stroke-linecap: butt;
stroke-linejoin: miter;
}

.s1_1{
font-size: 15.22px;
font-family: CMR10_v;
fill: #191919;
}
.s2_1{
font-size: 10.65px;
font-family: CMR7_w;
fill: #191919;
}
.s3_1{
font-size: 31.57px;
font-family: CMR17_x;
fill: #191919;
}

]]></style>

</defs>
<path d="M0,0
L0,574
L739,574
L739,0 Z " 
fill="#FFFFFF" stroke="none" />
<path d="M48.8,5.7l-31.1,0c-3.3,0,-6.1,2.7,-6.1,6.1l0,31.1c0,3.4,2.8,6.1,6.1,6.1l31.1,0c3.4,0,6.1,-2.7,6.1,-6.1l0,-31.1C54.9,8.4,52.2,5.7,48.8,5.7Z" class="g1_1" />
<text 
x="20" 
y="31" 
dx="0,0" 
class="s1_1"
>Gc</text>

<text 
x="39" 
y="33" 
dx="0" 
class="s2_1"
>1</text>

<path d="M48.8,200.6l-31.1,0c-3.3,0,-6.1,2.7,-6.1,6.1l0,31.1c0,3.3,2.8,6.1,6.1,6.1l31.1,0c3.4,0,6.1,-2.8,6.1,-6.1l0,-31.1c0,-3.4,-2.7,-6.1,-6.1,-6.1Z" class="g1_1" />
<text 
x="21" 
y="226" 
dx="0,0" 
class="s1_1"
>Gf</text>

<text 
x="38" 
y="228" 
dx="0" 
class="s2_1"
>1</text>

<path d="M48.8,395.5l-31.1,0c-3.3,0,-6.1,2.7,-6.1,6l0,31.2c0,3.3,2.8,6.1,6.1,6.1l31.1,0c3.4,0,6.1,-2.8,6.1,-6.1l0,-31.2c0,-3.3,-2.7,-6,-6.1,-6Z" class="g1_1" />
<text 
x="20" 
y="421" 
dx="0,0" 
class="s1_1"
>Gs</text>

<text 
x="38" 
y="423" 
dx="0" 
class="s2_1"
>1</text>

<path d="M48.8,70.6l-31.1,0c-3.3,0,-6.1,2.8,-6.1,6.1l0,31.2c0,3.3,2.8,6.1,6.1,6.1l31.1,0c3.4,0,6.1,-2.8,6.1,-6.1l0,-31.2c0,-3.3,-2.7,-6.1,-6.1,-6.1Z" class="g1_1" />
<text 
x="20" 
y="96" 
dx="0,0" 
class="s1_1"
>Gc</text>

<text 
x="39" 
y="98" 
dx="0" 
class="s2_1"
>2</text>

<path d="M48.8,265.5l-31.1,0c-3.3,0,-6.1,2.8,-6.1,6.1l0,31.1c0,3.4,2.8,6.1,6.1,6.1l31.1,0c3.4,0,6.1,-2.7,6.1,-6.1l0,-31.1c0,-3.3,-2.7,-6.1,-6.1,-6.1Z" class="g1_1" />
<text 
x="21" 
y="291" 
dx="0,0" 
class="s1_1"
>Gf</text>

<text 
x="38" 
y="293" 
dx="0" 
class="s2_1"
>2</text>

<path d="M48.8,460.4l-31.1,0c-3.3,0,-6.1,2.7,-6.1,6.1l0,31.1c0,3.4,2.8,6.1,6.1,6.1l31.1,0c3.4,0,6.1,-2.7,6.1,-6.1l0,-31.1c0,-3.4,-2.7,-6.1,-6.1,-6.1Z" class="g1_1" />
<text 
x="20" 
y="486" 
dx="0,0" 
class="s1_1"
>Gs</text>

<text 
x="38" 
y="488" 
dx="0" 
class="s2_1"
>2</text>

<path d="M48.8,135.6l-31.1,0c-3.3,0,-6.1,2.7,-6.1,6.1l0,31.1c0,3.4,2.8,6.1,6.1,6.1l31.1,0c3.4,0,6.1,-2.7,6.1,-6.1l0,-31.1c0,-3.4,-2.7,-6.1,-6.1,-6.1Z" class="g1_1" />
<text 
x="20" 
y="161" 
dx="0,0" 
class="s1_1"
>Gc</text>

<text 
x="39" 
y="163" 
dx="0" 
class="s2_1"
>3</text>

<path d="M48.8,330.5l-31.1,0c-3.3,0,-6.1,2.7,-6.1,6.1l0,31.1c0,3.4,2.8,6.1,6.1,6.1l31.1,0c3.4,0,6.1,-2.7,6.1,-6.1l0,-31.1c0,-3.4,-2.7,-6.1,-6.1,-6.1Z" class="g1_1" />
<text 
x="21" 
y="356" 
dx="0,0" 
class="s1_1"
>Gf</text>

<text 
x="38" 
y="358" 
dx="0" 
class="s2_1"
>3</text>

<path d="M48.8,525.4l-31.1,0c-3.3,0,-6.1,2.7,-6.1,6.1l0,31.1c0,3.4,2.8,6.1,6.1,6.1l31.1,0c3.4,0,6.1,-2.7,6.1,-6.1l0,-31.1c0,-3.4,-2.7,-6.1,-6.1,-6.1Z" class="g1_1" />
<text 
x="20" 
y="551" 
dx="0,0" 
class="s1_1"
>Gs</text>

<text 
x="38" 
y="553" 
dx="0" 
class="s2_1"
>3</text>

<path d="M241.8,92.3c0,-33.5,-27.2,-60.6,-60.7,-60.6c-33.5,0,-60.6,27.1,-60.6,60.6c0,33.5,27.1,60.6,60.6,60.6c33.5,0,60.7,-27.1,60.7,-60.6Z" class="g1_1" />
<text 
x="163" 
y="103" 
dx="0,0" 
class="s3_1"
>Gc</text>

<path d="M119.6,65.2L66.2,41.8" class="g2_1" />
<path d="M60.8,39.4c2.1,1.5,5.7,4.1,7.5,7.3c-1.2,-3.4,-0.4,-5.2,3,-6.7c-3.6,0.8,-8,0,-10.5,-0.6Z" class="g1_1" />
<path d="M114.1,92.3l-46.9,0" class="g2_1" />
<path d="M61.3,92.3c2.5,0.5,6.8,1.5,9.8,3.7c-2.5,-2.7,-2.5,-4.7,0,-7.4c-3,2.2,-7.3,3.2,-9.8,3.7Z" class="g1_1" />
<path d="M119.6,119.4L66.2,142.8" class="g2_1" />
<path d="M60.8,145.2c2.5,-0.6,6.9,-1.4,10.5,-0.6c-3.4,-1.5,-4.2,-3.3,-3,-6.7c-1.8,3.2,-5.4,5.8,-7.5,7.3Z" class="g1_1" />
<path d="M241.8,287.2c0,-33.5,-27.2,-60.6,-60.7,-60.6c-33.5,0,-60.6,27.1,-60.6,60.6c0,33.5,27.1,60.6,60.6,60.6c33.5,0,60.7,-27.1,60.7,-60.6Z" class="g1_1" />
<text 
x="165" 
y="298" 
dx="0,0" 
class="s3_1"
>Gf</text>

<path d="M119.6,260.1L66.2,236.7" class="g2_1" />
<path d="M60.8,234.3c2.1,1.4,5.7,4.1,7.5,7.3c-1.2,-3.4,-0.4,-5.2,3,-6.7c-3.6,0.8,-8,0,-10.5,-0.6Z" class="g1_1" />
<path d="M114.1,287.2l-46.9,0" class="g2_1" />
<path d="M61.3,287.2c2.5,0.5,6.8,1.4,9.8,3.6c-2.5,-2.6,-2.5,-4.6,0,-7.3c-3,2.2,-7.3,3.2,-9.8,3.7Z" class="g1_1" />
<path d="M119.6,314.2L66.2,337.7" class="g2_1" />
<path d="M60.8,340c2.5,-0.5,6.9,-1.4,10.5,-0.5c-3.4,-1.5,-4.2,-3.3,-3,-6.7c-1.8,3.2,-5.4,5.8,-7.5,7.2Z" class="g1_1" />
<path d="M241.8,482.1c0,-33.5,-27.2,-60.7,-60.7,-60.7c-33.5,0,-60.6,27.2,-60.6,60.7c0,33.5,27.1,60.6,60.6,60.6c33.5,0,60.7,-27.1,60.7,-60.6Z" class="g1_1" />
<text 
x="163" 
y="492" 
dx="0,0" 
class="s3_1"
>Gs</text>

<path d="M119.6,455L66.2,431.6" class="g2_1" />
<path d="M60.8,429.2c2.1,1.4,5.7,4.1,7.5,7.3c-1.2,-3.5,-0.4,-5.2,3,-6.7c-3.6,0.8,-8,-0.1,-10.5,-0.6Z" class="g1_1" />
<path d="M114.1,482.1l-46.9,0" class="g2_1" />
<path d="M61.3,482.1c2.5,0.5,6.8,1.4,9.8,3.6c-2.5,-2.7,-2.5,-4.6,0,-7.3c-3,2.2,-7.3,3.2,-9.8,3.7Z" class="g1_1" />
<path d="M119.6,509.1L66.2,532.6" class="g2_1" />
<path d="M60.8,534.9c2.5,-0.5,6.9,-1.4,10.5,-0.5c-3.4,-1.5,-4.2,-3.3,-3,-6.8c-1.8,3.2,-5.4,5.9,-7.5,7.3Z" class="g1_1" />
<path d="M471.9,92.3c0,-33.5,-27.1,-60.6,-60.6,-60.6c-33.5,0,-60.7,27.1,-60.7,60.6c0,33.5,27.2,60.6,60.7,60.6c33.5,0,60.6,-27.1,60.6,-60.6Z" class="g3_1" />
<text 
x="384" 
y="86" 
dx="0,0,0,0,0,0,0" 
class="s1_1"
>Reading</text>

<text 
x="380" 
y="105" 
dx="0,0,0,0,0.4,0,0,0" 
class="s1_1"
>Decoding</text>

<path d="M619.2,287.2c0,-33.5,-27.2,-60.6,-60.7,-60.6c-33.5,0,-60.6,27.1,-60.6,60.6c0,33.5,27.1,60.6,60.6,60.6c33.5,0,60.7,-27.1,60.7,-60.6Z" class="g3_1" />
<text 
x="531" 
y="281" 
dx="0,0,0,0,0,0,0" 
class="s1_1"
>Reading</text>

<text 
x="507" 
y="300" 
dx="0,0,0,0,0,0,0,0,0,0,0,0,0" 
class="s1_1"
>Comprehension</text>

<path d="M471.9,482.1c0,-33.5,-27.1,-60.7,-60.6,-60.7c-33.5,0,-60.7,27.2,-60.7,60.7c0,33.5,27.2,60.6,60.7,60.6c33.5,0,60.6,-27.1,60.6,-60.6Z" class="g3_1" />
<text 
x="384" 
y="476" 
dx="0,0,0,0,0,0,0" 
class="s1_1"
>Reading</text>

<text 
x="384" 
y="494" 
dx="0,0,0,0,0,0,0" 
class="s1_1"
>Fluency</text>

<path d="M574.7,70.6l-31.1,0c-3.4,0,-6.1,2.8,-6.1,6.1l0,31.2c0,3.3,2.7,6.1,6.1,6.1l31.1,0c3.4,0,6.1,-2.8,6.1,-6.1l0,-31.2c0,-3.3,-2.7,-6.1,-6.1,-6.1Z" class="g3_1" />
<text 
x="544" 
y="96" 
dx="0,0" 
class="s1_1"
>DC</text>

<text 
x="567" 
y="98" 
dx="0" 
class="s2_1"
>2</text>

<path d="M574.7,5.1l-31.1,0c-3.4,0,-6.1,2.7,-6.1,6.1l0,31.1c0,3.4,2.7,6.1,6.1,6.1l31.1,0c3.4,0,6.1,-2.7,6.1,-6.1l0,-31.1c0,-3.4,-2.7,-6.1,-6.1,-6.1Z" class="g3_1" />
<text 
x="544" 
y="30" 
dx="0,0" 
class="s1_1"
>DC</text>

<text 
x="567" 
y="33" 
dx="0" 
class="s2_1"
>1</text>

<path d="M574.7,136.2l-31.1,0c-3.4,0,-6.1,2.7,-6.1,6.1l0,31.1c0,3.4,2.7,6.1,6.1,6.1l31.1,0c3.4,0,6.1,-2.7,6.1,-6.1l0,-31.1c0,-3.4,-2.7,-6.1,-6.1,-6.1Z" class="g3_1" />
<text 
x="544" 
y="161" 
dx="0,0" 
class="s1_1"
>DC</text>

<text 
x="567" 
y="164" 
dx="0" 
class="s2_1"
>3</text>

<path d="M472.6,65.1L526.2,41.3" class="g4_1" />
<path d="M531.6,38.9c-2.4,0.6,-6.8,1.5,-10.4,0.6c3.3,1.5,4.1,3.3,3,6.7c1.7,-3.2,5.4,-5.8,7.4,-7.3Z" class="g3_1" />
<path d="M478.3,92.3l46.9,0" class="g4_1" />
<path d="M531.1,92.3c-2.5,-0.5,-6.8,-1.5,-9.8,-3.7c2.5,2.7,2.5,4.7,0,7.4c3,-2.2,7.3,-3.2,9.8,-3.7Z" class="g3_1" />
<path d="M472.6,119.5l53.6,23.8" class="g4_1" />
<path d="M531.6,145.7c-2,-1.5,-5.7,-4.1,-7.4,-7.3c1.1,3.4,0.3,5.2,-3,6.7c3.6,-0.9,8,0,10.4,0.6Z" class="g3_1" />
<path d="M721.9,265.5l-31.1,0c-3.4,0,-6.1,2.8,-6.1,6.1l0,31.1c0,3.4,2.7,6.1,6.1,6.1l31.1,0c3.4,0,6.1,-2.7,6.1,-6.1l0,-31.1c0,-3.3,-2.7,-6.1,-6.1,-6.1Z" class="g3_1" />
<text 
x="692" 
y="291" 
dx="0,-0.4" 
class="s1_1"
>RC</text>

<text 
x="713" 
y="293" 
dx="0" 
class="s2_1"
>2</text>

<path d="M721.9,200l-31.1,0c-3.4,0,-6.1,2.7,-6.1,6l0,31.2c0,3.3,2.7,6.1,6.1,6.1l31.1,0c3.4,0,6.1,-2.8,6.1,-6.1L728,206c0,-3.3,-2.7,-6,-6.1,-6Z" class="g3_1" />
<text 
x="692" 
y="225" 
dx="0,-0.4" 
class="s1_1"
>RC</text>

<text 
x="713" 
y="227" 
dx="0" 
class="s2_1"
>1</text>

<path d="M721.9,331.1l-31.1,0c-3.4,0,-6.1,2.7,-6.1,6.1l0,31.1c0,3.4,2.7,6.1,6.1,6.1l31.1,0c3.4,0,6.1,-2.7,6.1,-6.1l0,-31.1c0,-3.4,-2.7,-6.1,-6.1,-6.1Z" class="g3_1" />
<text 
x="692" 
y="356" 
dx="0,-0.4" 
class="s1_1"
>RC</text>

<text 
x="713" 
y="359" 
dx="0" 
class="s2_1"
>3</text>

<path d="M619.9,260l53.6,-23.8" class="g4_1" />
<path d="M678.8,233.8c-2.4,0.6,-6.8,1.4,-10.4,0.6c3.4,1.5,4.2,3.3,3,6.7c1.8,-3.2,5.4,-5.9,7.4,-7.3Z" class="g3_1" />
<path d="M625.5,287.2l47,0" class="g4_1" />
<path d="M678.3,287.2c-2.4,-0.5,-6.8,-1.5,-9.7,-3.7c2.4,2.7,2.4,4.7,0,7.3c2.9,-2.2,7.3,-3.1,9.7,-3.6Z" class="g3_1" />
<path d="M619.9,314.4l53.6,23.8" class="g4_1" />
<path d="M678.8,340.6c-2,-1.5,-5.6,-4.2,-7.4,-7.3c1.2,3.4,0.4,5.2,-3,6.6c3.6,-0.8,8,0.1,10.4,0.7Z" class="g3_1" />
<path d="M574.7,460.4l-31.1,0c-3.4,0,-6.1,2.7,-6.1,6.1l0,31.1c0,3.4,2.7,6.1,6.1,6.1l31.1,0c3.4,0,6.1,-2.7,6.1,-6.1l0,-31.1c0,-3.4,-2.7,-6.1,-6.1,-6.1Z" class="g3_1" />
<text 
x="545" 
y="486" 
dx="0,0" 
class="s1_1"
>RF</text>

<text 
x="566" 
y="488" 
dx="0" 
class="s2_1"
>2</text>

<path d="M574.7,394.8l-31.1,0c-3.4,0,-6.1,2.8,-6.1,6.1l0,31.2c0,3.3,2.7,6.1,6.1,6.1l31.1,0c3.4,0,6.1,-2.8,6.1,-6.1l0,-31.2c0,-3.3,-2.7,-6.1,-6.1,-6.1Z" class="g3_1" />
<text 
x="545" 
y="420" 
dx="0,0" 
class="s1_1"
>RF</text>

<text 
x="566" 
y="422" 
dx="0" 
class="s2_1"
>1</text>

<path d="M574.7,526l-31.1,0c-3.4,0,-6.1,2.7,-6.1,6.1l0,31.1c0,3.4,2.7,6.1,6.1,6.1l31.1,0c3.4,0,6.1,-2.7,6.1,-6.1l0,-31.1c0,-3.4,-2.7,-6.1,-6.1,-6.1Z" class="g3_1" />
<text 
x="545" 
y="551" 
dx="0,0" 
class="s1_1"
>RF</text>

<text 
x="566" 
y="553" 
dx="0" 
class="s2_1"
>3</text>

<path d="M472.6,454.9l53.6,-23.8" class="g4_1" />
<path d="M531.6,428.7c-2.4,0.5,-6.8,1.4,-10.4,0.6c3.3,1.5,4.1,3.3,3,6.7c1.7,-3.2,5.4,-5.9,7.4,-7.3Z" class="g3_1" />
<path d="M478.3,482.1l46.9,0" class="g4_1" />
<path d="M531.1,482.1c-2.5,-0.5,-6.8,-1.5,-9.8,-3.7c2.5,2.7,2.5,4.6,0,7.3c3,-2.2,7.3,-3.1,9.8,-3.6Z" class="g3_1" />
<path d="M472.6,509.3l53.6,23.8" class="g4_1" />
<path d="M531.6,535.4c-2,-1.4,-5.7,-4.1,-7.4,-7.3c1.1,3.5,0.3,5.3,-3,6.7c3.6,-0.8,8,0.1,10.4,0.6Z" class="g3_1" />
<path d="M181.1,220.2l0,-55" class="g2_1" />
<path d="M181.1,159.3c-0.5,2.5,-1.4,6.8,-3.6,9.8c2.7,-2.5,4.6,-2.5,7.3,0c-2.2,-3,-3.2,-7.3,-3.7,-9.8Z" class="g1_1" />
<path d="M181.1,415l0,-54.9" class="g2_1" />
<path d="M181.1,354.2c-0.5,2.4,-1.4,6.8,-3.6,9.7c2.7,-2.4,4.6,-2.4,7.3,0c-2.2,-2.9,-3.2,-7.3,-3.7,-9.7Z" class="g1_1" />
<path d="M248.2,92.3l90.2,0" class="g2_1" />
<path d="M344.3,92.3c-2.5,-0.5,-6.9,-1.5,-9.8,-3.7c2.4,2.7,2.4,4.7,0,7.4c2.9,-2.2,7.3,-3.2,9.8,-3.7Z" class="g1_1" />
<path d="M240.8,123.1L493.6,253.7" class="g2_1" />
<path d="M498.8,256.4c-1.9,-1.6,-5.4,-4.5,-7,-7.8c1,3.5,0.1,5.3,-3.3,6.5c3.6,-0.6,7.9,0.6,10.3,1.3Z" class="g1_1" />
<path d="M215.2,150l159,269.3" class="g2_1" />
<path d="M377.2,424.3c-0.8,-2.3,-2.2,-6.6,-1.8,-10.2c-1.1,3.5,-2.8,4.4,-6.3,3.7c3.4,1.4,6.4,4.7,8.1,6.5Z" class="g1_1" />
<path d="M248.2,287.2l237.5,0" class="g2_1" />
<path d="M491.5,287.2c-2.4,-0.5,-6.8,-1.5,-9.7,-3.7c2.4,2.7,2.4,4.7,0,7.3c2.9,-2.2,7.3,-3.1,9.7,-3.6Z" class="g1_1" />
<path d="M232.5,330.6l123,104.2" class="g2_1" />
<path d="M360,438.6c-1.6,-1.9,-4.3,-5.5,-5.1,-9.1c0.1,3.6,-1.2,5.1,-4.8,5.6c3.7,0.2,7.7,2.3,9.9,3.5Z" class="g1_1" />
<path d="M232.5,243.7l123,-104.2" class="g2_1" />
<path d="M360,135.8c-2.2,1.2,-6.2,3.3,-9.9,3.5c3.6,0.5,4.9,1.9,4.8,5.6c0.8,-3.6,3.5,-7.2,5.1,-9.1Z" class="g1_1" />
<path d="M248.2,482.1l90.2,0" class="g2_1" />
<path d="M344.3,482.1c-2.5,-0.5,-6.9,-1.5,-9.8,-3.7c2.4,2.7,2.4,4.6,0,7.3c2.9,-2.2,7.3,-3.1,9.8,-3.6Z" class="g1_1" />
<path d="M215.2,424.3l159,-269.2" class="g2_1" />
<path d="M377.2,150c-1.7,1.9,-4.7,5.2,-8.1,6.6c3.5,-0.8,5.2,0.2,6.3,3.7c-0.4,-3.7,1,-7.9,1.8,-10.3Z" class="g1_1" />
<path d="M240.8,451.2L493.6,320.7" class="g2_1" />
<path d="M498.8,318c-2.4,0.7,-6.7,1.8,-10.3,1.2c3.4,1.3,4.3,3,3.3,6.5c1.6,-3.2,5.1,-6.1,7,-7.7Z" class="g1_1" />
<path d="M451.8,145.9l62.7,83" class="g4_1" />
<path d="M518,233.6c-1.1,-2.3,-2.9,-6.4,-3,-10c-0.6,3.5,-2.2,4.7,-5.8,4.4c3.5,1,6.9,3.9,8.8,5.6Z" class="g3_1" />
<path d="M451.8,428.4l62.7,-82.9" class="g4_1" />
<path d="M518,340.8c-1.9,1.7,-5.3,4.6,-8.8,5.6c3.6,-0.3,5.2,0.8,5.8,4.4c0.1,-3.7,1.9,-7.8,3,-10Z" class="g3_1" />
<path d="M411.3,159.3l0,249.9" class="g4_1" />
<path d="M411.3,415c0.5,-2.4,1.4,-6.8,3.6,-9.7c-2.7,2.4,-4.6,2.4,-7.3,0c2.2,2.9,3.2,7.3,3.7,9.7Z" class="g3_1" />


<!-- Any embedded fonts defined here -->
<style type="text/css" ><![CDATA[

@font-face {
	font-family: CMR7_w;
	src: url("fonts/CMR7_w.woff") format("woff");
}

@font-face {
	font-family: CMR17_x;
	src: url("fonts/CMR17_x.woff") format("woff");
}

@font-face {
	font-family: CMR10_v;
	src: url("fonts/CMR10_v.woff") format("woff");
}

]]></style>

</svg>
